<?xml version="1.0" encoding="UTF-8" standalone="no"?><svg xmlns="http://www.w3.org/2000/svg" xmlns:xlink="http://www.w3.org/1999/xlink" contentStyleType="text/css" height="1404px" preserveAspectRatio="none" style="width:3089px;height:1404px;background:#FFFFFF;" version="1.1" viewBox="0 0 3089 1404" width="3089px" zoomAndPan="magnify"><defs/><g><rect fill="#FFFFFF" height="26.2969" rx="3" ry="3" style="stroke:#00000000;stroke-width:1.0;" width="278" x="1404" y="15"/><text fill="#333333" font-family="&quot;Segoe UI, Helvetica, Arial, sans-serif&quot;" font-size="14" font-weight="bold" lengthAdjust="spacing" textLength="268" x="1409" y="32.9951">CryptoBot — Pipeline ETL Complet</text><rect fill="#FEF3E8" height="1324.3438" style="stroke:#FEF3E8;stroke-width:1.0;" width="751" x="15" y="48.627"/><ellipse cx="391.5" cy="77.5957" fill="#222222" rx="10" ry="10" style="stroke:#222222;stroke-width:1.0;"/><rect fill="#555555" height="6" rx="2.5" ry="2.5" style="stroke:#555555;stroke-width:1.0;" width="741" x="21" y="107.5957"/><rect fill="#FEF3E8" height="61.9063" rx="3" ry="3" style="stroke:#E8943A;stroke-width:0.5;" width="148" x="33" y="133.5957"/><text fill="#333333" font-family="&quot;Segoe UI, Helvetica, Arial, sans-serif&quot;" font-size="12" lengthAdjust="spacing" textLength="128" x="43" y="154.7344">collect_ohlcv_priority</text><text fill="#333333" font-family="&quot;Segoe UI, Helvetica, Arial, sans-serif&quot;" font-size="12" font-weight="bold" lengthAdjust="spacing" textLength="80" x="43" y="168.7031">every 1 min</text><text fill="#333333" font-family="&quot;Segoe UI, Helvetica, Arial, sans-serif&quot;" font-size="12" lengthAdjust="spacing" textLength="117" x="43" y="182.6719">13 priority symbols</text><rect fill="#FEF3E8" height="61.9063" rx="3" ry="3" style="stroke:#E8943A;stroke-width:0.5;" width="140" x="191" y="133.5957"/><text fill="#333333" font-family="&quot;Segoe UI, Helvetica, Arial, sans-serif&quot;" font-size="12" lengthAdjust="spacing" textLength="99" x="201" y="154.7344">collect_ohlcv_all</text><text fill="#333333" font-family="&quot;Segoe UI, Helvetica, Arial, sans-serif&quot;" font-size="12" font-weight="bold" lengthAdjust="spacing" textLength="80" x="201" y="168.7031">every 5 min</text><text fill="#333333" font-family="&quot;Segoe UI, Helvetica, Arial, sans-serif&quot;" font-size="12" lengthAdjust="spacing" textLength="120" x="201" y="182.6719">all tracked symbols</text><rect fill="#FEF3E8" height="61.9063" rx="3" ry="3" style="stroke:#E8943A;stroke-width:0.5;" width="146" x="341" y="133.5957"/><text fill="#333333" font-family="&quot;Segoe UI, Helvetica, Arial, sans-serif&quot;" font-size="12" lengthAdjust="spacing" textLength="126" x="351" y="154.7344">collect_market_data</text><text fill="#333333" font-family="&quot;Segoe UI, Helvetica, Arial, sans-serif&quot;" font-size="12" font-weight="bold" lengthAdjust="spacing" textLength="80" x="351" y="168.7031">every 5 min</text><text fill="#333333" font-family="&quot;Segoe UI, Helvetica, Arial, sans-serif&quot;" font-size="12" lengthAdjust="spacing" textLength="121" x="351" y="182.6719">CoinGecko markets</text><rect fill="#FEF3E8" height="61.9063" rx="3" ry="3" style="stroke:#E8943A;stroke-width:0.5;" width="108" x="497" y="133.5957"/><text fill="#333333" font-family="&quot;Segoe UI, Helvetica, Arial, sans-serif&quot;" font-size="12" lengthAdjust="spacing" textLength="79" x="507" y="154.7344">collect_news</text><text fill="#333333" font-family="&quot;Segoe UI, Helvetica, Arial, sans-serif&quot;" font-size="12" font-weight="bold" lengthAdjust="spacing" textLength="88" x="507" y="168.7031">every 15 min</text><text fill="#333333" font-family="&quot;Segoe UI, Helvetica, Arial, sans-serif&quot;" font-size="12" lengthAdjust="spacing" textLength="63" x="507" y="182.6719">RSS feeds</text><rect fill="#FEF3E8" height="61.9063" rx="3" ry="3" style="stroke:#E8943A;stroke-width:0.5;" width="135" x="615" y="133.5957"/><text fill="#333333" font-family="&quot;Segoe UI, Helvetica, Arial, sans-serif&quot;" font-size="12" lengthAdjust="spacing" textLength="115" x="625" y="154.7344">collect_fear_greed</text><text fill="#333333" font-family="&quot;Segoe UI, Helvetica, Arial, sans-serif&quot;" font-size="12" font-weight="bold" lengthAdjust="spacing" textLength="88" x="625" y="168.7031">every 1 hour</text><text fill="#333333" font-family="&quot;Segoe UI, Helvetica, Arial, sans-serif&quot;" font-size="12" lengthAdjust="spacing" textLength="90" x="625" y="182.6719">Alternative.me</text><rect fill="#555555" height="6" rx="2.5" ry="2.5" style="stroke:#555555;stroke-width:1.0;" width="741" x="21" y="215.502"/><line style="stroke:#000000;stroke-width:1.5;" x1="15" x2="15" y1="48.627" y2="1372.9707"/><rect fill="#F3EEFF" height="1324.3438" style="stroke:#F3EEFF;stroke-width:1.0;" width="508" x="766" y="48.627"/><rect fill="#FEF3E8" height="33.9688" rx="3" ry="3" style="stroke:#E8943A;stroke-width:0.5;" width="266" x="846.5" y="241.502"/><text fill="#333333" font-family="&quot;Segoe UI, Helvetica, Arial, sans-serif&quot;" font-size="12" lengthAdjust="spacing" textLength="246" x="856.5" y="262.6406">Acquire semaphore (max 5 concurrent)</text><rect fill="#FEF3E8" height="33.9688" rx="3" ry="3" style="stroke:#E8943A;stroke-width:0.5;" width="158" x="900.5" y="295.4707"/><text fill="#333333" font-family="&quot;Segoe UI, Helvetica, Arial, sans-serif&quot;" font-size="12" lengthAdjust="spacing" textLength="138" x="910.5" y="316.6094">Call collector.fetch_*()</text><polygon fill="#F3EEFF" points="950.5,349.4395,1008.5,349.4395,1020.5,361.4395,1008.5,373.4395,950.5,373.4395,938.5,361.4395,950.5,349.4395" style="stroke:#7C5CFC;stroke-width:0.5;"/><text fill="#333333" font-family="&quot;Segoe UI, Helvetica, Arial, sans-serif&quot;" font-size="12" lengthAdjust="spacing" textLength="58" x="950.5" y="365.5938">Success?</text><text fill="#333333" font-family="&quot;Segoe UI, Helvetica, Arial, sans-serif&quot;" font-size="12" lengthAdjust="spacing" textLength="21" x="917.5" y="358.6094">yes</text><text fill="#333333" font-family="&quot;Segoe UI, Helvetica, Arial, sans-serif&quot;" font-size="12" lengthAdjust="spacing" textLength="16" x="1020.5" y="358.6094">no</text><rect fill="#FEF3E8" height="33.9688" rx="3" ry="3" style="stroke:#E8943A;stroke-width:0.5;" width="140" x="772" y="383.4395"/><text fill="#333333" font-family="&quot;Segoe UI, Helvetica, Arial, sans-serif&quot;" font-size="12" lengthAdjust="spacing" textLength="120" x="782" y="404.5781">Return raw records</text><rect fill="#FEF3E8" height="33.9688" rx="3" ry="3" style="stroke:#E8943A;stroke-width:0.5;" width="208" x="1013" y="383.4395"/><text fill="#333333" font-family="&quot;Segoe UI, Helvetica, Arial, sans-serif&quot;" font-size="12" lengthAdjust="spacing" textLength="188" x="1023" y="404.5781">Retry with exponential backoff</text><polygon fill="#F3EEFF" points="1072.5,437.4082,1161.5,437.4082,1173.5,449.4082,1161.5,461.4082,1072.5,461.4082,1060.5,449.4082,1072.5,437.4082" style="stroke:#7C5CFC;stroke-width:0.5;"/><text fill="#333333" font-family="&quot;Segoe UI, Helvetica, Arial, sans-serif&quot;" font-size="12" lengthAdjust="spacing" textLength="89" x="1072.5" y="453.5625">attempts &lt; 5?</text><text fill="#333333" font-family="&quot;Segoe UI, Helvetica, Arial, sans-serif&quot;" font-size="12" lengthAdjust="spacing" textLength="21" x="1039.5" y="446.5781">yes</text><text fill="#333333" font-family="&quot;Segoe UI, Helvetica, Arial, sans-serif&quot;" font-size="12" lengthAdjust="spacing" textLength="16" x="1173.5" y="446.5781">no</text><rect fill="#FEF3E8" height="33.9688" rx="3" ry="3" style="stroke:#E8943A;stroke-width:0.5;" width="176" x="942" y="471.4082"/><text fill="#333333" font-family="&quot;Segoe UI, Helvetica, Arial, sans-serif&quot;" font-size="12" lengthAdjust="spacing" textLength="156" x="952" y="492.5469">Wait 2^attempt seconds</text><rect fill="#FEF3E8" height="33.9688" rx="3" ry="3" style="stroke:#E8943A;stroke-width:0.5;" width="88" x="986" y="525.377"/><text fill="#333333" font-family="&quot;Segoe UI, Helvetica, Arial, sans-serif&quot;" font-size="12" lengthAdjust="spacing" textLength="68" x="996" y="546.5156">Retry fetch</text><rect fill="#FEF3E8" height="33.9688" rx="3" ry="3" style="stroke:#E8943A;stroke-width:0.5;" width="132" x="1138" y="471.4082"/><text fill="#333333" font-family="&quot;Segoe UI, Helvetica, Arial, sans-serif&quot;" font-size="12" lengthAdjust="spacing" textLength="112" x="1148" y="492.5469">Log CollectorError</text><rect fill="#FEF3E8" height="33.9688" rx="3" ry="3" style="stroke:#E8943A;stroke-width:0.5;" width="108" x="1150" y="525.377"/><text fill="#333333" font-family="&quot;Segoe UI, Helvetica, Arial, sans-serif&quot;" font-size="12" lengthAdjust="spacing" textLength="88" x="1160" y="546.5156">Skip this cycle</text><ellipse cx="1204" cy="590.3457" rx="11" ry="11" style="stroke:#222222;stroke-width:1.0;fill:none;"/><ellipse cx="1204" cy="590.3457" fill="#222222" rx="6" ry="6" style="stroke:#111111;stroke-width:1.0;"/><polygon fill="#F3EEFF" points="979.5,611.3457,991.5,623.3457,979.5,635.3457,967.5,623.3457,979.5,611.3457" style="stroke:#7C5CFC;stroke-width:0.5;"/><line style="stroke:#000000;stroke-width:1.5;" x1="766" x2="766" y1="48.627" y2="1372.9707"/><rect fill="#ECFDF5" height="1324.3438" style="stroke:#ECFDF5;stroke-width:1.0;" width="467" x="1274" y="48.627"/><rect fill="#FEF3E8" height="33.9688" rx="3" ry="3" style="stroke:#E8943A;stroke-width:0.5;" width="190" x="1425.25" y="655.3457"/><text fill="#333333" font-family="&quot;Segoe UI, Helvetica, Arial, sans-serif&quot;" font-size="12" lengthAdjust="spacing" textLength="170" x="1435.25" y="676.4844">deduplicate_ohlcv(records)</text><rect fill="#FEF3E8" height="33.9688" rx="3" ry="3" style="stroke:#E8943A;stroke-width:0.5;" width="204" x="1418.25" y="709.3145"/><text fill="#333333" font-family="&quot;Segoe UI, Helvetica, Arial, sans-serif&quot;" font-size="12" lengthAdjust="spacing" textLength="184" x="1428.25" y="730.4531">validate_ohlcv_relationships()</text><rect fill="#FEF3E8" height="33.9688" rx="3" ry="3" style="stroke:#E8943A;stroke-width:0.5;" width="146" x="1447.25" y="763.2832"/><text fill="#333333" font-family="&quot;Segoe UI, Helvetica, Arial, sans-serif&quot;" font-size="12" lengthAdjust="spacing" textLength="126" x="1457.25" y="784.4219">filter_valid_records()</text><polygon fill="#F3EEFF" points="1480.75,817.252,1559.75,817.252,1571.75,829.252,1559.75,841.252,1480.75,841.252,1468.75,829.252,1480.75,817.252" style="stroke:#7C5CFC;stroke-width:0.5;"/><text fill="#333333" font-family="&quot;Segoe UI, Helvetica, Arial, sans-serif&quot;" font-size="12" lengthAdjust="spacing" textLength="79" x="1480.75" y="833.4063">OHLCV data?</text><text fill="#333333" font-family="&quot;Segoe UI, Helvetica, Arial, sans-serif&quot;" font-size="12" lengthAdjust="spacing" textLength="21" x="1447.75" y="826.4219">yes</text><text fill="#333333" font-family="&quot;Segoe UI, Helvetica, Arial, sans-serif&quot;" font-size="12" lengthAdjust="spacing" textLength="71" x="1571.75" y="826.4219">news data?</text><rect fill="#FEF3E8" height="33.9688" rx="3" ry="3" style="stroke:#E8943A;stroke-width:0.5;" width="172" x="1315" y="851.252"/><text fill="#333333" font-family="&quot;Segoe UI, Helvetica, Arial, sans-serif&quot;" font-size="12" lengthAdjust="spacing" textLength="152" x="1325" y="872.3906">compute_rsi(period=14)</text><rect fill="#FEF3E8" height="33.9688" rx="3" ry="3" style="stroke:#E8943A;stroke-width:0.5;" width="242" x="1280" y="905.2207"/><text fill="#333333" font-family="&quot;Segoe UI, Helvetica, Arial, sans-serif&quot;" font-size="12" lengthAdjust="spacing" textLength="222" x="1290" y="926.3594">compute_bollinger_bands(20, 2std)</text><rect fill="#FEF3E8" height="33.9688" rx="3" ry="3" style="stroke:#E8943A;stroke-width:0.5;" width="201" x="1300.5" y="959.1895"/><text fill="#333333" font-family="&quot;Segoe UI, Helvetica, Arial, sans-serif&quot;" font-size="12" lengthAdjust="spacing" textLength="181" x="1310.5" y="980.3281">compute_price_vs_bollinger()</text><rect fill="#FEF3E8" height="33.9688" rx="3" ry="3" style="stroke:#E8943A;stroke-width:0.5;" width="204" x="1299" y="1013.1582"/><text fill="#333333" font-family="&quot;Segoe UI, Helvetica, Arial, sans-serif&quot;" font-size="12" lengthAdjust="spacing" textLength="184" x="1309" y="1034.2969">compute_trend(slope + type)</text><rect fill="#FEF3E8" height="33.9688" rx="3" ry="3" style="stroke:#E8943A;stroke-width:0.5;" width="138" x="1570.5" y="851.252"/><text fill="#333333" font-family="&quot;Segoe UI, Helvetica, Arial, sans-serif&quot;" font-size="12" lengthAdjust="spacing" textLength="118" x="1580.5" y="872.3906">extract_keywords()</text><rect fill="#FEF3E8" height="33.9688" rx="3" ry="3" style="stroke:#E8943A;stroke-width:0.5;" width="195" x="1542" y="905.2207"/><text fill="#333333" font-family="&quot;Segoe UI, Helvetica, Arial, sans-serif&quot;" font-size="12" lengthAdjust="spacing" textLength="175" x="1552" y="926.3594">compute_sentiment_score()</text><polygon fill="#F3EEFF" points="1520.25,1053.127,1532.25,1065.127,1520.25,1077.127,1508.25,1065.127,1520.25,1053.127" style="stroke:#7C5CFC;stroke-width:0.5;"/><line style="stroke:#000000;stroke-width:1.5;" x1="1274" x2="1274" y1="48.627" y2="1372.9707"/><rect fill="#FEF3E8" height="1324.3438" style="stroke:#FEF3E8;stroke-width:1.0;" width="522" x="1741" y="48.627"/><rect fill="#555555" height="6" rx="2.5" ry="2.5" style="stroke:#555555;stroke-width:1.0;" width="512" x="1747" y="1097.127"/><rect fill="#FEF3E8" height="47.9375" rx="3" ry="3" style="stroke:#E8943A;stroke-width:0.5;" width="146" x="1759" y="1123.127"/><text fill="#333333" font-family="&quot;Segoe UI, Helvetica, Arial, sans-serif&quot;" font-size="12" lengthAdjust="spacing" textLength="126" x="1769" y="1144.2656">insert_ohlcv_batch()</text><text fill="#333333" font-family="&quot;Segoe UI, Helvetica, Arial, sans-serif&quot;" font-size="12" lengthAdjust="spacing" textLength="79" x="1769" y="1158.2344">TimescaleDB</text><rect fill="#FEF3E8" height="47.9375" rx="3" ry="3" style="stroke:#E8943A;stroke-width:0.5;" width="176" x="1915" y="1123.127"/><text fill="#333333" font-family="&quot;Segoe UI, Helvetica, Arial, sans-serif&quot;" font-size="12" lengthAdjust="spacing" textLength="156" x="1925" y="1144.2656">insert_indicators_batch()</text><text fill="#333333" font-family="&quot;Segoe UI, Helvetica, Arial, sans-serif&quot;" font-size="12" lengthAdjust="spacing" textLength="79" x="1925" y="1158.2344">TimescaleDB</text><rect fill="#FEF3E8" height="47.9375" rx="3" ry="3" style="stroke:#E8943A;stroke-width:0.5;" width="146" x="2101" y="1123.127"/><text fill="#333333" font-family="&quot;Segoe UI, Helvetica, Arial, sans-serif&quot;" font-size="12" lengthAdjust="spacing" textLength="126" x="2111" y="1144.2656">insert_news_batch()</text><text fill="#333333" font-family="&quot;Segoe UI, Helvetica, Arial, sans-serif&quot;" font-size="12" lengthAdjust="spacing" textLength="79" x="2111" y="1158.2344">TimescaleDB</text><rect fill="#555555" height="6" rx="2.5" ry="2.5" style="stroke:#555555;stroke-width:1.0;" width="512" x="1747" y="1191.0645"/><line style="stroke:#000000;stroke-width:1.5;" x1="1741" x2="1741" y1="48.627" y2="1372.9707"/><rect fill="#F5F5F5" height="1324.3438" style="stroke:#F5F5F5;stroke-width:1.0;" width="807" x="2263" y="48.627"/><rect fill="#555555" height="6" rx="2.5" ry="2.5" style="stroke:#555555;stroke-width:1.0;" width="797" x="2269" y="1217.0645"/><rect fill="#FEF3E8" height="47.9375" rx="3" ry="3" style="stroke:#E8943A;stroke-width:0.5;" width="143" x="2281" y="1250.0488"/><text fill="#333333" font-family="&quot;Segoe UI, Helvetica, Arial, sans-serif&quot;" font-size="12" lengthAdjust="spacing" textLength="123" x="2291" y="1271.1875">compute_indicators</text><text fill="#333333" font-family="&quot;Segoe UI, Helvetica, Arial, sans-serif&quot;" font-size="12" font-weight="bold" lengthAdjust="spacing" textLength="80" x="2291" y="1285.1563">every 5 min</text><rect fill="#FEF3E8" height="47.9375" rx="3" ry="3" style="stroke:#E8943A;stroke-width:0.5;" width="122" x="2434" y="1250.0488"/><text fill="#333333" font-family="&quot;Segoe UI, Helvetica, Arial, sans-serif&quot;" font-size="12" lengthAdjust="spacing" textLength="102" x="2444" y="1271.1875">enrich_news_nlp</text><text fill="#333333" font-family="&quot;Segoe UI, Helvetica, Arial, sans-serif&quot;" font-size="12" font-weight="bold" lengthAdjust="spacing" textLength="88" x="2444" y="1285.1563">every 20 min</text><rect fill="#FEF3E8" height="61.9063" rx="3" ry="3" style="stroke:#E8943A;stroke-width:0.5;" width="157" x="2566" y="1243.0645"/><text fill="#333333" font-family="&quot;Segoe UI, Helvetica, Arial, sans-serif&quot;" font-size="12" lengthAdjust="spacing" textLength="84" x="2576" y="1264.2031">reconciliation</text><text fill="#333333" font-family="&quot;Segoe UI, Helvetica, Arial, sans-serif&quot;" font-size="12" font-weight="bold" lengthAdjust="spacing" textLength="88" x="2576" y="1278.1719">every 1 hour</text><text fill="#333333" font-family="&quot;Segoe UI, Helvetica, Arial, sans-serif&quot;" font-size="12" lengthAdjust="spacing" textLength="137" x="2576" y="1292.1406">detect &amp; backfill gaps</text><rect fill="#FEF3E8" height="61.9063" rx="3" ry="3" style="stroke:#E8943A;stroke-width:0.5;" width="185" x="2733" y="1243.0645"/><text fill="#333333" font-family="&quot;Segoe UI, Helvetica, Arial, sans-serif&quot;" font-size="12" lengthAdjust="spacing" textLength="165" x="2743" y="1264.2031">evaluate_signal_outcomes</text><text fill="#333333" font-family="&quot;Segoe UI, Helvetica, Arial, sans-serif&quot;" font-size="12" font-weight="bold" lengthAdjust="spacing" textLength="88" x="2743" y="1278.1719">every 1 hour</text><text fill="#333333" font-family="&quot;Segoe UI, Helvetica, Arial, sans-serif&quot;" font-size="12" lengthAdjust="spacing" textLength="101" x="2743" y="1292.1406">P&amp;L at 1h/4h/1d</text><rect fill="#FEF3E8" height="61.9063" rx="3" ry="3" style="stroke:#E8943A;stroke-width:0.5;" width="126" x="2928" y="1243.0645"/><text fill="#333333" font-family="&quot;Segoe UI, Helvetica, Arial, sans-serif&quot;" font-size="12" lengthAdjust="spacing" textLength="102" x="2938" y="1264.2031">export_datasets</text><text fill="#333333" font-family="&quot;Segoe UI, Helvetica, Arial, sans-serif&quot;" font-size="12" font-weight="bold" lengthAdjust="spacing" textLength="106" x="2938" y="1278.1719">daily 03:00 UTC</text><text fill="#333333" font-family="&quot;Segoe UI, Helvetica, Arial, sans-serif&quot;" font-size="12" lengthAdjust="spacing" textLength="104" x="2938" y="1292.1406">Parquet to MinIO</text><rect fill="#555555" height="6" rx="2.5" ry="2.5" style="stroke:#555555;stroke-width:1.0;" width="797" x="2269" y="1324.9707"/><ellipse cx="2667.5" cy="1361.9707" rx="11" ry="11" style="stroke:#222222;stroke-width:1.0;fill:none;"/><ellipse cx="2667.5" cy="1361.9707" fill="#222222" rx="6" ry="6" style="stroke:#111111;stroke-width:1.0;"/><line style="stroke:#000000;stroke-width:1.5;" x1="2263" x2="2263" y1="48.627" y2="1372.9707"/><line style="stroke:#000000;stroke-width:1.5;" x1="3070" x2="3070" y1="48.627" y2="1372.9707"/><line style="stroke:#4A6FA5;stroke-width:1.0;" x1="107" x2="107" y1="113.5957" y2="133.5957"/><polygon fill="#4A6FA5" points="103,123.5957,107,133.5957,111,123.5957,107,127.5957" style="stroke:#4A6FA5;stroke-width:1.0;"/><line style="stroke:#4A6FA5;stroke-width:1.0;" x1="261" x2="261" y1="113.5957" y2="133.5957"/><polygon fill="#4A6FA5" points="257,123.5957,261,133.5957,265,123.5957,261,127.5957" style="stroke:#4A6FA5;stroke-width:1.0;"/><line style="stroke:#4A6FA5;stroke-width:1.0;" x1="414" x2="414" y1="113.5957" y2="133.5957"/><polygon fill="#4A6FA5" points="410,123.5957,414,133.5957,418,123.5957,414,127.5957" style="stroke:#4A6FA5;stroke-width:1.0;"/><line style="stroke:#4A6FA5;stroke-width:1.0;" x1="551" x2="551" y1="113.5957" y2="133.5957"/><polygon fill="#4A6FA5" points="547,123.5957,551,133.5957,555,123.5957,551,127.5957" style="stroke:#4A6FA5;stroke-width:1.0;"/><line style="stroke:#4A6FA5;stroke-width:1.0;" x1="682.5" x2="682.5" y1="113.5957" y2="133.5957"/><polygon fill="#4A6FA5" points="678.5,123.5957,682.5,133.5957,686.5,123.5957,682.5,127.5957" style="stroke:#4A6FA5;stroke-width:1.0;"/><line style="stroke:#4A6FA5;stroke-width:1.0;" x1="107" x2="107" y1="195.502" y2="215.502"/><polygon fill="#4A6FA5" points="103,205.502,107,215.502,111,205.502,107,209.502" style="stroke:#4A6FA5;stroke-width:1.0;"/><line style="stroke:#4A6FA5;stroke-width:1.0;" x1="261" x2="261" y1="195.502" y2="215.502"/><polygon fill="#4A6FA5" points="257,205.502,261,215.502,265,205.502,261,209.502" style="stroke:#4A6FA5;stroke-width:1.0;"/><line style="stroke:#4A6FA5;stroke-width:1.0;" x1="414" x2="414" y1="195.502" y2="215.502"/><polygon fill="#4A6FA5" points="410,205.502,414,215.502,418,205.502,414,209.502" style="stroke:#4A6FA5;stroke-width:1.0;"/><line style="stroke:#4A6FA5;stroke-width:1.0;" x1="551" x2="551" y1="195.502" y2="215.502"/><polygon fill="#4A6FA5" points="547,205.502,551,215.502,555,205.502,551,209.502" style="stroke:#4A6FA5;stroke-width:1.0;"/><line style="stroke:#4A6FA5;stroke-width:1.0;" x1="682.5" x2="682.5" y1="195.502" y2="215.502"/><polygon fill="#4A6FA5" points="678.5,205.502,682.5,215.502,686.5,205.502,682.5,209.502" style="stroke:#4A6FA5;stroke-width:1.0;"/><line style="stroke:#4A6FA5;stroke-width:1.0;" x1="391.5" x2="391.5" y1="87.5957" y2="107.5957"/><polygon fill="#4A6FA5" points="387.5,97.5957,391.5,107.5957,395.5,97.5957,391.5,101.5957" style="stroke:#4A6FA5;stroke-width:1.0;"/><line style="stroke:#4A6FA5;stroke-width:1.0;" x1="979.5" x2="979.5" y1="275.4707" y2="295.4707"/><polygon fill="#4A6FA5" points="975.5,285.4707,979.5,295.4707,983.5,285.4707,979.5,289.4707" style="stroke:#4A6FA5;stroke-width:1.0;"/><line style="stroke:#4A6FA5;stroke-width:1.0;" x1="1030" x2="1030" y1="505.377" y2="525.377"/><polygon fill="#4A6FA5" points="1026,515.377,1030,525.377,1034,515.377,1030,519.377" style="stroke:#4A6FA5;stroke-width:1.0;"/><line style="stroke:#4A6FA5;stroke-width:1.0;" x1="1204" x2="1204" y1="505.377" y2="525.377"/><polygon fill="#4A6FA5" points="1200,515.377,1204,525.377,1208,515.377,1204,519.377" style="stroke:#4A6FA5;stroke-width:1.0;"/><line style="stroke:#4A6FA5;stroke-width:1.0;" x1="1204" x2="1204" y1="559.3457" y2="579.3457"/><polygon fill="#4A6FA5" points="1200,569.3457,1204,579.3457,1208,569.3457,1204,573.3457" style="stroke:#4A6FA5;stroke-width:1.0;"/><line style="stroke:#4A6FA5;stroke-width:1.0;" x1="1060.5" x2="1030" y1="449.4082" y2="449.4082"/><line style="stroke:#4A6FA5;stroke-width:1.0;" x1="1030" x2="1030" y1="449.4082" y2="471.4082"/><polygon fill="#4A6FA5" points="1026,461.4082,1030,471.4082,1034,461.4082,1030,465.4082" style="stroke:#4A6FA5;stroke-width:1.0;"/><line style="stroke:#4A6FA5;stroke-width:1.0;" x1="1173.5" x2="1204" y1="449.4082" y2="449.4082"/><line style="stroke:#4A6FA5;stroke-width:1.0;" x1="1204" x2="1204" y1="449.4082" y2="471.4082"/><polygon fill="#4A6FA5" points="1200,461.4082,1204,471.4082,1208,461.4082,1204,465.4082" style="stroke:#4A6FA5;stroke-width:1.0;"/><line style="stroke:#4A6FA5;stroke-width:1.0;" x1="1030" x2="1030" y1="559.3457" y2="623.3457"/><line style="stroke:#4A6FA5;stroke-width:1.0;" x1="1030" x2="991.5" y1="623.3457" y2="623.3457"/><polygon fill="#4A6FA5" points="1001.5,619.3457,991.5,623.3457,1001.5,627.3457,997.5,623.3457" style="stroke:#4A6FA5;stroke-width:1.0;"/><line style="stroke:#4A6FA5;stroke-width:1.0;" x1="1117" x2="1117" y1="417.4082" y2="437.4082"/><polygon fill="#4A6FA5" points="1113,427.4082,1117,437.4082,1121,427.4082,1117,431.4082" style="stroke:#4A6FA5;stroke-width:1.0;"/><line style="stroke:#4A6FA5;stroke-width:1.0;" x1="938.5" x2="842" y1="361.4395" y2="361.4395"/><line style="stroke:#4A6FA5;stroke-width:1.0;" x1="842" x2="842" y1="361.4395" y2="383.4395"/><polygon fill="#4A6FA5" points="838,373.4395,842,383.4395,846,373.4395,842,377.4395" style="stroke:#4A6FA5;stroke-width:1.0;"/><line style="stroke:#4A6FA5;stroke-width:1.0;" x1="1020.5" x2="1117" y1="361.4395" y2="361.4395"/><line style="stroke:#4A6FA5;stroke-width:1.0;" x1="1117" x2="1117" y1="361.4395" y2="383.4395"/><polygon fill="#4A6FA5" points="1113,373.4395,1117,383.4395,1121,373.4395,1117,377.4395" style="stroke:#4A6FA5;stroke-width:1.0;"/><line style="stroke:#4A6FA5;stroke-width:1.0;" x1="842" x2="842" y1="417.4082" y2="623.3457"/><line style="stroke:#4A6FA5;stroke-width:1.0;" x1="842" x2="967.5" y1="623.3457" y2="623.3457"/><polygon fill="#4A6FA5" points="957.5,619.3457,967.5,623.3457,957.5,627.3457,961.5,623.3457" style="stroke:#4A6FA5;stroke-width:1.0;"/><line style="stroke:#4A6FA5;stroke-width:1.0;" x1="979.5" x2="979.5" y1="329.4395" y2="349.4395"/><polygon fill="#4A6FA5" points="975.5,339.4395,979.5,349.4395,983.5,339.4395,979.5,343.4395" style="stroke:#4A6FA5;stroke-width:1.0;"/><line style="stroke:#4A6FA5;stroke-width:1.0;" x1="1520.25" x2="1520.25" y1="689.3145" y2="709.3145"/><polygon fill="#4A6FA5" points="1516.25,699.3145,1520.25,709.3145,1524.25,699.3145,1520.25,703.3145" style="stroke:#4A6FA5;stroke-width:1.0;"/><line style="stroke:#4A6FA5;stroke-width:1.0;" x1="1520.25" x2="1520.25" y1="743.2832" y2="763.2832"/><polygon fill="#4A6FA5" points="1516.25,753.2832,1520.25,763.2832,1524.25,753.2832,1520.25,757.2832" style="stroke:#4A6FA5;stroke-width:1.0;"/><line style="stroke:#4A6FA5;stroke-width:1.0;" x1="1401" x2="1401" y1="885.2207" y2="905.2207"/><polygon fill="#4A6FA5" points="1397,895.2207,1401,905.2207,1405,895.2207,1401,899.2207" style="stroke:#4A6FA5;stroke-width:1.0;"/><line style="stroke:#4A6FA5;stroke-width:1.0;" x1="1401" x2="1401" y1="939.1895" y2="959.1895"/><polygon fill="#4A6FA5" points="1397,949.1895,1401,959.1895,1405,949.1895,1401,953.1895" style="stroke:#4A6FA5;stroke-width:1.0;"/><line style="stroke:#4A6FA5;stroke-width:1.0;" x1="1401" x2="1401" y1="993.1582" y2="1013.1582"/><polygon fill="#4A6FA5" points="1397,1003.1582,1401,1013.1582,1405,1003.1582,1401,1007.1582" style="stroke:#4A6FA5;stroke-width:1.0;"/><line style="stroke:#4A6FA5;stroke-width:1.0;" x1="1639.5" x2="1639.5" y1="885.2207" y2="905.2207"/><polygon fill="#4A6FA5" points="1635.5,895.2207,1639.5,905.2207,1643.5,895.2207,1639.5,899.2207" style="stroke:#4A6FA5;stroke-width:1.0;"/><line style="stroke:#4A6FA5;stroke-width:1.0;" x1="1468.75" x2="1401" y1="829.252" y2="829.252"/><line style="stroke:#4A6FA5;stroke-width:1.0;" x1="1401" x2="1401" y1="829.252" y2="851.252"/><polygon fill="#4A6FA5" points="1397,841.252,1401,851.252,1405,841.252,1401,845.252" style="stroke:#4A6FA5;stroke-width:1.0;"/><line style="stroke:#4A6FA5;stroke-width:1.0;" x1="1571.75" x2="1639.5" y1="829.252" y2="829.252"/><line style="stroke:#4A6FA5;stroke-width:1.0;" x1="1639.5" x2="1639.5" y1="829.252" y2="851.252"/><polygon fill="#4A6FA5" points="1635.5,841.252,1639.5,851.252,1643.5,841.252,1639.5,845.252" style="stroke:#4A6FA5;stroke-width:1.0;"/><line style="stroke:#4A6FA5;stroke-width:1.0;" x1="1401" x2="1401" y1="1047.127" y2="1065.127"/><line style="stroke:#4A6FA5;stroke-width:1.0;" x1="1401" x2="1508.25" y1="1065.127" y2="1065.127"/><polygon fill="#4A6FA5" points="1498.25,1061.127,1508.25,1065.127,1498.25,1069.127,1502.25,1065.127" style="stroke:#4A6FA5;stroke-width:1.0;"/><line style="stroke:#4A6FA5;stroke-width:1.0;" x1="1639.5" x2="1639.5" y1="939.1895" y2="1065.127"/><line style="stroke:#4A6FA5;stroke-width:1.0;" x1="1639.5" x2="1532.25" y1="1065.127" y2="1065.127"/><polygon fill="#4A6FA5" points="1542.25,1061.127,1532.25,1065.127,1542.25,1069.127,1538.25,1065.127" style="stroke:#4A6FA5;stroke-width:1.0;"/><line style="stroke:#4A6FA5;stroke-width:1.0;" x1="1520.25" x2="1520.25" y1="797.252" y2="817.252"/><polygon fill="#4A6FA5" points="1516.25,807.252,1520.25,817.252,1524.25,807.252,1520.25,811.252" style="stroke:#4A6FA5;stroke-width:1.0;"/><line style="stroke:#4A6FA5;stroke-width:1.0;" x1="1832" x2="1832" y1="1103.127" y2="1123.127"/><polygon fill="#4A6FA5" points="1828,1113.127,1832,1123.127,1836,1113.127,1832,1117.127" style="stroke:#4A6FA5;stroke-width:1.0;"/><line style="stroke:#4A6FA5;stroke-width:1.0;" x1="2003" x2="2003" y1="1103.127" y2="1123.127"/><polygon fill="#4A6FA5" points="1999,1113.127,2003,1123.127,2007,1113.127,2003,1117.127" style="stroke:#4A6FA5;stroke-width:1.0;"/><line style="stroke:#4A6FA5;stroke-width:1.0;" x1="2174" x2="2174" y1="1103.127" y2="1123.127"/><polygon fill="#4A6FA5" points="2170,1113.127,2174,1123.127,2178,1113.127,2174,1117.127" style="stroke:#4A6FA5;stroke-width:1.0;"/><line style="stroke:#4A6FA5;stroke-width:1.0;" x1="1832" x2="1832" y1="1171.0645" y2="1191.0645"/><polygon fill="#4A6FA5" points="1828,1181.0645,1832,1191.0645,1836,1181.0645,1832,1185.0645" style="stroke:#4A6FA5;stroke-width:1.0;"/><line style="stroke:#4A6FA5;stroke-width:1.0;" x1="2003" x2="2003" y1="1171.0645" y2="1191.0645"/><polygon fill="#4A6FA5" points="1999,1181.0645,2003,1191.0645,2007,1181.0645,2003,1185.0645" style="stroke:#4A6FA5;stroke-width:1.0;"/><line style="stroke:#4A6FA5;stroke-width:1.0;" x1="2174" x2="2174" y1="1171.0645" y2="1191.0645"/><polygon fill="#4A6FA5" points="2170,1181.0645,2174,1191.0645,2178,1181.0645,2174,1185.0645" style="stroke:#4A6FA5;stroke-width:1.0;"/><line style="stroke:#4A6FA5;stroke-width:1.0;" x1="2352.5" x2="2352.5" y1="1223.0645" y2="1250.0488"/><polygon fill="#4A6FA5" points="2348.5,1240.0488,2352.5,1250.0488,2356.5,1240.0488,2352.5,1244.0488" style="stroke:#4A6FA5;stroke-width:1.0;"/><line style="stroke:#4A6FA5;stroke-width:1.0;" x1="2495" x2="2495" y1="1223.0645" y2="1250.0488"/><polygon fill="#4A6FA5" points="2491,1240.0488,2495,1250.0488,2499,1240.0488,2495,1244.0488" style="stroke:#4A6FA5;stroke-width:1.0;"/><line style="stroke:#4A6FA5;stroke-width:1.0;" x1="2644.5" x2="2644.5" y1="1223.0645" y2="1243.0645"/><polygon fill="#4A6FA5" points="2640.5,1233.0645,2644.5,1243.0645,2648.5,1233.0645,2644.5,1237.0645" style="stroke:#4A6FA5;stroke-width:1.0;"/><line style="stroke:#4A6FA5;stroke-width:1.0;" x1="2825.5" x2="2825.5" y1="1223.0645" y2="1243.0645"/><polygon fill="#4A6FA5" points="2821.5,1233.0645,2825.5,1243.0645,2829.5,1233.0645,2825.5,1237.0645" style="stroke:#4A6FA5;stroke-width:1.0;"/><line style="stroke:#4A6FA5;stroke-width:1.0;" x1="2991" x2="2991" y1="1223.0645" y2="1243.0645"/><polygon fill="#4A6FA5" points="2987,1233.0645,2991,1243.0645,2995,1233.0645,2991,1237.0645" style="stroke:#4A6FA5;stroke-width:1.0;"/><line style="stroke:#4A6FA5;stroke-width:1.0;" x1="2352.5" x2="2352.5" y1="1297.9863" y2="1324.9707"/><polygon fill="#4A6FA5" points="2348.5,1314.9707,2352.5,1324.9707,2356.5,1314.9707,2352.5,1318.9707" style="stroke:#4A6FA5;stroke-width:1.0;"/><line style="stroke:#4A6FA5;stroke-width:1.0;" x1="2495" x2="2495" y1="1297.9863" y2="1324.9707"/><polygon fill="#4A6FA5" points="2491,1314.9707,2495,1324.9707,2499,1314.9707,2495,1318.9707" style="stroke:#4A6FA5;stroke-width:1.0;"/><line style="stroke:#4A6FA5;stroke-width:1.0;" x1="2644.5" x2="2644.5" y1="1304.9707" y2="1324.9707"/><polygon fill="#4A6FA5" points="2640.5,1314.9707,2644.5,1324.9707,2648.5,1314.9707,2644.5,1318.9707" style="stroke:#4A6FA5;stroke-width:1.0;"/><line style="stroke:#4A6FA5;stroke-width:1.0;" x1="2825.5" x2="2825.5" y1="1304.9707" y2="1324.9707"/><polygon fill="#4A6FA5" points="2821.5,1314.9707,2825.5,1324.9707,2829.5,1314.9707,2825.5,1318.9707" style="stroke:#4A6FA5;stroke-width:1.0;"/><line style="stroke:#4A6FA5;stroke-width:1.0;" x1="2991" x2="2991" y1="1304.9707" y2="1324.9707"/><polygon fill="#4A6FA5" points="2987,1314.9707,2991,1324.9707,2995,1314.9707,2991,1318.9707" style="stroke:#4A6FA5;stroke-width:1.0;"/><line style="stroke:#4A6FA5;stroke-width:1.0;" x1="2667.5" x2="2667.5" y1="1330.9707" y2="1350.9707"/><polygon fill="#4A6FA5" points="2663.5,1340.9707,2667.5,1350.9707,2671.5,1340.9707,2667.5,1344.9707" style="stroke:#4A6FA5;stroke-width:1.0;"/><line style="stroke:#4A6FA5;stroke-width:1.0;" x1="391.5" x2="391.5" y1="221.502" y2="226.502"/><line style="stroke:#4A6FA5;stroke-width:1.0;" x1="391.5" x2="979.5" y1="226.502" y2="226.502"/><line style="stroke:#4A6FA5;stroke-width:1.0;" x1="979.5" x2="979.5" y1="226.502" y2="241.502"/><polygon fill="#4A6FA5" points="975.5,231.502,979.5,241.502,983.5,231.502,979.5,235.502" style="stroke:#4A6FA5;stroke-width:1.0;"/><line style="stroke:#4A6FA5;stroke-width:1.0;" x1="979.5" x2="979.5" y1="635.3457" y2="640.3457"/><line style="stroke:#4A6FA5;stroke-width:1.0;" x1="979.5" x2="1520.25" y1="640.3457" y2="640.3457"/><line style="stroke:#4A6FA5;stroke-width:1.0;" x1="1520.25" x2="1520.25" y1="640.3457" y2="655.3457"/><polygon fill="#4A6FA5" points="1516.25,645.3457,1520.25,655.3457,1524.25,645.3457,1520.25,649.3457" style="stroke:#4A6FA5;stroke-width:1.0;"/><line style="stroke:#4A6FA5;stroke-width:1.0;" x1="1520.25" x2="1520.25" y1="1077.127" y2="1082.127"/><line style="stroke:#4A6FA5;stroke-width:1.0;" x1="1520.25" x2="2003" y1="1082.127" y2="1082.127"/><line style="stroke:#4A6FA5;stroke-width:1.0;" x1="2003" x2="2003" y1="1082.127" y2="1097.127"/><polygon fill="#4A6FA5" points="1999,1087.127,2003,1097.127,2007,1087.127,2003,1091.127" style="stroke:#4A6FA5;stroke-width:1.0;"/><line style="stroke:#4A6FA5;stroke-width:1.0;" x1="2003" x2="2003" y1="1197.0645" y2="1202.0645"/><line style="stroke:#4A6FA5;stroke-width:1.0;" x1="2003" x2="2667.5" y1="1202.0645" y2="1202.0645"/><line style="stroke:#4A6FA5;stroke-width:1.0;" x1="2667.5" x2="2667.5" y1="1202.0645" y2="1217.0645"/><polygon fill="#4A6FA5" points="2663.5,1207.0645,2667.5,1217.0645,2671.5,1207.0645,2667.5,1211.0645" style="stroke:#4A6FA5;stroke-width:1.0;"/><text fill="#333333" font-family="&quot;Segoe UI, Helvetica, Arial, sans-serif&quot;" font-size="12" lengthAdjust="spacing" textLength="63" x="359" y="59.7656">Scheduler</text><text fill="#333333" font-family="&quot;Segoe UI, Helvetica, Arial, sans-serif&quot;" font-size="12" lengthAdjust="spacing" textLength="61" x="989.5" y="59.7656">Collection</text><text fill="#333333" font-family="&quot;Segoe UI, Helvetica, Arial, sans-serif&quot;" font-size="12" lengthAdjust="spacing" textLength="63" x="1476" y="59.7656">Transform</text><text fill="#333333" font-family="&quot;Segoe UI, Helvetica, Arial, sans-serif&quot;" font-size="12" lengthAdjust="spacing" textLength="30" x="1987" y="59.7656">Load</text><text fill="#333333" font-family="&quot;Segoe UI, Helvetica, Arial, sans-serif&quot;" font-size="12" lengthAdjust="spacing" textLength="80" x="2626.5" y="59.7656">Periodic Jobs</text><rect fill="#FFFFFF" height="16.2969" rx="3" ry="3" style="stroke:#00000000;stroke-width:1.0;" width="420" x="1333" y="1373.9707"/><text fill="#333333" font-family="&quot;Segoe UI, Helvetica, Arial, sans-serif&quot;" font-size="14" lengthAdjust="spacing" textLength="420" x="1333" y="1386.9658">10 jobs APScheduler | retry max_attempts=5 | semaphore(5)</text><!--MD5=[41bfadcf51e3b366b35d35c8ba5cf1f2]
@startuml AC01-etl-pipeline
!include _common.puml

title CryptoBot — Pipeline ETL Complet
caption 10 jobs APScheduler | retry max_attempts=5 | semaphore(5)

|#FEF3E8| Scheduler |
start
fork
  :collect_ohlcv_priority\n**every 1 min**\n13 priority symbols;
fork again
  :collect_ohlcv_all\n**every 5 min**\nall tracked symbols;
fork again
  :collect_market_data\n**every 5 min**\nCoinGecko markets;
fork again
  :collect_news\n**every 15 min**\nRSS feeds;
fork again
  :collect_fear_greed\n**every 1 hour**\nAlternative.me;
end fork

|#F3EEFF| Collection |
:Acquire semaphore (max 5 concurrent);
:Call collector.fetch_*();

if (Success?) then (yes)
  :Return raw records;
else (no)
  :Retry with exponential backoff;
  if (attempts < 5?) then (yes)
    :Wait 2^attempt seconds;
    :Retry fetch;
  else (no)
    :Log CollectorError;
    :Skip this cycle;
    stop
  endif
endif

|#ECFDF5| Transform |
:deduplicate_ohlcv(records);
:validate_ohlcv_relationships();
:filter_valid_records();

if (OHLCV data?) then (yes)
  :compute_rsi(period=14);
  :compute_bollinger_bands(20, 2std);
  :compute_price_vs_bollinger();
  :compute_trend(slope + type);
else (news data?)
  :extract_keywords();
  :compute_sentiment_score();
endif

|#FEF3E8| Load |
fork
  :insert_ohlcv_batch()\nTimescaleDB;
fork again
  :insert_indicators_batch()\nTimescaleDB;
fork again
  :insert_news_batch()\nTimescaleDB;
end fork

|#F5F5F5| Periodic Jobs |
fork
  :compute_indicators\n**every 5 min**;
fork again
  :enrich_news_nlp\n**every 20 min**;
fork again
  :reconciliation\n**every 1 hour**\ndetect & backfill gaps;
fork again
  :evaluate_signal_outcomes\n**every 1 hour**\nP&L at 1h/4h/1d;
fork again
  :export_datasets\n**daily 03:00 UTC**\nParquet to MinIO;
end fork

stop

@enduml

@startuml AC01-etl-pipeline

skinparam backgroundColor white
skinparam defaultFontName "Segoe UI, Helvetica, Arial, sans-serif"
skinparam defaultFontSize 12
skinparam defaultFontColor #333333
skinparam shadowing false
skinparam roundCorner 6


skinparam component {
  BackgroundColor #F3EEFF
  BorderColor #7C5CFC
  FontColor #333333
  ArrowColor #4A6FA5
  StereotypeFontColor #7C5CFC
}

skinparam package {
  BackgroundColor #F5F5F5
  BorderColor #4A6FA5
  FontColor #333333
}

skinparam class {
  BackgroundColor #ECFDF5
  BorderColor #34A853
  FontColor #333333
  HeaderBackgroundColor #34A853
  HeaderFontColor white
  ArrowColor #4A6FA5
  StereotypeFontColor #7C5CFC
  AttributeFontColor #555555
}

skinparam sequence {
  ArrowColor #4A6FA5
  ActorBorderColor #7C5CFC
  LifeLineBorderColor #CCCCCC
  LifeLineBackgroundColor #F5F5F5
  ParticipantBorderColor #4A6FA5
  ParticipantBackgroundColor #F3EEFF
  ParticipantFontColor #333333
  BoxBorderColor #CCCCCC
  BoxBackgroundColor #F5F5F5
  DividerBackgroundColor #4A6FA5
  DividerFontColor white
}

skinparam activity {
  BackgroundColor #FEF3E8
  BorderColor #E8943A
  FontColor #333333
  ArrowColor #4A6FA5
  DiamondBackgroundColor #F3EEFF
  DiamondBorderColor #7C5CFC
}

skinparam node {
  BackgroundColor #F3EEFF
  BorderColor #7C5CFC
  FontColor #333333
}

skinparam database {
  BackgroundColor #ECFDF5
  BorderColor #34A853
  FontColor #333333
}

skinparam entity {
  BackgroundColor white
  BorderColor #4A6FA5
  FontColor #333333
  HeaderBackgroundColor #4A6FA5
  HeaderFontColor white
}

skinparam state {
  BackgroundColor #FEF3E8
  BorderColor #E8943A
  FontColor #333333
  ArrowColor #4A6FA5
}

skinparam usecase {
  BackgroundColor #F3EEFF
  BorderColor #7C5CFC
  FontColor #333333
  ArrowColor #4A6FA5
  ActorBorderColor #E8943A
}

skinparam note {
  BackgroundColor #FEF3E8
  BorderColor #E8943A
  FontColor #333333
}

skinparam legend {
  BackgroundColor #F5F5F5
  BorderColor #CCCCCC
  FontColor #333333
}



title CryptoBot — Pipeline ETL Complet
caption 10 jobs APScheduler | retry max_attempts=5 | semaphore(5)

|#FEF3E8| Scheduler |
start
fork
  :collect_ohlcv_priority\n**every 1 min**\n13 priority symbols;
fork again
  :collect_ohlcv_all\n**every 5 min**\nall tracked symbols;
fork again
  :collect_market_data\n**every 5 min**\nCoinGecko markets;
fork again
  :collect_news\n**every 15 min**\nRSS feeds;
fork again
  :collect_fear_greed\n**every 1 hour**\nAlternative.me;
end fork

|#F3EEFF| Collection |
:Acquire semaphore (max 5 concurrent);
:Call collector.fetch_*();

if (Success?) then (yes)
  :Return raw records;
else (no)
  :Retry with exponential backoff;
  if (attempts < 5?) then (yes)
    :Wait 2^attempt seconds;
    :Retry fetch;
  else (no)
    :Log CollectorError;
    :Skip this cycle;
    stop
  endif
endif

|#ECFDF5| Transform |
:deduplicate_ohlcv(records);
:validate_ohlcv_relationships();
:filter_valid_records();

if (OHLCV data?) then (yes)
  :compute_rsi(period=14);
  :compute_bollinger_bands(20, 2std);
  :compute_price_vs_bollinger();
  :compute_trend(slope + type);
else (news data?)
  :extract_keywords();
  :compute_sentiment_score();
endif

|#FEF3E8| Load |
fork
  :insert_ohlcv_batch()\nTimescaleDB;
fork again
  :insert_indicators_batch()\nTimescaleDB;
fork again
  :insert_news_batch()\nTimescaleDB;
end fork

|#F5F5F5| Periodic Jobs |
fork
  :compute_indicators\n**every 5 min**;
fork again
  :enrich_news_nlp\n**every 20 min**;
fork again
  :reconciliation\n**every 1 hour**\ndetect & backfill gaps;
fork again
  :evaluate_signal_outcomes\n**every 1 hour**\nP&L at 1h/4h/1d;
fork again
  :export_datasets\n**daily 03:00 UTC**\nParquet to MinIO;
end fork

stop

@enduml

PlantUML version 1.2022.6(Tue Jun 21 19:34:49 CEST 2022)
(GPL source distribution)
Java Runtime: OpenJDK Runtime Environment
JVM: OpenJDK 64-Bit Server VM
Default Encoding: UTF-8
Language: en
Country: US
--></g></svg>