<?xml version="1.0" encoding="UTF-8" standalone="no"?><svg xmlns="http://www.w3.org/2000/svg" xmlns:xlink="http://www.w3.org/1999/xlink" contentStyleType="text/css" height="1083px" preserveAspectRatio="none" style="width:2043px;height:1083px;background:#FFFFFF;" version="1.1" viewBox="0 0 2043 1083" width="2043px" zoomAndPan="magnify"><defs/><g><rect fill="#FFFFFF" height="26.2969" rx="3" ry="3" style="stroke:#00000000;stroke-width:1.0;" width="258" x="885.5" y="5"/><text fill="#333333" font-family="&quot;Segoe UI, Helvetica, Arial, sans-serif&quot;" font-size="14" font-weight="bold" lengthAdjust="spacing" textLength="248" x="890.5" y="22.9951">CryptoBot — Sous-systeme ETL</text><!--MD5=[929aded357b738a78109b8a261dfffad]
cluster coll--><g id="cluster_coll"><path d="M9,196.2969 L80,196.2969 A4.5,4.5 0 0 1 83,199.2969 L90,216.2656 L1191,216.2656 A3,3 0 0 1 1194,219.2656 L1194,327.2969 A3,3 0 0 1 1191,330.2969 L9,330.2969 A3,3 0 0 1 6,327.2969 L6,199.2969 A3,3 0 0 1 9,196.2969 " fill="#FEF3E8" style="stroke:#4A6FA5;stroke-width:1.5;"/><line style="stroke:#4A6FA5;stroke-width:1.5;" x1="6" x2="90" y1="216.2656" y2="216.2656"/><text fill="#333333" font-family="&quot;Segoe UI, Helvetica, Arial, sans-serif&quot;" font-size="12" font-weight="bold" lengthAdjust="spacing" textLength="71" x="10" y="209.4355">Collectors</text></g><!--MD5=[3847f505757b2feb29b810b95edc0e77]
cluster trans--><g id="cluster_trans"><path d="M738,377.2969 L833,377.2969 A4.5,4.5 0 0 1 836,380.2969 L843,397.2656 L1026,397.2656 A3,3 0 0 1 1029,400.2656 L1029,725.2969 A3,3 0 0 1 1026,728.2969 L738,728.2969 A3,3 0 0 1 735,725.2969 L735,380.2969 A3,3 0 0 1 738,377.2969 " fill="#F3EEFF" style="stroke:#4A6FA5;stroke-width:1.5;"/><line style="stroke:#4A6FA5;stroke-width:1.5;" x1="735" x2="843" y1="397.2656" y2="397.2656"/><text fill="#333333" font-family="&quot;Segoe UI, Helvetica, Arial, sans-serif&quot;" font-size="12" font-weight="bold" lengthAdjust="spacing" textLength="95" x="739" y="390.4355">Transformers</text></g><!--MD5=[5e5bbfb311fe3c8084c96f0d8b4f6912]
cluster load--><g id="cluster_load"><path d="M1131,775.2969 L1189,775.2969 A4.5,4.5 0 0 1 1192,778.2969 L1199,795.2656 L1608,795.2656 A3,3 0 0 1 1611,798.2656 L1611,948.2969 A3,3 0 0 1 1608,951.2969 L1131,951.2969 A3,3 0 0 1 1128,948.2969 L1128,778.2969 A3,3 0 0 1 1131,775.2969 " fill="#ECFDF5" style="stroke:#4A6FA5;stroke-width:1.5;"/><line style="stroke:#4A6FA5;stroke-width:1.5;" x1="1128" x2="1199" y1="795.2656" y2="795.2656"/><text fill="#333333" font-family="&quot;Segoe UI, Helvetica, Arial, sans-serif&quot;" font-size="12" font-weight="bold" lengthAdjust="spacing" textLength="58" x="1132" y="788.4355">Loaders</text></g><!--MD5=[af9e426326ae8abe0e76db4316a8762f]
cluster sched--><g id="cluster_sched"><path d="M35,43.2969 L188,43.2969 A4.5,4.5 0 0 1 191,46.2969 L198,63.2656 L2033,63.2656 A3,3 0 0 1 2036,66.2656 L2036,160.2969 A3,3 0 0 1 2033,163.2969 L35,163.2969 A3,3 0 0 1 32,160.2969 L32,46.2969 A3,3 0 0 1 35,43.2969 " fill="#F5F5F5" style="stroke:#4A6FA5;stroke-width:1.5;"/><line style="stroke:#4A6FA5;stroke-width:1.5;" x1="32" x2="198" y1="63.2656" y2="63.2656"/><text fill="#333333" font-family="&quot;Segoe UI, Helvetica, Arial, sans-serif&quot;" font-size="12" font-weight="bold" lengthAdjust="spacing" textLength="153" x="36" y="56.4355">APScheduler (10 jobs)</text></g><!--MD5=[e380683512546a6677ea4ec86d90290f]
entity binance--><g id="elem_binance"><rect fill="#F3EEFF" height="85.875" rx="3" ry="3" style="stroke:#7C5CFC;stroke-width:0.5;" width="220" x="22" y="228.2969"/><rect fill="#F3EEFF" height="10" style="stroke:#7C5CFC;stroke-width:0.5;" width="15" x="222" y="233.2969"/><rect fill="#F3EEFF" height="2" style="stroke:#7C5CFC;stroke-width:0.5;" width="4" x="220" y="235.2969"/><rect fill="#F3EEFF" height="2" style="stroke:#7C5CFC;stroke-width:0.5;" width="4" x="220" y="239.2969"/><text fill="#7C5CFC" font-family="&quot;Segoe UI, Helvetica, Arial, sans-serif&quot;" font-size="12" font-style="italic" lengthAdjust="spacing" textLength="68" x="93" y="259.4355">«collector»</text><text fill="#333333" font-family="&quot;Segoe UI, Helvetica, Arial, sans-serif&quot;" font-size="12" lengthAdjust="spacing" textLength="105" x="37" y="273.4043">BinanceCollector</text><text fill="#333333" font-family="&quot;Segoe UI, Helvetica, Arial, sans-serif&quot;" font-size="12" lengthAdjust="spacing" textLength="119" x="37" y="287.373">REST + WebSocket</text><text fill="#333333" font-family="&quot;Segoe UI, Helvetica, Arial, sans-serif&quot;" font-size="12" lengthAdjust="spacing" textLength="180" x="37" y="301.3418">fetch_ohlcv(symbols, tf, limit)</text></g><!--MD5=[8f13d3a1898e66204cce81684be9fe50]
entity coingecko--><g id="elem_coingecko"><rect fill="#F3EEFF" height="85.875" rx="3" ry="3" style="stroke:#7C5CFC;stroke-width:0.5;" width="217" x="492.5" y="228.2969"/><rect fill="#F3EEFF" height="10" style="stroke:#7C5CFC;stroke-width:0.5;" width="15" x="689.5" y="233.2969"/><rect fill="#F3EEFF" height="2" style="stroke:#7C5CFC;stroke-width:0.5;" width="4" x="687.5" y="235.2969"/><rect fill="#F3EEFF" height="2" style="stroke:#7C5CFC;stroke-width:0.5;" width="4" x="687.5" y="239.2969"/><text fill="#7C5CFC" font-family="&quot;Segoe UI, Helvetica, Arial, sans-serif&quot;" font-size="12" font-style="italic" lengthAdjust="spacing" textLength="68" x="562" y="259.4355">«collector»</text><text fill="#333333" font-family="&quot;Segoe UI, Helvetica, Arial, sans-serif&quot;" font-size="12" lengthAdjust="spacing" textLength="121" x="507.5" y="273.4043">CoinGeckoCollector</text><text fill="#333333" font-family="&quot;Segoe UI, Helvetica, Arial, sans-serif&quot;" font-size="12" lengthAdjust="spacing" textLength="59" x="507.5" y="287.373">Demo API</text><text fill="#333333" font-family="&quot;Segoe UI, Helvetica, Arial, sans-serif&quot;" font-size="12" lengthAdjust="spacing" textLength="177" x="507.5" y="301.3418">fetch_market_data(symbols)</text></g><!--MD5=[b606024bbfe7bb2a72f23d5885a85ac0]
entity ccxt--><g id="elem_ccxt"><rect fill="#F3EEFF" height="85.875" rx="3" ry="3" style="stroke:#7C5CFC;stroke-width:0.5;" width="180" x="277" y="228.2969"/><rect fill="#F3EEFF" height="10" style="stroke:#7C5CFC;stroke-width:0.5;" width="15" x="437" y="233.2969"/><rect fill="#F3EEFF" height="2" style="stroke:#7C5CFC;stroke-width:0.5;" width="4" x="435" y="235.2969"/><rect fill="#F3EEFF" height="2" style="stroke:#7C5CFC;stroke-width:0.5;" width="4" x="435" y="239.2969"/><text fill="#7C5CFC" font-family="&quot;Segoe UI, Helvetica, Arial, sans-serif&quot;" font-size="12" font-style="italic" lengthAdjust="spacing" textLength="68" x="328" y="259.4355">«collector»</text><text fill="#333333" font-family="&quot;Segoe UI, Helvetica, Arial, sans-serif&quot;" font-size="12" lengthAdjust="spacing" textLength="85" x="292" y="273.4043">CCXTCollector</text><text fill="#333333" font-family="&quot;Segoe UI, Helvetica, Arial, sans-serif&quot;" font-size="12" lengthAdjust="spacing" textLength="94" x="292" y="287.373">Multi-exchange</text><text fill="#333333" font-family="&quot;Segoe UI, Helvetica, Arial, sans-serif&quot;" font-size="12" lengthAdjust="spacing" textLength="140" x="292" y="301.3418">fetch_ohlcv(symbol, tf)</text></g><!--MD5=[7e731b8fa215fb5a012d40029c0ace2d]
entity news--><g id="elem_news"><rect fill="#F3EEFF" height="85.875" rx="3" ry="3" style="stroke:#7C5CFC;stroke-width:0.5;" width="236" x="745" y="228.2969"/><rect fill="#F3EEFF" height="10" style="stroke:#7C5CFC;stroke-width:0.5;" width="15" x="961" y="233.2969"/><rect fill="#F3EEFF" height="2" style="stroke:#7C5CFC;stroke-width:0.5;" width="4" x="959" y="235.2969"/><rect fill="#F3EEFF" height="2" style="stroke:#7C5CFC;stroke-width:0.5;" width="4" x="959" y="239.2969"/><text fill="#7C5CFC" font-family="&quot;Segoe UI, Helvetica, Arial, sans-serif&quot;" font-size="12" font-style="italic" lengthAdjust="spacing" textLength="68" x="824" y="259.4355">«collector»</text><text fill="#333333" font-family="&quot;Segoe UI, Helvetica, Arial, sans-serif&quot;" font-size="12" lengthAdjust="spacing" textLength="88" x="760" y="273.4043">NewsCollector</text><text fill="#333333" font-family="&quot;Segoe UI, Helvetica, Arial, sans-serif&quot;" font-size="12" lengthAdjust="spacing" textLength="176" x="760" y="287.373">RSS: Decrypt, Cointelegraph</text><text fill="#333333" font-family="&quot;Segoe UI, Helvetica, Arial, sans-serif&quot;" font-size="12" lengthAdjust="spacing" textLength="196" x="760" y="301.3418">fetch_news(sources, keywords)</text></g><!--MD5=[3dc85b8472d06b3be94ffc4f03a53d72]
entity fng--><g id="elem_fng"><rect fill="#F3EEFF" height="85.875" rx="3" ry="3" style="stroke:#7C5CFC;stroke-width:0.5;" width="161" x="1016.5" y="228.2969"/><rect fill="#F3EEFF" height="10" style="stroke:#7C5CFC;stroke-width:0.5;" width="15" x="1157.5" y="233.2969"/><rect fill="#F3EEFF" height="2" style="stroke:#7C5CFC;stroke-width:0.5;" width="4" x="1155.5" y="235.2969"/><rect fill="#F3EEFF" height="2" style="stroke:#7C5CFC;stroke-width:0.5;" width="4" x="1155.5" y="239.2969"/><text fill="#7C5CFC" font-family="&quot;Segoe UI, Helvetica, Arial, sans-serif&quot;" font-size="12" font-style="italic" lengthAdjust="spacing" textLength="68" x="1058" y="259.4355">«collector»</text><text fill="#333333" font-family="&quot;Segoe UI, Helvetica, Arial, sans-serif&quot;" font-size="12" lengthAdjust="spacing" textLength="121" x="1031.5" y="273.4043">FearGreedCollector</text><text fill="#333333" font-family="&quot;Segoe UI, Helvetica, Arial, sans-serif&quot;" font-size="12" lengthAdjust="spacing" textLength="90" x="1031.5" y="287.373">Alternative.me</text><text fill="#333333" font-family="&quot;Segoe UI, Helvetica, Arial, sans-serif&quot;" font-size="12" lengthAdjust="spacing" textLength="116" x="1031.5" y="301.3418">fetch_fear_greed()</text></g><!--MD5=[4836bd9cecb689a2ca8bba14856b6a8a]
entity cleaner--><g id="elem_cleaner"><rect fill="#F3EEFF" height="113.8125" rx="3" ry="3" style="stroke:#7C5CFC;stroke-width:0.5;" width="224" x="751" y="409.2969"/><rect fill="#F3EEFF" height="10" style="stroke:#7C5CFC;stroke-width:0.5;" width="15" x="955" y="414.2969"/><rect fill="#F3EEFF" height="2" style="stroke:#7C5CFC;stroke-width:0.5;" width="4" x="953" y="416.2969"/><rect fill="#F3EEFF" height="2" style="stroke:#7C5CFC;stroke-width:0.5;" width="4" x="953" y="420.2969"/><text fill="#7C5CFC" font-family="&quot;Segoe UI, Helvetica, Arial, sans-serif&quot;" font-size="12" font-style="italic" lengthAdjust="spacing" textLength="87" x="814.5" y="440.4355">«transformer»</text><text fill="#333333" font-family="&quot;Segoe UI, Helvetica, Arial, sans-serif&quot;" font-size="12" lengthAdjust="spacing" textLength="65" x="766" y="454.4043">cleaner.py</text><text fill="#333333" font-family="&quot;Segoe UI, Helvetica, Arial, sans-serif&quot;" font-size="12" lengthAdjust="spacing" textLength="122" x="766" y="468.373">deduplicate_ohlcv()</text><text fill="#333333" font-family="&quot;Segoe UI, Helvetica, Arial, sans-serif&quot;" font-size="12" lengthAdjust="spacing" textLength="184" x="766" y="482.3418">validate_ohlcv_relationships()</text><text fill="#333333" font-family="&quot;Segoe UI, Helvetica, Arial, sans-serif&quot;" font-size="12" lengthAdjust="spacing" textLength="126" x="766" y="496.3105">filter_valid_records()</text><text fill="#333333" font-family="&quot;Segoe UI, Helvetica, Arial, sans-serif&quot;" font-size="12" lengthAdjust="spacing" textLength="88" x="766" y="510.2793">detect_gaps()</text></g><!--MD5=[5e8d32a721390c805ad25e4f7618a716]
entity indicators--><g id="elem_indicators"><rect fill="#F3EEFF" height="113.8125" rx="3" ry="3" style="stroke:#7C5CFC;stroke-width:0.5;" width="262" x="751" y="598.2969"/><rect fill="#F3EEFF" height="10" style="stroke:#7C5CFC;stroke-width:0.5;" width="15" x="993" y="603.2969"/><rect fill="#F3EEFF" height="2" style="stroke:#7C5CFC;stroke-width:0.5;" width="4" x="991" y="605.2969"/><rect fill="#F3EEFF" height="2" style="stroke:#7C5CFC;stroke-width:0.5;" width="4" x="991" y="609.2969"/><text fill="#7C5CFC" font-family="&quot;Segoe UI, Helvetica, Arial, sans-serif&quot;" font-size="12" font-style="italic" lengthAdjust="spacing" textLength="87" x="833.5" y="629.4355">«transformer»</text><text fill="#333333" font-family="&quot;Segoe UI, Helvetica, Arial, sans-serif&quot;" font-size="12" lengthAdjust="spacing" textLength="80" x="766" y="643.4043">indicators.py</text><text fill="#333333" font-family="&quot;Segoe UI, Helvetica, Arial, sans-serif&quot;" font-size="12" lengthAdjust="spacing" textLength="152" x="766" y="657.373">compute_rsi(period=14)</text><text fill="#333333" font-family="&quot;Segoe UI, Helvetica, Arial, sans-serif&quot;" font-size="12" lengthAdjust="spacing" textLength="222" x="766" y="671.3418">compute_bollinger_bands(20, 2std)</text><text fill="#333333" font-family="&quot;Segoe UI, Helvetica, Arial, sans-serif&quot;" font-size="12" lengthAdjust="spacing" textLength="181" x="766" y="685.3105">compute_price_vs_bollinger()</text><text fill="#333333" font-family="&quot;Segoe UI, Helvetica, Arial, sans-serif&quot;" font-size="12" lengthAdjust="spacing" textLength="184" x="766" y="699.2793">compute_trend(slope + type)</text></g><!--MD5=[99bbf466b60ff56cc9579c7dcd5c6a90]
entity tsloader--><g id="elem_tsloader"><rect fill="#F3EEFF" height="127.7813" rx="3" ry="3" style="stroke:#7C5CFC;stroke-width:0.5;" width="211" x="1144.5" y="807.2969"/><rect fill="#F3EEFF" height="10" style="stroke:#7C5CFC;stroke-width:0.5;" width="15" x="1335.5" y="812.2969"/><rect fill="#F3EEFF" height="2" style="stroke:#7C5CFC;stroke-width:0.5;" width="4" x="1333.5" y="814.2969"/><rect fill="#F3EEFF" height="2" style="stroke:#7C5CFC;stroke-width:0.5;" width="4" x="1333.5" y="818.2969"/><text fill="#7C5CFC" font-family="&quot;Segoe UI, Helvetica, Arial, sans-serif&quot;" font-size="12" font-style="italic" lengthAdjust="spacing" textLength="54" x="1218" y="838.4355">«loader»</text><text fill="#333333" font-family="&quot;Segoe UI, Helvetica, Arial, sans-serif&quot;" font-size="12" lengthAdjust="spacing" textLength="94" x="1159.5" y="852.4043">timescaledb.py</text><text fill="#333333" font-family="&quot;Segoe UI, Helvetica, Arial, sans-serif&quot;" font-size="12" lengthAdjust="spacing" textLength="126" x="1159.5" y="866.373">insert_ohlcv_batch()</text><text fill="#333333" font-family="&quot;Segoe UI, Helvetica, Arial, sans-serif&quot;" font-size="12" lengthAdjust="spacing" textLength="156" x="1159.5" y="880.3418">insert_indicators_batch()</text><text fill="#333333" font-family="&quot;Segoe UI, Helvetica, Arial, sans-serif&quot;" font-size="12" lengthAdjust="spacing" textLength="126" x="1159.5" y="894.3105">insert_news_batch()</text><text fill="#333333" font-family="&quot;Segoe UI, Helvetica, Arial, sans-serif&quot;" font-size="12" lengthAdjust="spacing" textLength="171" x="1159.5" y="908.2793">fetch_ohlcv_for_indicators()</text><text fill="#333333" font-family="&quot;Segoe UI, Helvetica, Arial, sans-serif&quot;" font-size="12" lengthAdjust="spacing" textLength="88" x="1159.5" y="922.248">detect_gaps()</text></g><!--MD5=[4a5a4dc8cddf0f5778e062f020e0293d]
entity minloader--><g id="elem_minloader"><rect fill="#F3EEFF" height="113.8125" rx="3" ry="3" style="stroke:#7C5CFC;stroke-width:0.5;" width="204" x="1391" y="814.2969"/><rect fill="#F3EEFF" height="10" style="stroke:#7C5CFC;stroke-width:0.5;" width="15" x="1575" y="819.2969"/><rect fill="#F3EEFF" height="2" style="stroke:#7C5CFC;stroke-width:0.5;" width="4" x="1573" y="821.2969"/><rect fill="#F3EEFF" height="2" style="stroke:#7C5CFC;stroke-width:0.5;" width="4" x="1573" y="825.2969"/><text fill="#7C5CFC" font-family="&quot;Segoe UI, Helvetica, Arial, sans-serif&quot;" font-size="12" font-style="italic" lengthAdjust="spacing" textLength="54" x="1461" y="845.4355">«loader»</text><text fill="#333333" font-family="&quot;Segoe UI, Helvetica, Arial, sans-serif&quot;" font-size="12" lengthAdjust="spacing" textLength="97" x="1406" y="859.4043">minio_loader.py</text><text fill="#333333" font-family="&quot;Segoe UI, Helvetica, Arial, sans-serif&quot;" font-size="12" lengthAdjust="spacing" textLength="147" x="1406" y="873.373">upload_ohlcv_parquet()</text><text fill="#333333" font-family="&quot;Segoe UI, Helvetica, Arial, sans-serif&quot;" font-size="12" lengthAdjust="spacing" textLength="164" x="1406" y="887.3418">upload_dataset_parquet()</text><text fill="#333333" font-family="&quot;Segoe UI, Helvetica, Arial, sans-serif&quot;" font-size="12" lengthAdjust="spacing" textLength="113" x="1406" y="901.3105">upload_raw_json()</text><text fill="#333333" font-family="&quot;Segoe UI, Helvetica, Arial, sans-serif&quot;" font-size="12" lengthAdjust="spacing" textLength="141" x="1406" y="915.2793">download_dataframe()</text></g><!--MD5=[81640525cc6a43b0b1bb94c6903a6430]
entity j1--><g id="elem_j1"><rect fill="#F3EEFF" height="71.9063" rx="3" ry="3" style="stroke:#7C5CFC;stroke-width:0.5;" width="168" x="48" y="75.2969"/><rect fill="#F3EEFF" height="10" style="stroke:#7C5CFC;stroke-width:0.5;" width="15" x="196" y="80.2969"/><rect fill="#F3EEFF" height="2" style="stroke:#7C5CFC;stroke-width:0.5;" width="4" x="194" y="82.2969"/><rect fill="#F3EEFF" height="2" style="stroke:#7C5CFC;stroke-width:0.5;" width="4" x="194" y="86.2969"/><text fill="#7C5CFC" font-family="&quot;Segoe UI, Helvetica, Arial, sans-serif&quot;" font-size="12" font-style="italic" lengthAdjust="spacing" textLength="75" x="89.5" y="106.4355">«scheduler»</text><text fill="#333333" font-family="&quot;Segoe UI, Helvetica, Arial, sans-serif&quot;" font-size="12" lengthAdjust="spacing" textLength="128" x="63" y="120.4043">collect_ohlcv_priority</text><text fill="#333333" font-family="&quot;Segoe UI, Helvetica, Arial, sans-serif&quot;" font-size="12" lengthAdjust="spacing" textLength="116" x="63" y="134.373">1 min | 13 symbols</text></g><!--MD5=[906e70c3fd0c15613df31e981a01a104]
entity j2--><g id="elem_j2"><rect fill="#F3EEFF" height="71.9063" rx="3" ry="3" style="stroke:#7C5CFC;stroke-width:0.5;" width="154" x="251" y="75.2969"/><rect fill="#F3EEFF" height="10" style="stroke:#7C5CFC;stroke-width:0.5;" width="15" x="385" y="80.2969"/><rect fill="#F3EEFF" height="2" style="stroke:#7C5CFC;stroke-width:0.5;" width="4" x="383" y="82.2969"/><rect fill="#F3EEFF" height="2" style="stroke:#7C5CFC;stroke-width:0.5;" width="4" x="383" y="86.2969"/><text fill="#7C5CFC" font-family="&quot;Segoe UI, Helvetica, Arial, sans-serif&quot;" font-size="12" font-style="italic" lengthAdjust="spacing" textLength="75" x="285.5" y="106.4355">«scheduler»</text><text fill="#333333" font-family="&quot;Segoe UI, Helvetica, Arial, sans-serif&quot;" font-size="12" lengthAdjust="spacing" textLength="99" x="266" y="120.4043">collect_ohlcv_all</text><text fill="#333333" font-family="&quot;Segoe UI, Helvetica, Arial, sans-serif&quot;" font-size="12" lengthAdjust="spacing" textLength="114" x="266" y="134.373">5 min | all symbols</text></g><!--MD5=[17664ab025255b23b347401558330089]
entity j3--><g id="elem_j3"><rect fill="#F3EEFF" height="71.9063" rx="3" ry="3" style="stroke:#7C5CFC;stroke-width:0.5;" width="166" x="440" y="75.2969"/><rect fill="#F3EEFF" height="10" style="stroke:#7C5CFC;stroke-width:0.5;" width="15" x="586" y="80.2969"/><rect fill="#F3EEFF" height="2" style="stroke:#7C5CFC;stroke-width:0.5;" width="4" x="584" y="82.2969"/><rect fill="#F3EEFF" height="2" style="stroke:#7C5CFC;stroke-width:0.5;" width="4" x="584" y="86.2969"/><text fill="#7C5CFC" font-family="&quot;Segoe UI, Helvetica, Arial, sans-serif&quot;" font-size="12" font-style="italic" lengthAdjust="spacing" textLength="75" x="480.5" y="106.4355">«scheduler»</text><text fill="#333333" font-family="&quot;Segoe UI, Helvetica, Arial, sans-serif&quot;" font-size="12" lengthAdjust="spacing" textLength="126" x="455" y="120.4043">collect_market_data</text><text fill="#333333" font-family="&quot;Segoe UI, Helvetica, Arial, sans-serif&quot;" font-size="12" lengthAdjust="spacing" textLength="112" x="455" y="134.373">5 min | CoinGecko</text></g><!--MD5=[74174aeadf1661966e8eb0aa4ac09055]
entity j4--><g id="elem_j4"><rect fill="#F3EEFF" height="71.9063" rx="3" ry="3" style="stroke:#7C5CFC;stroke-width:0.5;" width="157" x="641.5" y="75.2969"/><rect fill="#F3EEFF" height="10" style="stroke:#7C5CFC;stroke-width:0.5;" width="15" x="778.5" y="80.2969"/><rect fill="#F3EEFF" height="2" style="stroke:#7C5CFC;stroke-width:0.5;" width="4" x="776.5" y="82.2969"/><rect fill="#F3EEFF" height="2" style="stroke:#7C5CFC;stroke-width:0.5;" width="4" x="776.5" y="86.2969"/><text fill="#7C5CFC" font-family="&quot;Segoe UI, Helvetica, Arial, sans-serif&quot;" font-size="12" font-style="italic" lengthAdjust="spacing" textLength="75" x="677.5" y="106.4355">«scheduler»</text><text fill="#333333" font-family="&quot;Segoe UI, Helvetica, Arial, sans-serif&quot;" font-size="12" lengthAdjust="spacing" textLength="79" x="656.5" y="120.4043">collect_news</text><text fill="#333333" font-family="&quot;Segoe UI, Helvetica, Arial, sans-serif&quot;" font-size="12" lengthAdjust="spacing" textLength="117" x="656.5" y="134.373">15 min | RSS feeds</text></g><!--MD5=[6a5d4ca46537a901fd1ffed154b0276b]
entity j5--><g id="elem_j5"><rect fill="#F3EEFF" height="71.9063" rx="3" ry="3" style="stroke:#7C5CFC;stroke-width:0.5;" width="157" x="1023.5" y="75.2969"/><rect fill="#F3EEFF" height="10" style="stroke:#7C5CFC;stroke-width:0.5;" width="15" x="1160.5" y="80.2969"/><rect fill="#F3EEFF" height="2" style="stroke:#7C5CFC;stroke-width:0.5;" width="4" x="1158.5" y="82.2969"/><rect fill="#F3EEFF" height="2" style="stroke:#7C5CFC;stroke-width:0.5;" width="4" x="1158.5" y="86.2969"/><text fill="#7C5CFC" font-family="&quot;Segoe UI, Helvetica, Arial, sans-serif&quot;" font-size="12" font-style="italic" lengthAdjust="spacing" textLength="75" x="1059.5" y="106.4355">«scheduler»</text><text fill="#333333" font-family="&quot;Segoe UI, Helvetica, Arial, sans-serif&quot;" font-size="12" lengthAdjust="spacing" textLength="102" x="1038.5" y="120.4043">enrich_news_nlp</text><text fill="#333333" font-family="&quot;Segoe UI, Helvetica, Arial, sans-serif&quot;" font-size="12" lengthAdjust="spacing" textLength="117" x="1038.5" y="134.373">20 min | sentiment</text></g><!--MD5=[039de079b77cc730fbdf0b3df1854300]
entity j6--><g id="elem_j6"><rect fill="#F3EEFF" height="71.9063" rx="3" ry="3" style="stroke:#7C5CFC;stroke-width:0.5;" width="155" x="833.5" y="75.2969"/><rect fill="#F3EEFF" height="10" style="stroke:#7C5CFC;stroke-width:0.5;" width="15" x="968.5" y="80.2969"/><rect fill="#F3EEFF" height="2" style="stroke:#7C5CFC;stroke-width:0.5;" width="4" x="966.5" y="82.2969"/><rect fill="#F3EEFF" height="2" style="stroke:#7C5CFC;stroke-width:0.5;" width="4" x="966.5" y="86.2969"/><text fill="#7C5CFC" font-family="&quot;Segoe UI, Helvetica, Arial, sans-serif&quot;" font-size="12" font-style="italic" lengthAdjust="spacing" textLength="75" x="868.5" y="106.4355">«scheduler»</text><text fill="#333333" font-family="&quot;Segoe UI, Helvetica, Arial, sans-serif&quot;" font-size="12" lengthAdjust="spacing" textLength="115" x="848.5" y="120.4043">collect_fear_greed</text><text fill="#333333" font-family="&quot;Segoe UI, Helvetica, Arial, sans-serif&quot;" font-size="12" lengthAdjust="spacing" textLength="41" x="848.5" y="134.373">1 hour</text></g><!--MD5=[bc3d87293b13a06e0c7583fca5605206]
entity j7--><g id="elem_j7"><rect fill="#F3EEFF" height="71.9063" rx="3" ry="3" style="stroke:#7C5CFC;stroke-width:0.5;" width="171" x="1215.5" y="75.2969"/><rect fill="#F3EEFF" height="10" style="stroke:#7C5CFC;stroke-width:0.5;" width="15" x="1366.5" y="80.2969"/><rect fill="#F3EEFF" height="2" style="stroke:#7C5CFC;stroke-width:0.5;" width="4" x="1364.5" y="82.2969"/><rect fill="#F3EEFF" height="2" style="stroke:#7C5CFC;stroke-width:0.5;" width="4" x="1364.5" y="86.2969"/><text fill="#7C5CFC" font-family="&quot;Segoe UI, Helvetica, Arial, sans-serif&quot;" font-size="12" font-style="italic" lengthAdjust="spacing" textLength="75" x="1258.5" y="106.4355">«scheduler»</text><text fill="#333333" font-family="&quot;Segoe UI, Helvetica, Arial, sans-serif&quot;" font-size="12" lengthAdjust="spacing" textLength="123" x="1230.5" y="120.4043">compute_indicators</text><text fill="#333333" font-family="&quot;Segoe UI, Helvetica, Arial, sans-serif&quot;" font-size="12" lengthAdjust="spacing" textLength="131" x="1230.5" y="134.373">5 min | RSI, BB, trend</text></g><!--MD5=[407bfafa3f1f49c3d9ac8a6faaa0c5cd]
entity j8--><g id="elem_j8"><rect fill="#F3EEFF" height="71.9063" rx="3" ry="3" style="stroke:#7C5CFC;stroke-width:0.5;" width="142" x="1422" y="75.2969"/><rect fill="#F3EEFF" height="10" style="stroke:#7C5CFC;stroke-width:0.5;" width="15" x="1544" y="80.2969"/><rect fill="#F3EEFF" height="2" style="stroke:#7C5CFC;stroke-width:0.5;" width="4" x="1542" y="82.2969"/><rect fill="#F3EEFF" height="2" style="stroke:#7C5CFC;stroke-width:0.5;" width="4" x="1542" y="86.2969"/><text fill="#7C5CFC" font-family="&quot;Segoe UI, Helvetica, Arial, sans-serif&quot;" font-size="12" font-style="italic" lengthAdjust="spacing" textLength="75" x="1450.5" y="106.4355">«scheduler»</text><text fill="#333333" font-family="&quot;Segoe UI, Helvetica, Arial, sans-serif&quot;" font-size="12" lengthAdjust="spacing" textLength="102" x="1437" y="120.4043">export_datasets</text><text fill="#333333" font-family="&quot;Segoe UI, Helvetica, Arial, sans-serif&quot;" font-size="12" lengthAdjust="spacing" textLength="96" x="1437" y="134.373">daily 03:00 UTC</text></g><!--MD5=[d5c23e789fbd84829e4f76eaff2a9e0a]
entity j9--><g id="elem_j9"><rect fill="#F3EEFF" height="71.9063" rx="3" ry="3" style="stroke:#7C5CFC;stroke-width:0.5;" width="181" x="1599.5" y="75.2969"/><rect fill="#F3EEFF" height="10" style="stroke:#7C5CFC;stroke-width:0.5;" width="15" x="1760.5" y="80.2969"/><rect fill="#F3EEFF" height="2" style="stroke:#7C5CFC;stroke-width:0.5;" width="4" x="1758.5" y="82.2969"/><rect fill="#F3EEFF" height="2" style="stroke:#7C5CFC;stroke-width:0.5;" width="4" x="1758.5" y="86.2969"/><text fill="#7C5CFC" font-family="&quot;Segoe UI, Helvetica, Arial, sans-serif&quot;" font-size="12" font-style="italic" lengthAdjust="spacing" textLength="75" x="1647.5" y="106.4355">«scheduler»</text><text fill="#333333" font-family="&quot;Segoe UI, Helvetica, Arial, sans-serif&quot;" font-size="12" lengthAdjust="spacing" textLength="84" x="1614.5" y="120.4043">reconciliation</text><text fill="#333333" font-family="&quot;Segoe UI, Helvetica, Arial, sans-serif&quot;" font-size="12" lengthAdjust="spacing" textLength="141" x="1614.5" y="134.373">1 hour | gap detection</text></g><!--MD5=[d9dd354aaca1eaed509a6eb94f541a83]
entity j10--><g id="elem_j10"><rect fill="#F3EEFF" height="71.9063" rx="3" ry="3" style="stroke:#7C5CFC;stroke-width:0.5;" width="205" x="1815.5" y="75.2969"/><rect fill="#F3EEFF" height="10" style="stroke:#7C5CFC;stroke-width:0.5;" width="15" x="2000.5" y="80.2969"/><rect fill="#F3EEFF" height="2" style="stroke:#7C5CFC;stroke-width:0.5;" width="4" x="1998.5" y="82.2969"/><rect fill="#F3EEFF" height="2" style="stroke:#7C5CFC;stroke-width:0.5;" width="4" x="1998.5" y="86.2969"/><text fill="#7C5CFC" font-family="&quot;Segoe UI, Helvetica, Arial, sans-serif&quot;" font-size="12" font-style="italic" lengthAdjust="spacing" textLength="75" x="1875.5" y="106.4355">«scheduler»</text><text fill="#333333" font-family="&quot;Segoe UI, Helvetica, Arial, sans-serif&quot;" font-size="12" lengthAdjust="spacing" textLength="165" x="1830.5" y="120.4043">evaluate_signal_outcomes</text><text fill="#333333" font-family="&quot;Segoe UI, Helvetica, Arial, sans-serif&quot;" font-size="12" lengthAdjust="spacing" textLength="118" x="1830.5" y="134.373">1 hour | P&amp;L check</text></g><!--MD5=[5f5753442e7fadb4fd16694c78ce39f0]
entity tsdb--><g id="elem_tsdb"><path d="M1200.5,1008.2969 C1200.5,998.2969 1250,998.2969 1250,998.2969 C1250,998.2969 1299.5,998.2969 1299.5,1008.2969 L1299.5,1031.2656 C1299.5,1041.2656 1250,1041.2656 1250,1041.2656 C1250,1041.2656 1200.5,1041.2656 1200.5,1031.2656 L1200.5,1008.2969 " fill="#ECFDF5" style="stroke:#34A853;stroke-width:0.5;"/><path d="M1200.5,1008.2969 C1200.5,1018.2969 1250,1018.2969 1250,1018.2969 C1250,1018.2969 1299.5,1018.2969 1299.5,1008.2969 " fill="none" style="stroke:#34A853;stroke-width:0.5;"/><text fill="#333333" font-family="&quot;Segoe UI, Helvetica, Arial, sans-serif&quot;" font-size="12" lengthAdjust="spacing" textLength="79" x="1210.5" y="1033.4355">TimescaleDB</text></g><!--MD5=[dd69d516781b0f0936e849bb07507e10]
entity minio--><g id="elem_minio"><path d="M1466.5,1008.2969 C1466.5,998.2969 1493,998.2969 1493,998.2969 C1493,998.2969 1519.5,998.2969 1519.5,1008.2969 L1519.5,1031.2656 C1519.5,1041.2656 1493,1041.2656 1493,1041.2656 C1493,1041.2656 1466.5,1041.2656 1466.5,1031.2656 L1466.5,1008.2969 " fill="#ECFDF5" style="stroke:#34A853;stroke-width:0.5;"/><path d="M1466.5,1008.2969 C1466.5,1018.2969 1493,1018.2969 1493,1018.2969 C1493,1018.2969 1519.5,1018.2969 1519.5,1008.2969 " fill="none" style="stroke:#34A853;stroke-width:0.5;"/><text fill="#333333" font-family="&quot;Segoe UI, Helvetica, Arial, sans-serif&quot;" font-size="12" lengthAdjust="spacing" textLength="33" x="1476.5" y="1033.4355">MinIO</text></g><!--MD5=[9a743d84936beaa5fe9d1b9739b10691]
link j1 to binance--><g id="link_j1_binance"><path d="M132,147.3669 C132,169.5969 132,198.6469 132,222.9269 " fill="none" id="j1-to-binance" style="stroke:#4A6FA5;stroke-width:1.0;"/><polygon fill="#4A6FA5" points="132,228.0269,136,219.0269,132,223.0269,128,219.0269,132,228.0269" style="stroke:#4A6FA5;stroke-width:1.0;"/></g><!--MD5=[36881124e4482803f1af8c2acff8a08c]
link j2 to binance--><g id="link_j2_binance"><path d="M284.5,147.3669 C256.22,170.1569 219.07,200.1069 188.51,224.7469 " fill="none" id="j2-to-binance" style="stroke:#4A6FA5;stroke-width:1.0;"/><polygon fill="#4A6FA5" points="184.44,228.0269,193.9531,225.4771,188.3276,224.8825,188.9221,219.257,184.44,228.0269" style="stroke:#4A6FA5;stroke-width:1.0;"/></g><!--MD5=[01c1c4b8c19b271ca3f8a64100262eb6]
link j2 to ccxt--><g id="link_j2_ccxt"><path d="M336.66,147.3669 C342.14,169.5969 349.31,198.6469 355.31,222.9269 " fill="none" id="j2-to-ccxt" style="stroke:#4A6FA5;stroke-width:1.0;"/><polygon fill="#4A6FA5" points="356.57,228.0269,358.2946,218.3302,355.3708,223.1728,350.5281,220.249,356.57,228.0269" style="stroke:#4A6FA5;stroke-width:1.0;"/></g><!--MD5=[007d5532b24a7e075b4c48521ba10bb5]
link j3 to coingecko--><g id="link_j3_coingecko"><path d="M540.31,147.3669 C551.38,169.7869 565.87,199.1369 577.91,223.5369 " fill="none" id="j3-to-coingecko" style="stroke:#4A6FA5;stroke-width:1.0;"/><polygon fill="#4A6FA5" points="580.13,228.0269,579.7331,218.186,577.9168,223.5434,572.5595,221.7271,580.13,228.0269" style="stroke:#4A6FA5;stroke-width:1.0;"/></g><!--MD5=[802edc0912067d2d19ef45e6d6d4b74f]
link j4 to news--><g id="link_j4_news"><path d="M751.74,147.3669 C772.2,169.9769 799.03,199.6269 821.22,224.1369 " fill="none" id="j4-to-news" style="stroke:#4A6FA5;stroke-width:1.0;"/><polygon fill="#4A6FA5" points="824.74,228.0269,821.6726,218.6679,821.3873,224.3175,815.7376,224.0322,824.74,228.0269" style="stroke:#4A6FA5;stroke-width:1.0;"/></g><!--MD5=[9d0c127b9e3c28efc0351a383996c68b]
link j6 to fng--><g id="link_j6_fng"><path d="M952.28,147.3669 C979.12,170.1569 1014.38,200.1069 1043.37,224.7469 " fill="none" id="j6-to-fng" style="stroke:#4A6FA5;stroke-width:1.0;"/><polygon fill="#4A6FA5" points="1047.24,228.0269,1042.9548,219.1591,1043.4236,224.7965,1037.7862,225.2654,1047.24,228.0269" style="stroke:#4A6FA5;stroke-width:1.0;"/></g><!--MD5=[0062da53115f39598b57e65ba02dd2c6]
link binance to cleaner--><g id="link_binance_cleaner"><path d="M205.28,314.3369 C222.81,323.1869 241.74,331.7969 260,338.2969 C423.66,396.5269 622.3,431.9869 745.7,450.1269 " fill="none" id="binance-to-cleaner" style="stroke:#4A6FA5;stroke-width:1.0;"/><polygon fill="#4A6FA5" points="750.79,450.8669,742.4695,445.5972,745.8434,450.1378,741.3029,453.5117,750.79,450.8669" style="stroke:#4A6FA5;stroke-width:1.0;"/><text fill="#333333" font-family="&quot;Segoe UI, Helvetica, Arial, sans-serif&quot;" font-size="12" lengthAdjust="spacing" textLength="66" x="324" y="358.4355">raw OHLCV</text></g><!--MD5=[2ff3b3fea7f1d8d501c3874f99f34af5]
link ccxt to cleaner--><g id="link_ccxt_cleaner"><path d="M430.47,314.4369 C444.78,322.9769 460.14,331.4369 475,338.2969 C562.84,378.8469 667.32,412.2569 745.72,434.6169 " fill="none" id="ccxt-to-cleaner" style="stroke:#4A6FA5;stroke-width:1.0;"/><polygon fill="#4A6FA5" points="750.85,436.0769,743.2902,429.7642,746.0413,434.707,741.0985,437.4581,750.85,436.0769" style="stroke:#4A6FA5;stroke-width:1.0;"/><text fill="#333333" font-family="&quot;Segoe UI, Helvetica, Arial, sans-serif&quot;" font-size="12" lengthAdjust="spacing" textLength="66" x="526" y="358.4355">raw OHLCV</text></g><!--MD5=[fc0f9b0184e0ea72ef82252de6a8b2c3]
link coingecko to cleaner--><g id="link_coingecko_cleaner"><path d="M658.17,314.4169 C694.49,341.1669 742.05,376.1969 782.2,405.7769 " fill="none" id="coingecko-to-cleaner" style="stroke:#4A6FA5;stroke-width:1.0;"/><polygon fill="#4A6FA5" points="786.56,408.9869,781.6914,400.4255,782.5362,406.0189,776.9427,406.8637,786.56,408.9869" style="stroke:#4A6FA5;stroke-width:1.0;"/><text fill="#333333" font-family="&quot;Segoe UI, Helvetica, Arial, sans-serif&quot;" font-size="12" lengthAdjust="spacing" textLength="77" x="717" y="358.4355">market data</text></g><!--MD5=[3afe4e8065f777a7e3eda5e8fa0e5f9d]
link news to cleaner--><g id="link_news_cleaner"><path d="M863,314.6469 C863,340.8769 863,374.9869 863,404.1169 " fill="none" id="news-to-cleaner" style="stroke:#4A6FA5;stroke-width:1.0;"/><polygon fill="#4A6FA5" points="863,409.1169,867,400.1169,863,404.1169,859,400.1169,863,409.1169" style="stroke:#4A6FA5;stroke-width:1.0;"/><text fill="#333333" font-family="&quot;Segoe UI, Helvetica, Arial, sans-serif&quot;" font-size="12" lengthAdjust="spacing" textLength="46" x="864" y="358.4355">articles</text></g><!--MD5=[43048b00e42526f9fd15c82c3ac0a06f]
link cleaner to tsloader--><g id="link_cleaner_tsloader"><path d="M750.99,507.3869 C710.46,527.9569 669.04,557.4869 646,598.2969 C615.85,651.7069 607.61,688.4569 646,736.2969 C706.68,811.9169 982.18,847.5269 1139.32,861.9469 " fill="none" id="cleaner-to-tsloader" style="stroke:#4A6FA5;stroke-width:1.0;"/><polygon fill="#4A6FA5" points="1144.39,862.4069,1135.7928,857.6018,1139.4109,861.9503,1135.0624,865.5684,1144.39,862.4069" style="stroke:#4A6FA5;stroke-width:1.0;"/><text fill="#333333" font-family="&quot;Segoe UI, Helvetica, Arial, sans-serif&quot;" font-size="12" lengthAdjust="spacing" textLength="86" x="647" y="659.9355">clean records</text></g><!--MD5=[1817c6a9420e0c1ead732810ce8104b1]
link cleaner to indicators--><g id="link_cleaner_indicators"><path d="M868.7,523.4069 C870.94,545.4069 873.51,570.7169 875.79,593.1869 " fill="none" id="cleaner-to-indicators" style="stroke:#4A6FA5;stroke-width:1.0;"/><polygon fill="#4A6FA5" points="876.3,598.2269,879.3527,588.8631,875.7855,593.2534,871.3951,589.6862,876.3,598.2269" style="stroke:#4A6FA5;stroke-width:1.0;"/><text fill="#333333" font-family="&quot;Segoe UI, Helvetica, Arial, sans-serif&quot;" font-size="12" lengthAdjust="spacing" textLength="72" x="874" y="565.4355">valid OHLCV</text></g><!--MD5=[269dde8ae2a21f077c3fb273128aaa8b]
link j7 to indicators--><g id="link_j7_indicators"><path d="M1288.58,147.5569 C1271.37,193.7769 1237.43,276.2369 1194,338.2969 C1124.22,438.0069 1021.87,534.8969 953.64,594.5369 " fill="none" id="j7-to-indicators" style="stroke:#4A6FA5;stroke-width:1.0;"/><polygon fill="#4A6FA5" points="949.61,598.0569,959.0117,595.1229,953.3667,594.7573,953.7324,589.1123,949.61,598.0569" style="stroke:#4A6FA5;stroke-width:1.0;"/></g><!--MD5=[7c2e8baba08f472ac04a95bae049baaf]
link indicators to tsloader--><g id="link_indicators_tsloader"><path d="M978.69,712.5269 C1028.09,741.2569 1088.43,776.3369 1139.65,806.1269 " fill="none" id="indicators-to-tsloader" style="stroke:#4A6FA5;stroke-width:1.0;"/><polygon fill="#4A6FA5" points="1144.26,808.8069,1138.4867,800.8276,1139.9365,806.2955,1134.4685,807.7453,1144.26,808.8069" style="stroke:#4A6FA5;stroke-width:1.0;"/><text fill="#333333" font-family="&quot;Segoe UI, Helvetica, Arial, sans-serif&quot;" font-size="12" lengthAdjust="spacing" textLength="99" x="1055" y="756.4355">IndicatorRecord</text></g><!--MD5=[0cb47fd07aaa5e791eee52b887e72785]
link tsloader to tsdb--><g id="link_tsloader_tsdb"><path d="M1250,935.6969 C1250,955.8469 1250,977.0069 1250,992.9369 " fill="none" id="tsloader-to-tsdb" style="stroke:#4A6FA5;stroke-width:1.0;"/><polygon fill="#4A6FA5" points="1250,998.1269,1254,989.1269,1250,993.1269,1246,989.1269,1250,998.1269" style="stroke:#4A6FA5;stroke-width:1.0;"/></g><!--MD5=[483338102ddef2e556905acddb5fe243]
link minloader to minio--><g id="link_minloader_minio"><path d="M1493,928.5169 C1493,950.6069 1493,974.8769 1493,992.6769 " fill="none" id="minloader-to-minio" style="stroke:#4A6FA5;stroke-width:1.0;"/><polygon fill="#4A6FA5" points="1493,997.9869,1497,988.9869,1493,992.9869,1489,988.9869,1493,997.9869" style="stroke:#4A6FA5;stroke-width:1.0;"/></g><!--MD5=[9d2f8e59b5a9e45492aefc69cbebca22]
link j8 to minloader--><g id="link_j8_minloader"><path d="M1493,147.4369 C1493,179.4569 1493,228.0569 1493,270.2969 C1493,270.2969 1493,270.2969 1493,656.2969 C1493,707.7069 1493,766.0669 1493,808.8369 " fill="none" id="j8-to-minloader" style="stroke:#4A6FA5;stroke-width:1.0;"/><polygon fill="#4A6FA5" points="1493,813.9769,1497,804.9769,1493,808.9769,1489,804.9769,1493,813.9769" style="stroke:#4A6FA5;stroke-width:1.0;"/><text fill="#333333" font-family="&quot;Segoe UI, Helvetica, Arial, sans-serif&quot;" font-size="12" lengthAdjust="spacing" textLength="72" x="1494" y="470.9355">daily export</text></g><!--MD5=[2d938d91f8e9f435241790c90b9d2a0b]
link j9 to tsloader--><g id="link_j9_tsloader"><path d="M1680.48,147.4569 C1672.71,179.2869 1663,227.5769 1663,270.2969 C1663,270.2969 1663,270.2969 1663,656.2969 C1663,793.8869 1492.72,697.7469 1374,767.2969 C1356.19,777.7269 1338.35,790.6969 1321.98,803.8769 " fill="none" id="j9-to-tsloader" style="stroke:#4A6FA5;stroke-width:1.0;"/><polygon fill="#4A6FA5" points="1317.85,807.2369,1327.3585,804.67,1321.7319,804.0855,1322.3163,798.4589,1317.85,807.2369" style="stroke:#4A6FA5;stroke-width:1.0;"/><text fill="#333333" font-family="&quot;Segoe UI, Helvetica, Arial, sans-serif&quot;" font-size="12" lengthAdjust="spacing" textLength="71" x="1664" y="470.9355">gap backfill</text></g><!--MD5=[79f1bc01b90b02d1eff6870931bc1cf5]
link j10 to tsloader--><g id="link_j10_tsloader"><path d="M1897.78,147.4369 C1881.74,178.6569 1862,226.0569 1862,270.2969 C1862,270.2969 1862,270.2969 1862,656.2969 C1862,741.0069 1770.74,714.0569 1689,736.2969 C1680.52,738.6069 1382.11,763.9069 1374,767.2969 C1353.11,776.0169 1333.05,789.5169 1315.37,803.8869 " fill="none" id="j10-to-tsloader" style="stroke:#4A6FA5;stroke-width:1.0;"/><polygon fill="#4A6FA5" points="1311.4,807.1669,1320.8864,804.5197,1315.2551,803.9828,1315.792,798.3515,1311.4,807.1669" style="stroke:#4A6FA5;stroke-width:1.0;"/><text fill="#333333" font-family="&quot;Segoe UI, Helvetica, Arial, sans-serif&quot;" font-size="12" lengthAdjust="spacing" textLength="106" x="1863" y="470.9355">signal evaluation</text></g><rect fill="#FFFFFF" height="16.2969" rx="3" ry="3" style="stroke:#00000000;stroke-width:1.0;" width="381" x="824" y="1058.2656"/><text fill="#333333" font-family="&quot;Segoe UI, Helvetica, Arial, sans-serif&quot;" font-size="14" lengthAdjust="spacing" textLength="381" x="824" y="1071.2607">src/etl/ | 5 collectors, 2 transformers, 2 loaders, 10 jobs</text><!--MD5=[a22f706097d618930cddd7b0648f9916]
@startuml C02-etl-components
!include _common.puml

title CryptoBot — Sous-systeme ETL
caption src/etl/ | 5 collectors, 2 transformers, 2 loaders, 10 jobs

' ============================================================
' Collectors
' ============================================================
package "Collectors" as coll #FEF3E8 {
  [BinanceCollector\nREST + WebSocket\nfetch_ohlcv(symbols, tf, limit)] as binance <<collector>>
  [CoinGeckoCollector\nDemo API\nfetch_market_data(symbols)] as coingecko <<collector>>
  [CCXTCollector\nMulti-exchange\nfetch_ohlcv(symbol, tf)] as ccxt <<collector>>
  [NewsCollector\nRSS: Decrypt, Cointelegraph\nfetch_news(sources, keywords)] as news <<collector>>
  [FearGreedCollector\nAlternative.me\nfetch_fear_greed()] as fng <<collector>>
}

' ============================================================
' Transformers
' ============================================================
package "Transformers" as trans #F3EEFF {
  [cleaner.py\ndeduplicate_ohlcv()\nvalidate_ohlcv_relationships()\nfilter_valid_records()\ndetect_gaps()] as cleaner <<transformer>>
  [indicators.py\ncompute_rsi(period=14)\ncompute_bollinger_bands(20, 2std)\ncompute_price_vs_bollinger()\ncompute_trend(slope + type)] as indicators <<transformer>>
}

' ============================================================
' Loaders
' ============================================================
package "Loaders" as load #ECFDF5 {
  [timescaledb.py\ninsert_ohlcv_batch()\ninsert_indicators_batch()\ninsert_news_batch()\nfetch_ohlcv_for_indicators()\ndetect_gaps()] as tsloader <<loader>>
  [minio_loader.py\nupload_ohlcv_parquet()\nupload_dataset_parquet()\nupload_raw_json()\ndownload_dataframe()] as minloader <<loader>>
}

' ============================================================
' Scheduler
' ============================================================
package "APScheduler (10 jobs)" as sched #F5F5F5 {
  [collect_ohlcv_priority\n1 min | 13 symbols] as j1 <<scheduler>>
  [collect_ohlcv_all\n5 min | all symbols] as j2 <<scheduler>>
  [collect_market_data\n5 min | CoinGecko] as j3 <<scheduler>>
  [collect_news\n15 min | RSS feeds] as j4 <<scheduler>>
  [enrich_news_nlp\n20 min | sentiment] as j5 <<scheduler>>
  [collect_fear_greed\n1 hour] as j6 <<scheduler>>
  [compute_indicators\n5 min | RSI, BB, trend] as j7 <<scheduler>>
  [export_datasets\ndaily 03:00 UTC] as j8 <<scheduler>>
  [reconciliation\n1 hour | gap detection] as j9 <<scheduler>>
  [evaluate_signal_outcomes\n1 hour | P&L check] as j10 <<scheduler>>
}

' ============================================================
' Storage
' ============================================================
database "TimescaleDB" as tsdb #ECFDF5
database "MinIO" as minio #ECFDF5

' ============================================================
' Relations
' ============================================================
' Scheduler triggers collectors
j1 - -> binance
j2 - -> binance
j2 - -> ccxt
j3 - -> coingecko
j4 - -> news
j6 - -> fng

' Collectors to transformers
binance - -> cleaner : raw OHLCV
ccxt - -> cleaner : raw OHLCV
coingecko - -> cleaner : market data
news - -> cleaner : articles

' Transformers to loaders
cleaner - -> tsloader : clean records
cleaner - -> indicators : valid OHLCV
j7 - -> indicators
indicators - -> tsloader : IndicatorRecord

' Loaders to storage
tsloader - -> tsdb
minloader - -> minio
j8 - -> minloader : daily export

' Reconciliation
j9 - -> tsloader : gap backfill
j10 - -> tsloader : signal evaluation

@enduml

@startuml C02-etl-components

skinparam backgroundColor white
skinparam defaultFontName "Segoe UI, Helvetica, Arial, sans-serif"
skinparam defaultFontSize 12
skinparam defaultFontColor #333333
skinparam shadowing false
skinparam roundCorner 6


skinparam component {
  BackgroundColor #F3EEFF
  BorderColor #7C5CFC
  FontColor #333333
  ArrowColor #4A6FA5
  StereotypeFontColor #7C5CFC
}

skinparam package {
  BackgroundColor #F5F5F5
  BorderColor #4A6FA5
  FontColor #333333
}

skinparam class {
  BackgroundColor #ECFDF5
  BorderColor #34A853
  FontColor #333333
  HeaderBackgroundColor #34A853
  HeaderFontColor white
  ArrowColor #4A6FA5
  StereotypeFontColor #7C5CFC
  AttributeFontColor #555555
}

skinparam sequence {
  ArrowColor #4A6FA5
  ActorBorderColor #7C5CFC
  LifeLineBorderColor #CCCCCC
  LifeLineBackgroundColor #F5F5F5
  ParticipantBorderColor #4A6FA5
  ParticipantBackgroundColor #F3EEFF
  ParticipantFontColor #333333
  BoxBorderColor #CCCCCC
  BoxBackgroundColor #F5F5F5
  DividerBackgroundColor #4A6FA5
  DividerFontColor white
}

skinparam activity {
  BackgroundColor #FEF3E8
  BorderColor #E8943A
  FontColor #333333
  ArrowColor #4A6FA5
  DiamondBackgroundColor #F3EEFF
  DiamondBorderColor #7C5CFC
}

skinparam node {
  BackgroundColor #F3EEFF
  BorderColor #7C5CFC
  FontColor #333333
}

skinparam database {
  BackgroundColor #ECFDF5
  BorderColor #34A853
  FontColor #333333
}

skinparam entity {
  BackgroundColor white
  BorderColor #4A6FA5
  FontColor #333333
  HeaderBackgroundColor #4A6FA5
  HeaderFontColor white
}

skinparam state {
  BackgroundColor #FEF3E8
  BorderColor #E8943A
  FontColor #333333
  ArrowColor #4A6FA5
}

skinparam usecase {
  BackgroundColor #F3EEFF
  BorderColor #7C5CFC
  FontColor #333333
  ArrowColor #4A6FA5
  ActorBorderColor #E8943A
}

skinparam note {
  BackgroundColor #FEF3E8
  BorderColor #E8943A
  FontColor #333333
}

skinparam legend {
  BackgroundColor #F5F5F5
  BorderColor #CCCCCC
  FontColor #333333
}



title CryptoBot — Sous-systeme ETL
caption src/etl/ | 5 collectors, 2 transformers, 2 loaders, 10 jobs

package "Collectors" as coll #FEF3E8 {
  [BinanceCollector\nREST + WebSocket\nfetch_ohlcv(symbols, tf, limit)] as binance <<collector>>
  [CoinGeckoCollector\nDemo API\nfetch_market_data(symbols)] as coingecko <<collector>>
  [CCXTCollector\nMulti-exchange\nfetch_ohlcv(symbol, tf)] as ccxt <<collector>>
  [NewsCollector\nRSS: Decrypt, Cointelegraph\nfetch_news(sources, keywords)] as news <<collector>>
  [FearGreedCollector\nAlternative.me\nfetch_fear_greed()] as fng <<collector>>
}

package "Transformers" as trans #F3EEFF {
  [cleaner.py\ndeduplicate_ohlcv()\nvalidate_ohlcv_relationships()\nfilter_valid_records()\ndetect_gaps()] as cleaner <<transformer>>
  [indicators.py\ncompute_rsi(period=14)\ncompute_bollinger_bands(20, 2std)\ncompute_price_vs_bollinger()\ncompute_trend(slope + type)] as indicators <<transformer>>
}

package "Loaders" as load #ECFDF5 {
  [timescaledb.py\ninsert_ohlcv_batch()\ninsert_indicators_batch()\ninsert_news_batch()\nfetch_ohlcv_for_indicators()\ndetect_gaps()] as tsloader <<loader>>
  [minio_loader.py\nupload_ohlcv_parquet()\nupload_dataset_parquet()\nupload_raw_json()\ndownload_dataframe()] as minloader <<loader>>
}

package "APScheduler (10 jobs)" as sched #F5F5F5 {
  [collect_ohlcv_priority\n1 min | 13 symbols] as j1 <<scheduler>>
  [collect_ohlcv_all\n5 min | all symbols] as j2 <<scheduler>>
  [collect_market_data\n5 min | CoinGecko] as j3 <<scheduler>>
  [collect_news\n15 min | RSS feeds] as j4 <<scheduler>>
  [enrich_news_nlp\n20 min | sentiment] as j5 <<scheduler>>
  [collect_fear_greed\n1 hour] as j6 <<scheduler>>
  [compute_indicators\n5 min | RSI, BB, trend] as j7 <<scheduler>>
  [export_datasets\ndaily 03:00 UTC] as j8 <<scheduler>>
  [reconciliation\n1 hour | gap detection] as j9 <<scheduler>>
  [evaluate_signal_outcomes\n1 hour | P&L check] as j10 <<scheduler>>
}

database "TimescaleDB" as tsdb #ECFDF5
database "MinIO" as minio #ECFDF5

j1 - -> binance
j2 - -> binance
j2 - -> ccxt
j3 - -> coingecko
j4 - -> news
j6 - -> fng

binance - -> cleaner : raw OHLCV
ccxt - -> cleaner : raw OHLCV
coingecko - -> cleaner : market data
news - -> cleaner : articles

cleaner - -> tsloader : clean records
cleaner - -> indicators : valid OHLCV
j7 - -> indicators
indicators - -> tsloader : IndicatorRecord

tsloader - -> tsdb
minloader - -> minio
j8 - -> minloader : daily export

j9 - -> tsloader : gap backfill
j10 - -> tsloader : signal evaluation

@enduml

PlantUML version 1.2022.6(Tue Jun 21 19:34:49 CEST 2022)
(GPL source distribution)
Java Runtime: OpenJDK Runtime Environment
JVM: OpenJDK 64-Bit Server VM
Default Encoding: UTF-8
Language: en
Country: US
--></g></svg>