<?xml version="1.0" encoding="UTF-8" standalone="no"?><svg xmlns="http://www.w3.org/2000/svg" xmlns:xlink="http://www.w3.org/1999/xlink" contentStyleType="text/css" height="1068px" preserveAspectRatio="none" style="width:1573px;height:1068px;background:#FFFFFF;" version="1.1" viewBox="0 0 1573 1068" width="1573px" zoomAndPan="magnify"><defs/><g><rect fill="#FFFFFF" height="26.2969" rx="3" ry="3" style="stroke:#00000000;stroke-width:1.0;" width="307" x="626" y="5"/><text fill="#333333" font-family="&quot;Segoe UI, Helvetica, Arial, sans-serif&quot;" font-size="14" font-weight="bold" lengthAdjust="spacing" textLength="297" x="631" y="22.9951">CryptoBot — Architecture ML Phase 2</text><!--MD5=[023fe2768d341cd525e8503fdfbee177]
cluster Data Layer--><g id="cluster_Data Layer"><path d="M257,631.7969 L335,631.7969 A4.5,4.5 0 0 1 338,634.7969 L345,651.7656 L574,651.7656 A3,3 0 0 1 577,654.7656 L577,763.7969 A3,3 0 0 1 574,766.7969 L257,766.7969 A3,3 0 0 1 254,763.7969 L254,634.7969 A3,3 0 0 1 257,631.7969 " fill="#ECFDF5" style="stroke:#4A6FA5;stroke-width:1.5;"/><line style="stroke:#4A6FA5;stroke-width:1.5;" x1="254" x2="345" y1="651.7656" y2="651.7656"/><text fill="#333333" font-family="&quot;Segoe UI, Helvetica, Arial, sans-serif&quot;" font-size="12" font-weight="bold" lengthAdjust="spacing" textLength="78" x="258" y="644.9355">Data Layer</text></g><!--MD5=[e088df62da12c686346ef3ab12b0bad2]
cluster Feature Engineering--><g id="cluster_Feature Engineering"><path d="M1079,399.2969 L1224,399.2969 A4.5,4.5 0 0 1 1227,402.2969 L1234,419.2656 L1313,419.2656 A3,3 0 0 1 1316,422.2656 L1316,574.2969 A3,3 0 0 1 1313,577.2969 L1079,577.2969 A3,3 0 0 1 1076,574.2969 L1076,402.2969 A3,3 0 0 1 1079,399.2969 " fill="#FEF3E8" style="stroke:#4A6FA5;stroke-width:1.5;"/><line style="stroke:#4A6FA5;stroke-width:1.5;" x1="1076" x2="1234" y1="419.2656" y2="419.2656"/><text fill="#333333" font-family="&quot;Segoe UI, Helvetica, Arial, sans-serif&quot;" font-size="12" font-weight="bold" lengthAdjust="spacing" textLength="145" x="1080" y="412.4355">Feature Engineering</text></g><!--MD5=[d1509807973fdbc70e3303c1478e6274]
cluster Supervised Models--><g id="cluster_Supervised Models"><path d="M460,420.2969 L594,420.2969 A4.5,4.5 0 0 1 597,423.2969 L604,440.2656 L1049,440.2656 A3,3 0 0 1 1052,443.2656 L1052,553.2969 A3,3 0 0 1 1049,556.2969 L460,556.2969 A3,3 0 0 1 457,553.2969 L457,423.2969 A3,3 0 0 1 460,420.2969 " fill="#F3EEFF" style="stroke:#4A6FA5;stroke-width:1.5;"/><line style="stroke:#4A6FA5;stroke-width:1.5;" x1="457" x2="604" y1="440.2656" y2="440.2656"/><text fill="#333333" font-family="&quot;Segoe UI, Helvetica, Arial, sans-serif&quot;" font-size="12" font-weight="bold" lengthAdjust="spacing" textLength="134" x="461" y="433.4355">Supervised Models</text></g><!--MD5=[d4b8c935744b3a181673d267f024a07d]
cluster Training Pipeline--><g id="cluster_Training Pipeline"><path d="M1343,43.2969 L1462,43.2969 A4.5,4.5 0 0 1 1465,46.2969 L1472,63.2656 L1563,63.2656 A3,3 0 0 1 1566,66.2656 L1566,567.2969 A3,3 0 0 1 1563,570.2969 L1343,570.2969 A3,3 0 0 1 1340,567.2969 L1340,46.2969 A3,3 0 0 1 1343,43.2969 " fill="#FEF3E8" style="stroke:#4A6FA5;stroke-width:1.5;"/><line style="stroke:#4A6FA5;stroke-width:1.5;" x1="1340" x2="1472" y1="63.2656" y2="63.2656"/><text fill="#333333" font-family="&quot;Segoe UI, Helvetica, Arial, sans-serif&quot;" font-size="12" font-weight="bold" lengthAdjust="spacing" textLength="119" x="1344" y="56.4355">Training Pipeline</text></g><!--MD5=[208a4a50a01bce150acb8e79a631cc50]
cluster MLOps--><g id="cluster_MLOps"><path d="M9,413.2969 L57,413.2969 A4.5,4.5 0 0 1 60,416.2969 L67,433.2656 L430,433.2656 A3,3 0 0 1 433,436.2656 L433,560.2969 A3,3 0 0 1 430,563.2969 L9,563.2969 A3,3 0 0 1 6,560.2969 L6,416.2969 A3,3 0 0 1 9,413.2969 " fill="#F5F5F5" style="stroke:#4A6FA5;stroke-width:1.5;"/><line style="stroke:#4A6FA5;stroke-width:1.5;" x1="6" x2="67" y1="433.2656" y2="433.2656"/><text fill="#333333" font-family="&quot;Segoe UI, Helvetica, Arial, sans-serif&quot;" font-size="12" font-weight="bold" lengthAdjust="spacing" textLength="48" x="10" y="426.4355">MLOps</text></g><!--MD5=[e488546fbd22c4bc1b084de714ddbc25]
cluster Inference--><g id="cluster_Inference"><path d="M607,624.2969 L674,624.2969 A4.5,4.5 0 0 1 677,627.2969 L684,644.2656 L863,644.2656 A3,3 0 0 1 866,647.2656 L866,918.2969 A3,3 0 0 1 863,921.2969 L607,921.2969 A3,3 0 0 1 604,918.2969 L604,627.2969 A3,3 0 0 1 607,624.2969 " fill="#ECFDF5" style="stroke:#4A6FA5;stroke-width:1.5;"/><line style="stroke:#4A6FA5;stroke-width:1.5;" x1="604" x2="684" y1="644.2656" y2="644.2656"/><text fill="#333333" font-family="&quot;Segoe UI, Helvetica, Arial, sans-serif&quot;" font-size="12" font-weight="bold" lengthAdjust="spacing" textLength="67" x="608" y="637.4355">Inference</text></g><!--MD5=[5f5753442e7fadb4fd16694c78ce39f0]
entity tsdb--><g id="elem_tsdb"><path d="M421,696.7969 C421,686.7969 491,686.7969 491,686.7969 C491,686.7969 561,686.7969 561,696.7969 L561,733.7344 C561,743.7344 491,743.7344 491,743.7344 C491,743.7344 421,743.7344 421,733.7344 L421,696.7969 " fill="#ECFDF5" style="stroke:#34A853;stroke-width:0.5;"/><path d="M421,696.7969 C421,706.7969 491,706.7969 491,706.7969 C491,706.7969 561,706.7969 561,696.7969 " fill="none" style="stroke:#34A853;stroke-width:0.5;"/><text fill="#333333" font-family="&quot;Segoe UI, Helvetica, Arial, sans-serif&quot;" font-size="12" lengthAdjust="spacing" textLength="79" x="431" y="721.9355">TimescaleDB</text><text fill="#333333" font-family="&quot;Segoe UI, Helvetica, Arial, sans-serif&quot;" font-size="12" lengthAdjust="spacing" textLength="120" x="431" y="735.9043">OHLCV + Indicators</text></g><!--MD5=[dd69d516781b0f0936e849bb07507e10]
entity minio--><g id="elem_minio"><path d="M270,689.7969 C270,679.7969 328,679.7969 328,679.7969 C328,679.7969 386,679.7969 386,689.7969 L386,740.7031 C386,750.7031 328,750.7031 328,750.7031 C328,750.7031 270,750.7031 270,740.7031 L270,689.7969 " fill="#ECFDF5" style="stroke:#34A853;stroke-width:0.5;"/><path d="M270,689.7969 C270,699.7969 328,699.7969 328,699.7969 C328,699.7969 386,699.7969 386,689.7969 " fill="none" style="stroke:#34A853;stroke-width:0.5;"/><text fill="#333333" font-family="&quot;Segoe UI, Helvetica, Arial, sans-serif&quot;" font-size="12" lengthAdjust="spacing" textLength="33" x="280" y="714.9355">MinIO</text><text fill="#333333" font-family="&quot;Segoe UI, Helvetica, Arial, sans-serif&quot;" font-size="12" lengthAdjust="spacing" textLength="96" x="280" y="728.9043">Datasets (DVC)</text><text fill="#333333" font-family="&quot;Segoe UI, Helvetica, Arial, sans-serif&quot;" font-size="12" lengthAdjust="spacing" textLength="93" x="280" y="742.873">Model artifacts</text></g><!--MD5=[5f45c85834fcf117d4b10d7627790616]
entity features--><g id="elem_features"><rect fill="#F3EEFF" height="113.8125" rx="3" ry="3" style="stroke:#7C5CFC;stroke-width:0.5;" width="207" x="1092.5" y="447.2969"/><rect fill="#F3EEFF" height="10" style="stroke:#7C5CFC;stroke-width:0.5;" width="15" x="1279.5" y="452.2969"/><rect fill="#F3EEFF" height="2" style="stroke:#7C5CFC;stroke-width:0.5;" width="4" x="1277.5" y="454.2969"/><rect fill="#F3EEFF" height="2" style="stroke:#7C5CFC;stroke-width:0.5;" width="4" x="1277.5" y="458.2969"/><text fill="#333333" font-family="&quot;Segoe UI, Helvetica, Arial, sans-serif&quot;" font-size="12" lengthAdjust="spacing" textLength="92" x="1107.5" y="478.4355">FeatureBuilder</text><text fill="#333333" font-family="&quot;Segoe UI, Helvetica, Arial, sans-serif&quot;" font-size="12" lengthAdjust="spacing" textLength="104" x="1107.5" y="492.4043">RSI by timeframe</text><text fill="#333333" font-family="&quot;Segoe UI, Helvetica, Arial, sans-serif&quot;" font-size="12" lengthAdjust="spacing" textLength="167" x="1107.5" y="506.373">BB position, squeeze width</text><text fill="#333333" font-family="&quot;Segoe UI, Helvetica, Arial, sans-serif&quot;" font-size="12" lengthAdjust="spacing" textLength="124" x="1107.5" y="520.3418">trend slope, volume</text><text fill="#333333" font-family="&quot;Segoe UI, Helvetica, Arial, sans-serif&quot;" font-size="12" lengthAdjust="spacing" textLength="121" x="1107.5" y="534.3105">Fear &amp; Greed index</text><text fill="#333333" font-family="&quot;Segoe UI, Helvetica, Arial, sans-serif&quot;" font-size="12" lengthAdjust="spacing" textLength="102" x="1107.5" y="548.2793">sentiment score</text></g><!--MD5=[6b3140a6a3413d310b94b5c6ee4760b0]
entity xgb--><g id="elem_xgb"><rect fill="#F3EEFF" height="71.9063" rx="3" ry="3" style="stroke:#7C5CFC;stroke-width:0.5;" width="161" x="473.5" y="468.2969"/><rect fill="#F3EEFF" height="10" style="stroke:#7C5CFC;stroke-width:0.5;" width="15" x="614.5" y="473.2969"/><rect fill="#F3EEFF" height="2" style="stroke:#7C5CFC;stroke-width:0.5;" width="4" x="612.5" y="475.2969"/><rect fill="#F3EEFF" height="2" style="stroke:#7C5CFC;stroke-width:0.5;" width="4" x="612.5" y="479.2969"/><text fill="#333333" font-family="&quot;Segoe UI, Helvetica, Arial, sans-serif&quot;" font-size="12" lengthAdjust="spacing" textLength="52" x="488.5" y="499.4355">XGBoost</text><text fill="#333333" font-family="&quot;Segoe UI, Helvetica, Arial, sans-serif&quot;" font-size="12" lengthAdjust="spacing" textLength="112" x="488.5" y="513.4043">gradient boosting</text><text fill="#333333" font-family="&quot;Segoe UI, Helvetica, Arial, sans-serif&quot;" font-size="12" lengthAdjust="spacing" textLength="121" x="488.5" y="527.373">feature importance</text></g><!--MD5=[ecd1d51109813becd70817d3388ffe3c]
entity lgbm--><g id="elem_lgbm"><rect fill="#F3EEFF" height="71.9063" rx="3" ry="3" style="stroke:#7C5CFC;stroke-width:0.5;" width="163" x="669.5" y="468.2969"/><rect fill="#F3EEFF" height="10" style="stroke:#7C5CFC;stroke-width:0.5;" width="15" x="812.5" y="473.2969"/><rect fill="#F3EEFF" height="2" style="stroke:#7C5CFC;stroke-width:0.5;" width="4" x="810.5" y="475.2969"/><rect fill="#F3EEFF" height="2" style="stroke:#7C5CFC;stroke-width:0.5;" width="4" x="810.5" y="479.2969"/><text fill="#333333" font-family="&quot;Segoe UI, Helvetica, Arial, sans-serif&quot;" font-size="12" lengthAdjust="spacing" textLength="57" x="684.5" y="499.4355">LightGBM</text><text fill="#333333" font-family="&quot;Segoe UI, Helvetica, Arial, sans-serif&quot;" font-size="12" lengthAdjust="spacing" textLength="76" x="684.5" y="513.4043">fast training</text><text fill="#333333" font-family="&quot;Segoe UI, Helvetica, Arial, sans-serif&quot;" font-size="12" lengthAdjust="spacing" textLength="123" x="684.5" y="527.373">categorical support</text></g><!--MD5=[d0f179655e3d4b626c6d0246590d1958]
entity lstm--><g id="elem_lstm"><rect fill="#F3EEFF" height="71.9063" rx="3" ry="3" style="stroke:#7C5CFC;stroke-width:0.5;" width="169" x="867.5" y="468.2969"/><rect fill="#F3EEFF" height="10" style="stroke:#7C5CFC;stroke-width:0.5;" width="15" x="1016.5" y="473.2969"/><rect fill="#F3EEFF" height="2" style="stroke:#7C5CFC;stroke-width:0.5;" width="4" x="1014.5" y="475.2969"/><rect fill="#F3EEFF" height="2" style="stroke:#7C5CFC;stroke-width:0.5;" width="4" x="1014.5" y="479.2969"/><text fill="#333333" font-family="&quot;Segoe UI, Helvetica, Arial, sans-serif&quot;" font-size="12" lengthAdjust="spacing" textLength="31" x="882.5" y="499.4355">LSTM</text><text fill="#333333" font-family="&quot;Segoe UI, Helvetica, Arial, sans-serif&quot;" font-size="12" lengthAdjust="spacing" textLength="129" x="882.5" y="513.4043">sequence prediction</text><text fill="#333333" font-family="&quot;Segoe UI, Helvetica, Arial, sans-serif&quot;" font-size="12" lengthAdjust="spacing" textLength="118" x="882.5" y="527.373">multi-step forecast</text></g><!--MD5=[39eb939827a913479fb02a80328eaa5e]
entity trainer--><g id="elem_trainer"><rect fill="#F3EEFF" height="85.875" rx="3" ry="3" style="stroke:#7C5CFC;stroke-width:0.5;" width="185" x="1355.5" y="252.2969"/><rect fill="#F3EEFF" height="10" style="stroke:#7C5CFC;stroke-width:0.5;" width="15" x="1520.5" y="257.2969"/><rect fill="#F3EEFF" height="2" style="stroke:#7C5CFC;stroke-width:0.5;" width="4" x="1518.5" y="259.2969"/><rect fill="#F3EEFF" height="2" style="stroke:#7C5CFC;stroke-width:0.5;" width="4" x="1518.5" y="263.2969"/><text fill="#333333" font-family="&quot;Segoe UI, Helvetica, Arial, sans-serif&quot;" font-size="12" lengthAdjust="spacing" textLength="44" x="1370.5" y="283.4355">Trainer</text><text fill="#333333" font-family="&quot;Segoe UI, Helvetica, Arial, sans-serif&quot;" font-size="12" lengthAdjust="spacing" textLength="137" x="1370.5" y="297.4043">train(features, labels)</text><text fill="#333333" font-family="&quot;Segoe UI, Helvetica, Arial, sans-serif&quot;" font-size="12" lengthAdjust="spacing" textLength="145" x="1370.5" y="311.373">hyperparameter tuning</text><text fill="#333333" font-family="&quot;Segoe UI, Helvetica, Arial, sans-serif&quot;" font-size="12" lengthAdjust="spacing" textLength="98" x="1370.5" y="325.3418">cross-validation</text></g><!--MD5=[9d134707e8993718a6ca7a2de35c42a0]
entity backtester--><g id="elem_backtester"><rect fill="#F3EEFF" height="99.8438" rx="3" ry="3" style="stroke:#7C5CFC;stroke-width:0.5;" width="195" x="1355.5" y="454.2969"/><rect fill="#F3EEFF" height="10" style="stroke:#7C5CFC;stroke-width:0.5;" width="15" x="1530.5" y="459.2969"/><rect fill="#F3EEFF" height="2" style="stroke:#7C5CFC;stroke-width:0.5;" width="4" x="1528.5" y="461.2969"/><rect fill="#F3EEFF" height="2" style="stroke:#7C5CFC;stroke-width:0.5;" width="4" x="1528.5" y="465.2969"/><text fill="#333333" font-family="&quot;Segoe UI, Helvetica, Arial, sans-serif&quot;" font-size="12" lengthAdjust="spacing" textLength="155" x="1370.5" y="485.4355">Walk-Forward Backtester</text><text fill="#333333" font-family="&quot;Segoe UI, Helvetica, Arial, sans-serif&quot;" font-size="12" lengthAdjust="spacing" textLength="134" x="1370.5" y="499.4043">6-month train window</text><text fill="#333333" font-family="&quot;Segoe UI, Helvetica, Arial, sans-serif&quot;" font-size="12" lengthAdjust="spacing" textLength="130" x="1370.5" y="513.373">1-month test window</text><text fill="#333333" font-family="&quot;Segoe UI, Helvetica, Arial, sans-serif&quot;" font-size="12" lengthAdjust="spacing" textLength="122" x="1370.5" y="527.3418">temporal-only splits</text><text fill="#333333" font-family="&quot;Segoe UI, Helvetica, Arial, sans-serif&quot;" font-size="12" lengthAdjust="spacing" textLength="111" x="1370.5" y="541.3105">purge + embargo</text></g><!--MD5=[db7d60ea5f452e865b0767004d13ae5c]
entity drift--><g id="elem_drift"><rect fill="#F3EEFF" height="85.875" rx="3" ry="3" style="stroke:#7C5CFC;stroke-width:0.5;" width="170" x="1359" y="91.2969"/><rect fill="#F3EEFF" height="10" style="stroke:#7C5CFC;stroke-width:0.5;" width="15" x="1509" y="96.2969"/><rect fill="#F3EEFF" height="2" style="stroke:#7C5CFC;stroke-width:0.5;" width="4" x="1507" y="98.2969"/><rect fill="#F3EEFF" height="2" style="stroke:#7C5CFC;stroke-width:0.5;" width="4" x="1507" y="102.2969"/><text fill="#333333" font-family="&quot;Segoe UI, Helvetica, Arial, sans-serif&quot;" font-size="12" lengthAdjust="spacing" textLength="85" x="1374" y="122.4355">Drift Detector</text><text fill="#333333" font-family="&quot;Segoe UI, Helvetica, Arial, sans-serif&quot;" font-size="12" lengthAdjust="spacing" textLength="121" x="1374" y="136.4043">feature distribution</text><text fill="#333333" font-family="&quot;Segoe UI, Helvetica, Arial, sans-serif&quot;" font-size="12" lengthAdjust="spacing" textLength="122" x="1374" y="150.373">model performance</text><text fill="#333333" font-family="&quot;Segoe UI, Helvetica, Arial, sans-serif&quot;" font-size="12" lengthAdjust="spacing" textLength="130" x="1374" y="164.3418">alert on degradation</text></g><!--MD5=[e3a56af7e226478f972bb17db43d1d10]
entity mlflow--><g id="elem_mlflow"><rect fill="#F3EEFF" height="85.875" rx="3" ry="3" style="stroke:#7C5CFC;stroke-width:0.5;" width="178" x="239" y="461.2969"/><rect fill="#F3EEFF" height="10" style="stroke:#7C5CFC;stroke-width:0.5;" width="15" x="397" y="466.2969"/><rect fill="#F3EEFF" height="2" style="stroke:#7C5CFC;stroke-width:0.5;" width="4" x="395" y="468.2969"/><rect fill="#F3EEFF" height="2" style="stroke:#7C5CFC;stroke-width:0.5;" width="4" x="395" y="472.2969"/><text fill="#333333" font-family="&quot;Segoe UI, Helvetica, Arial, sans-serif&quot;" font-size="12" lengthAdjust="spacing" textLength="40" x="254" y="492.4355">MLflow</text><text fill="#333333" font-family="&quot;Segoe UI, Helvetica, Arial, sans-serif&quot;" font-size="12" lengthAdjust="spacing" textLength="125" x="254" y="506.4043">Experiment tracking</text><text fill="#333333" font-family="&quot;Segoe UI, Helvetica, Arial, sans-serif&quot;" font-size="12" lengthAdjust="spacing" textLength="88" x="254" y="520.373">Model registry</text><text fill="#333333" font-family="&quot;Segoe UI, Helvetica, Arial, sans-serif&quot;" font-size="12" lengthAdjust="spacing" textLength="138" x="254" y="534.3418">Staging -&gt; Production</text></g><!--MD5=[5ca40706a446a5f6ff4ec6c3ab4bd468]
entity dvc--><g id="elem_dvc"><rect fill="#F3EEFF" height="85.875" rx="3" ry="3" style="stroke:#7C5CFC;stroke-width:0.5;" width="182" x="22" y="461.2969"/><rect fill="#F3EEFF" height="10" style="stroke:#7C5CFC;stroke-width:0.5;" width="15" x="184" y="466.2969"/><rect fill="#F3EEFF" height="2" style="stroke:#7C5CFC;stroke-width:0.5;" width="4" x="182" y="468.2969"/><rect fill="#F3EEFF" height="2" style="stroke:#7C5CFC;stroke-width:0.5;" width="4" x="182" y="472.2969"/><text fill="#333333" font-family="&quot;Segoe UI, Helvetica, Arial, sans-serif&quot;" font-size="12" lengthAdjust="spacing" textLength="25" x="37" y="492.4355">DVC</text><text fill="#333333" font-family="&quot;Segoe UI, Helvetica, Arial, sans-serif&quot;" font-size="12" lengthAdjust="spacing" textLength="118" x="37" y="506.4043">Dataset versioning</text><text fill="#333333" font-family="&quot;Segoe UI, Helvetica, Arial, sans-serif&quot;" font-size="12" lengthAdjust="spacing" textLength="142" x="37" y="520.373">Reproducible pipelines</text><text fill="#333333" font-family="&quot;Segoe UI, Helvetica, Arial, sans-serif&quot;" font-size="12" lengthAdjust="spacing" textLength="91" x="37" y="534.3418">MinIO backend</text></g><!--MD5=[bb7629110e618a553659f96f5c10270c]
entity predictor--><g id="elem_predictor"><rect fill="#F3EEFF" height="85.875" rx="3" ry="3" style="stroke:#7C5CFC;stroke-width:0.5;" width="231" x="619.5" y="672.2969"/><rect fill="#F3EEFF" height="10" style="stroke:#7C5CFC;stroke-width:0.5;" width="15" x="830.5" y="677.2969"/><rect fill="#F3EEFF" height="2" style="stroke:#7C5CFC;stroke-width:0.5;" width="4" x="828.5" y="679.2969"/><rect fill="#F3EEFF" height="2" style="stroke:#7C5CFC;stroke-width:0.5;" width="4" x="828.5" y="683.2969"/><text fill="#333333" font-family="&quot;Segoe UI, Helvetica, Arial, sans-serif&quot;" font-size="12" lengthAdjust="spacing" textLength="57" x="634.5" y="703.4355">Predictor</text><text fill="#333333" font-family="&quot;Segoe UI, Helvetica, Arial, sans-serif&quot;" font-size="12" lengthAdjust="spacing" textLength="152" x="634.5" y="717.4043">load model from registry</text><text fill="#333333" font-family="&quot;Segoe UI, Helvetica, Arial, sans-serif&quot;" font-size="12" lengthAdjust="spacing" textLength="107" x="634.5" y="731.373">predict(features)</text><text fill="#333333" font-family="&quot;Segoe UI, Helvetica, Arial, sans-serif&quot;" font-size="12" lengthAdjust="spacing" textLength="191" x="634.5" y="745.3418">return {direction, confidence}</text></g><!--MD5=[25d507d6edd5f10178a33a1ffd573b92]
entity siggen--><g id="elem_siggen"><rect fill="#F3EEFF" height="71.9063" rx="3" ry="3" style="stroke:#7C5CFC;stroke-width:0.5;" width="199" x="635.5" y="833.2969"/><rect fill="#F3EEFF" height="10" style="stroke:#7C5CFC;stroke-width:0.5;" width="15" x="814.5" y="838.2969"/><rect fill="#F3EEFF" height="2" style="stroke:#7C5CFC;stroke-width:0.5;" width="4" x="812.5" y="840.2969"/><rect fill="#F3EEFF" height="2" style="stroke:#7C5CFC;stroke-width:0.5;" width="4" x="812.5" y="844.2969"/><text fill="#333333" font-family="&quot;Segoe UI, Helvetica, Arial, sans-serif&quot;" font-size="12" lengthAdjust="spacing" textLength="102" x="650.5" y="864.4355">SignalGenerator</text><text fill="#333333" font-family="&quot;Segoe UI, Helvetica, Arial, sans-serif&quot;" font-size="12" lengthAdjust="spacing" textLength="95" x="650.5" y="878.4043">ML blend 60/40</text><text fill="#333333" font-family="&quot;Segoe UI, Helvetica, Arial, sans-serif&quot;" font-size="12" lengthAdjust="spacing" textLength="159" x="650.5" y="892.373">integration Phase 1 rules</text></g><!--MD5=[a594fa7f13d0ec14fd1f89c76adaef04]
link tsdb to features--><g id="link_tsdb_features"><path d="M513.73,686.3769 C534.52,663.0869 567.52,631.3669 604,616.2969 C609.76,613.9169 1046.02,587.0669 1052,585.2969 C1069.67,580.0569 1087.57,572.3869 1104.46,563.8469 " fill="none" id="tsdb-to-features" style="stroke:#4A6FA5;stroke-width:1.0;"/><polygon fill="#4A6FA5" points="1109.2,561.4169,1099.3664,561.9645,1104.7509,563.6985,1103.0169,569.083,1109.2,561.4169" style="stroke:#4A6FA5;stroke-width:1.0;"/><text fill="#333333" font-family="&quot;Segoe UI, Helvetica, Arial, sans-serif&quot;" font-size="12" lengthAdjust="spacing" textLength="55" x="931" y="605.4355">raw data</text></g><!--MD5=[e12340b874c3ac767701db14136cccbb]
link features to trainer--><g id="link_features_trainer"><path d="M1258.4,446.9869 C1286.3,422.3269 1319.86,393.3469 1351,368.2969 C1361.99,359.4569 1373.9,350.2969 1385.48,341.5869 " fill="none" id="features-to-trainer" style="stroke:#4A6FA5;stroke-width:1.0;"/><polygon fill="#4A6FA5" points="1389.73,338.3969,1380.13,340.5969,1385.73,341.3969,1384.93,346.9969,1389.73,338.3969" style="stroke:#4A6FA5;stroke-width:1.0;"/><text fill="#333333" font-family="&quot;Segoe UI, Helvetica, Arial, sans-serif&quot;" font-size="12" lengthAdjust="spacing" textLength="88" x="1352" y="380.4355">feature matrix</text></g><!--MD5=[3bead03dd592aefb41f81285c6d6d2f6]
link features to predictor--><g id="link_features_predictor"><path d="M1096.88,561.3869 C1081.92,569.5569 1066.61,577.7469 1052,585.2969 C988.85,617.9269 915.49,648.2369 855.26,671.2569 " fill="none" id="features-to-predictor" style="stroke:#4A6FA5;stroke-width:1.0;"/><polygon fill="#4A6FA5" points="850.58,673.0469,860.415,673.5696,855.2504,671.2616,857.5585,666.097,850.58,673.0469" style="stroke:#4A6FA5;stroke-width:1.0;"/><text fill="#333333" font-family="&quot;Segoe UI, Helvetica, Arial, sans-serif&quot;" font-size="12" lengthAdjust="spacing" textLength="77" x="1036" y="605.4355">live features</text></g><!--MD5=[adff45e5e274ede6e6b790ae45285f69]
link trainer to xgb--><g id="link_trainer_xgb"><path d="M1355.24,298.6969 C1172,304.8269 771.01,325.5669 652,391.2969 C621.21,408.2969 595.46,438.8869 578.09,463.8069 " fill="none" id="trainer-to-xgb" style="stroke:#4A6FA5;stroke-width:1.0;"/><polygon fill="#4A6FA5" points="575.16,468.0669,583.5549,462.9166,577.9926,463.9467,576.9626,458.3844,575.16,468.0669" style="stroke:#4A6FA5;stroke-width:1.0;"/><text fill="#333333" font-family="&quot;Segoe UI, Helvetica, Arial, sans-serif&quot;" font-size="12" lengthAdjust="spacing" textLength="29" x="699" y="380.4355">train</text></g><!--MD5=[835e64e459bbc9a5a1c0618211b4475e]
link trainer to lgbm--><g id="link_trainer_lgbm"><path d="M1355.4,298.8969 C1210.56,304.3869 938.31,320.8669 855,368.2969 C816.77,390.0669 787.87,432.0869 770.35,463.4969 " fill="none" id="trainer-to-lgbm" style="stroke:#4A6FA5;stroke-width:1.0;"/><polygon fill="#4A6FA5" points="767.85,468.0469,775.6944,462.0915,770.2612,463.6667,768.6861,458.2336,767.85,468.0469" style="stroke:#4A6FA5;stroke-width:1.0;"/><text fill="#333333" font-family="&quot;Segoe UI, Helvetica, Arial, sans-serif&quot;" font-size="12" lengthAdjust="spacing" textLength="29" x="856" y="380.4355">train</text></g><!--MD5=[4cc56c49e3c9468ee666d474b83a4a68]
link trainer to lstm--><g id="link_trainer_lstm"><path d="M1355.19,307.3069 C1277.06,319.4669 1164.26,343.9569 1076,391.2969 C1041.42,409.8469 1008.77,440.0569 985.65,464.4369 " fill="none" id="trainer-to-lstm" style="stroke:#4A6FA5;stroke-width:1.0;"/><polygon fill="#4A6FA5" points="982.03,468.2969,991.1111,464.4845,985.4568,464.6559,985.2855,459.0016,982.03,468.2969" style="stroke:#4A6FA5;stroke-width:1.0;"/><text fill="#333333" font-family="&quot;Segoe UI, Helvetica, Arial, sans-serif&quot;" font-size="12" lengthAdjust="spacing" textLength="29" x="1123" y="380.4355">train</text></g><!--MD5=[d87dff193be3a313ed8355d29d7bfa50]
link trainer to mlflow--><g id="link_trainer_mlflow"><path d="M1355.2,297.6069 C1189.73,301.2669 833.39,315.2169 538,368.2969 C501.17,374.9169 489.92,373.4969 457,391.2969 C425.18,408.5069 394.4,434.7469 370.89,457.4969 " fill="none" id="trainer-to-mlflow" style="stroke:#4A6FA5;stroke-width:1.0;"/><polygon fill="#4A6FA5" points="367.18,461.1169,376.4076,457.6744,370.7511,457.6172,370.8082,451.9607,367.18,461.1169" style="stroke:#4A6FA5;stroke-width:1.0;"/><text fill="#333333" font-family="&quot;Segoe UI, Helvetica, Arial, sans-serif&quot;" font-size="12" lengthAdjust="spacing" textLength="124" x="539" y="380.4355">log metrics, params</text></g><!--MD5=[4cae58b164d98203b26ce5fa3f216f9a]
link trainer to backtester--><g id="link_trainer_backtester"><path d="M1449.02,338.4369 C1449.79,370.3169 1450.85,414.3669 1451.69,448.9069 " fill="none" id="trainer-to-backtester" style="stroke:#4A6FA5;stroke-width:1.0;"/><polygon fill="#4A6FA5" points="1451.81,453.9369,1455.6033,444.8478,1451.6957,448.9382,1447.6054,445.0306,1451.81,453.9369" style="stroke:#4A6FA5;stroke-width:1.0;"/><text fill="#333333" font-family="&quot;Segoe UI, Helvetica, Arial, sans-serif&quot;" font-size="12" lengthAdjust="spacing" textLength="49" x="1451" y="380.4355">validate</text></g><!--MD5=[c2e5f32b6ff8c8da83e1f324c85ab08e]
link backtester to mlflow--><g id="link_backtester_mlflow"><path d="M1407.01,454.1469 C1382.52,431.1669 1350.39,406.3969 1316,394.2969 C1225.96,362.6269 546.56,361.2969 457,394.2969 C422.53,406.9969 391,433.4669 367.75,457.2569 " fill="none" id="backtester-to-mlflow" style="stroke:#4A6FA5;stroke-width:1.0;"/><polygon fill="#4A6FA5" points="364.09,461.0469,373.2166,457.3448,367.5607,457.4477,367.4578,451.7917,364.09,461.0469" style="stroke:#4A6FA5;stroke-width:1.0;"/><text fill="#333333" font-family="&quot;Segoe UI, Helvetica, Arial, sans-serif&quot;" font-size="12" lengthAdjust="spacing" textLength="66" x="895" y="380.4355">log results</text></g><!--MD5=[31fea2dce605cb0ba37f583f40b2f428]
link mlflow to minio--><g id="link_mlflow_minio"><path d="M328,547.3369 C328,584.3769 328,637.9469 328,674.3469 " fill="none" id="mlflow-to-minio" style="stroke:#4A6FA5;stroke-width:1.0;"/><polygon fill="#4A6FA5" points="328,679.5869,332,670.5869,328,674.5869,324,670.5869,328,679.5869" style="stroke:#4A6FA5;stroke-width:1.0;"/><text fill="#333333" font-family="&quot;Segoe UI, Helvetica, Arial, sans-serif&quot;" font-size="12" lengthAdjust="spacing" textLength="89" x="329" y="605.4355">store artifacts</text></g><!--MD5=[f516a61f350f31b29f63123f5cb7f422]
link dvc to minio--><g id="link_dvc_minio"><path d="M152.87,547.4069 C170.98,566.2669 192.83,588.6469 213,608.2969 C236.62,631.3169 263.72,656.3569 285.68,676.3169 " fill="none" id="dvc-to-minio" style="stroke:#4A6FA5;stroke-width:1.0;"/><polygon fill="#4A6FA5" points="289.43,679.7269,285.4716,670.7085,285.7342,676.3593,280.0834,676.6218,289.43,679.7269" style="stroke:#4A6FA5;stroke-width:1.0;"/><text fill="#333333" font-family="&quot;Segoe UI, Helvetica, Arial, sans-serif&quot;" font-size="12" lengthAdjust="spacing" textLength="105" x="214" y="605.4355">version datasets</text></g><!--MD5=[3cd2bf7f37697ef1fee4f5fa67cf30c7]
link mlflow to predictor--><g id="link_mlflow_predictor"><path d="M387.62,547.4969 C408.78,561.0469 433.25,575.1469 457,585.2969 C507.65,606.9469 526.35,594.6469 577,616.2969 C609.96,630.3869 644.06,650.6969 672.11,669.1769 " fill="none" id="mlflow-to-predictor" style="stroke:#4A6FA5;stroke-width:1.0;"/><polygon fill="#4A6FA5" points="676.55,672.1269,671.2605,663.819,672.3832,669.3633,666.8388,670.4859,676.55,672.1269" style="stroke:#4A6FA5;stroke-width:1.0;"/><text fill="#333333" font-family="&quot;Segoe UI, Helvetica, Arial, sans-serif&quot;" font-size="12" lengthAdjust="spacing" textLength="141" x="555" y="605.4355">load production model</text></g><!--MD5=[2869a98cf9b9d95cf08c287cef4fab7a]
link predictor to siggen--><g id="link_predictor_siggen"><path d="M735,758.6369 C735,780.2669 735,806.4569 735,827.8169 " fill="none" id="predictor-to-siggen" style="stroke:#4A6FA5;stroke-width:1.0;"/><polygon fill="#4A6FA5" points="735,832.8569,739,823.8569,735,827.8569,731,823.8569,735,832.8569" style="stroke:#4A6FA5;stroke-width:1.0;"/><text fill="#333333" font-family="&quot;Segoe UI, Helvetica, Arial, sans-serif&quot;" font-size="12" lengthAdjust="spacing" textLength="90" x="736" y="800.4355">ML predictions</text></g><!--MD5=[76ed537138c21ec9c176328935b07668]
link drift to mlflow--><g id="link_drift_mlflow"><path d="M1358.73,140.3569 C1181.81,154.0069 766.31,202.6169 466,368.2969 C425.84,390.4569 389.18,427.5069 363.75,457.1869 " fill="none" id="drift-to-mlflow" style="stroke:#4A6FA5;stroke-width:1.0;"/><polygon fill="#4A6FA5" points="360.4,461.1369,369.2771,456.871,363.6387,457.3275,363.1821,451.6891,360.4,461.1369" style="stroke:#4A6FA5;stroke-width:1.0;"/><text fill="#333333" font-family="&quot;Segoe UI, Helvetica, Arial, sans-serif&quot;" font-size="12" lengthAdjust="spacing" textLength="132" x="733" y="299.9355">monitor performance</text></g><!--MD5=[ace1a7d82c5de15b3c95e2824bf6094f]
link drift to trainer--><g id="link_drift_trainer"><path d="M1445.06,177.4869 C1445.6,198.8669 1446.25,224.8969 1446.81,246.9569 " fill="none" id="drift-to-trainer" style="stroke:#4A6FA5;stroke-width:1.0;"/><polygon fill="#4A6FA5" points="1446.94,252.1869,1450.7067,243.0867,1446.8111,247.1885,1442.7093,243.293,1446.94,252.1869" style="stroke:#4A6FA5;stroke-width:1.0;"/><text fill="#333333" font-family="&quot;Segoe UI, Helvetica, Arial, sans-serif&quot;" font-size="12" lengthAdjust="spacing" textLength="88" x="1447" y="219.4355">retrain trigger</text></g><rect fill="#F5F5F5" height="97.4844" rx="3" ry="3" style="stroke:#CCCCCC;stroke-width:1.0;" width="209" x="1342" y="935.2969"/><text fill="#333333" font-family="&quot;Segoe UI, Helvetica, Arial, sans-serif&quot;" font-size="14" font-weight="bold" lengthAdjust="spacing" textLength="62" x="1353" y="956.292">Couleur</text><text fill="#333333" font-family="&quot;Segoe UI, Helvetica, Arial, sans-serif&quot;" font-size="14" font-weight="bold" lengthAdjust="spacing" textLength="48" x="1425" y="956.292">Phase</text><rect fill="#FEF3E8" height="16.2969" style="stroke:none;stroke-width:1.0;" width="72" x="1348" y="959.5938"/><text fill="#333333" font-family="&quot;Segoe UI, Helvetica, Arial, sans-serif&quot;" font-size="14" lengthAdjust="spacing" textLength="4" x="1348" y="972.5889"> </text><text fill="#333333" font-family="&quot;Segoe UI, Helvetica, Arial, sans-serif&quot;" font-size="14" lengthAdjust="spacing" textLength="109" x="1424" y="972.5889">Pipeline training</text><rect fill="#F3EEFF" height="16.2969" style="stroke:none;stroke-width:1.0;" width="72" x="1348" y="975.8906"/><text fill="#333333" font-family="&quot;Segoe UI, Helvetica, Arial, sans-serif&quot;" font-size="14" lengthAdjust="spacing" textLength="4" x="1348" y="988.8857"> </text><text fill="#333333" font-family="&quot;Segoe UI, Helvetica, Arial, sans-serif&quot;" font-size="14" lengthAdjust="spacing" textLength="59" x="1424" y="988.8857">Modeles</text><rect fill="#ECFDF5" height="16.2969" style="stroke:none;stroke-width:1.0;" width="72" x="1348" y="992.1875"/><text fill="#333333" font-family="&quot;Segoe UI, Helvetica, Arial, sans-serif&quot;" font-size="14" lengthAdjust="spacing" textLength="4" x="1348" y="1005.1826"> </text><text fill="#333333" font-family="&quot;Segoe UI, Helvetica, Arial, sans-serif&quot;" font-size="14" lengthAdjust="spacing" textLength="117" x="1424" y="1005.1826">Data + Inference</text><rect fill="#F5F5F5" height="16.2969" style="stroke:none;stroke-width:1.0;" width="72" x="1348" y="1008.4844"/><text fill="#333333" font-family="&quot;Segoe UI, Helvetica, Arial, sans-serif&quot;" font-size="14" lengthAdjust="spacing" textLength="4" x="1348" y="1021.4795"> </text><text fill="#333333" font-family="&quot;Segoe UI, Helvetica, Arial, sans-serif&quot;" font-size="14" lengthAdjust="spacing" textLength="47" x="1424" y="1021.4795">MLOps</text><line style="stroke:#333333;stroke-width:1.0;" x1="1348" x2="1545" y1="943.2969" y2="943.2969"/><line style="stroke:#333333;stroke-width:1.0;" x1="1348" x2="1545" y1="959.5938" y2="959.5938"/><line style="stroke:#333333;stroke-width:1.0;" x1="1348" x2="1545" y1="975.8906" y2="975.8906"/><line style="stroke:#333333;stroke-width:1.0;" x1="1348" x2="1545" y1="992.1875" y2="992.1875"/><line style="stroke:#333333;stroke-width:1.0;" x1="1348" x2="1545" y1="1008.4844" y2="1008.4844"/><line style="stroke:#333333;stroke-width:1.0;" x1="1348" x2="1545" y1="1024.7813" y2="1024.7813"/><line style="stroke:#333333;stroke-width:1.0;" x1="1348" x2="1348" y1="943.2969" y2="1024.7813"/><line style="stroke:#333333;stroke-width:1.0;" x1="1420" x2="1420" y1="943.2969" y2="1024.7813"/><line style="stroke:#333333;stroke-width:1.0;" x1="1545" x2="1545" y1="943.2969" y2="1024.7813"/><rect fill="#FFFFFF" height="16.2969" rx="3" ry="3" style="stroke:#00000000;stroke-width:1.0;" width="355" x="602" y="1042.7813"/><text fill="#333333" font-family="&quot;Segoe UI, Helvetica, Arial, sans-serif&quot;" font-size="14" lengthAdjust="spacing" textLength="355" x="602" y="1055.7764">Supervised ML + LSTM + Walk-Forward Backtesting</text><!--MD5=[0e9b5b32979900390b1bfe751edb0060]
@startuml C06-phase2-ml-pipeline
!include _common.puml

title CryptoBot — Architecture ML Phase 2
caption Supervised ML + LSTM + Walk-Forward Backtesting

' ============================================================
' Data Sources
' ============================================================
package "Data Layer" #ECFDF5 {
  database "TimescaleDB\nOHLCV + Indicators" as tsdb
  database "MinIO\nDatasets (DVC)\nModel artifacts" as minio
}

' ============================================================
' Feature Engineering
' ============================================================
package "Feature Engineering" #FEF3E8 {
  [FeatureBuilder\nRSI by timeframe\nBB position, squeeze width\ntrend slope, volume\nFear & Greed index\nsentiment score] as features
}

' ============================================================
' Models
' ============================================================
package "Supervised Models" #F3EEFF {
  [XGBoost\ngradient boosting\nfeature importance] as xgb
  [LightGBM\nfast training\ncategorical support] as lgbm
  [LSTM\nsequence prediction\nmulti-step forecast] as lstm
}

' ============================================================
' Training Pipeline
' ============================================================
package "Training Pipeline" #FEF3E8 {
  [Trainer\ntrain(features, labels)\nhyperparameter tuning\ncross-validation] as trainer
  [Walk-Forward Backtester\n6-month train window\n1-month test window\ntemporal-only splits\npurge + embargo] as backtester
  [Drift Detector\nfeature distribution\nmodel performance\nalert on degradation] as drift
}

' ============================================================
' MLOps
' ============================================================
package "MLOps" #F5F5F5 {
  [MLflow\nExperiment tracking\nModel registry\nStaging -> Production] as mlflow
  [DVC\nDataset versioning\nReproducible pipelines\nMinIO backend] as dvc
}

' ============================================================
' Inference
' ============================================================
package "Inference" #ECFDF5 {
  [Predictor\nload model from registry\npredict(features)\nreturn {direction, confidence}] as predictor
  [SignalGenerator\nML blend 60/40\nintegration Phase 1 rules] as siggen
}

' ============================================================
' Relations
' ============================================================
tsdb - -> features : raw data
features - -> trainer : feature matrix
features - -> predictor : live features

trainer - -> xgb : train
trainer - -> lgbm : train
trainer - -> lstm : train

trainer - -> mlflow : log metrics, params
trainer - -> backtester : validate
backtester - -> mlflow : log results

mlflow - -> minio : store artifacts
dvc - -> minio : version datasets
mlflow - -> predictor : load production model

predictor - -> siggen : ML predictions
drift - -> mlflow : monitor performance
drift - -> trainer : retrain trigger

legend bottom right
  |= Couleur |= Phase |
  | <#FEF3E8> | Pipeline training |
  | <#F3EEFF> | Modeles |
  | <#ECFDF5> | Data + Inference |
  | <#F5F5F5> | MLOps |
endlegend

@enduml

@startuml C06-phase2-ml-pipeline

skinparam backgroundColor white
skinparam defaultFontName "Segoe UI, Helvetica, Arial, sans-serif"
skinparam defaultFontSize 12
skinparam defaultFontColor #333333
skinparam shadowing false
skinparam roundCorner 6


skinparam component {
  BackgroundColor #F3EEFF
  BorderColor #7C5CFC
  FontColor #333333
  ArrowColor #4A6FA5
  StereotypeFontColor #7C5CFC
}

skinparam package {
  BackgroundColor #F5F5F5
  BorderColor #4A6FA5
  FontColor #333333
}

skinparam class {
  BackgroundColor #ECFDF5
  BorderColor #34A853
  FontColor #333333
  HeaderBackgroundColor #34A853
  HeaderFontColor white
  ArrowColor #4A6FA5
  StereotypeFontColor #7C5CFC
  AttributeFontColor #555555
}

skinparam sequence {
  ArrowColor #4A6FA5
  ActorBorderColor #7C5CFC
  LifeLineBorderColor #CCCCCC
  LifeLineBackgroundColor #F5F5F5
  ParticipantBorderColor #4A6FA5
  ParticipantBackgroundColor #F3EEFF
  ParticipantFontColor #333333
  BoxBorderColor #CCCCCC
  BoxBackgroundColor #F5F5F5
  DividerBackgroundColor #4A6FA5
  DividerFontColor white
}

skinparam activity {
  BackgroundColor #FEF3E8
  BorderColor #E8943A
  FontColor #333333
  ArrowColor #4A6FA5
  DiamondBackgroundColor #F3EEFF
  DiamondBorderColor #7C5CFC
}

skinparam node {
  BackgroundColor #F3EEFF
  BorderColor #7C5CFC
  FontColor #333333
}

skinparam database {
  BackgroundColor #ECFDF5
  BorderColor #34A853
  FontColor #333333
}

skinparam entity {
  BackgroundColor white
  BorderColor #4A6FA5
  FontColor #333333
  HeaderBackgroundColor #4A6FA5
  HeaderFontColor white
}

skinparam state {
  BackgroundColor #FEF3E8
  BorderColor #E8943A
  FontColor #333333
  ArrowColor #4A6FA5
}

skinparam usecase {
  BackgroundColor #F3EEFF
  BorderColor #7C5CFC
  FontColor #333333
  ArrowColor #4A6FA5
  ActorBorderColor #E8943A
}

skinparam note {
  BackgroundColor #FEF3E8
  BorderColor #E8943A
  FontColor #333333
}

skinparam legend {
  BackgroundColor #F5F5F5
  BorderColor #CCCCCC
  FontColor #333333
}



title CryptoBot — Architecture ML Phase 2
caption Supervised ML + LSTM + Walk-Forward Backtesting

package "Data Layer" #ECFDF5 {
  database "TimescaleDB\nOHLCV + Indicators" as tsdb
  database "MinIO\nDatasets (DVC)\nModel artifacts" as minio
}

package "Feature Engineering" #FEF3E8 {
  [FeatureBuilder\nRSI by timeframe\nBB position, squeeze width\ntrend slope, volume\nFear & Greed index\nsentiment score] as features
}

package "Supervised Models" #F3EEFF {
  [XGBoost\ngradient boosting\nfeature importance] as xgb
  [LightGBM\nfast training\ncategorical support] as lgbm
  [LSTM\nsequence prediction\nmulti-step forecast] as lstm
}

package "Training Pipeline" #FEF3E8 {
  [Trainer\ntrain(features, labels)\nhyperparameter tuning\ncross-validation] as trainer
  [Walk-Forward Backtester\n6-month train window\n1-month test window\ntemporal-only splits\npurge + embargo] as backtester
  [Drift Detector\nfeature distribution\nmodel performance\nalert on degradation] as drift
}

package "MLOps" #F5F5F5 {
  [MLflow\nExperiment tracking\nModel registry\nStaging -> Production] as mlflow
  [DVC\nDataset versioning\nReproducible pipelines\nMinIO backend] as dvc
}

package "Inference" #ECFDF5 {
  [Predictor\nload model from registry\npredict(features)\nreturn {direction, confidence}] as predictor
  [SignalGenerator\nML blend 60/40\nintegration Phase 1 rules] as siggen
}

tsdb - -> features : raw data
features - -> trainer : feature matrix
features - -> predictor : live features

trainer - -> xgb : train
trainer - -> lgbm : train
trainer - -> lstm : train

trainer - -> mlflow : log metrics, params
trainer - -> backtester : validate
backtester - -> mlflow : log results

mlflow - -> minio : store artifacts
dvc - -> minio : version datasets
mlflow - -> predictor : load production model

predictor - -> siggen : ML predictions
drift - -> mlflow : monitor performance
drift - -> trainer : retrain trigger

legend bottom right
  |= Couleur |= Phase |
  | <#FEF3E8> | Pipeline training |
  | <#F3EEFF> | Modeles |
  | <#ECFDF5> | Data + Inference |
  | <#F5F5F5> | MLOps |
endlegend

@enduml

PlantUML version 1.2022.6(Tue Jun 21 19:34:49 CEST 2022)
(GPL source distribution)
Java Runtime: OpenJDK Runtime Environment
JVM: OpenJDK 64-Bit Server VM
Default Encoding: UTF-8
Language: en
Country: US
--></g></svg>