<?xml version="1.0" encoding="UTF-8" standalone="no"?><svg xmlns="http://www.w3.org/2000/svg" xmlns:xlink="http://www.w3.org/1999/xlink" contentStyleType="text/css" height="1214px" preserveAspectRatio="none" style="width:984px;height:1214px;background:#FFFFFF;" version="1.1" viewBox="0 0 984 1214" width="984px" zoomAndPan="magnify"><defs/><g><rect fill="#FFFFFF" height="26.2969" rx="3" ry="3" style="stroke:#00000000;stroke-width:1.0;" width="348" x="311" y="5"/><text fill="#333333" font-family="&quot;Segoe UI, Helvetica, Arial, sans-serif&quot;" font-size="14" font-weight="bold" lengthAdjust="spacing" textLength="338" x="316" y="22.9951">CryptoBot — Modeles Domaine Pydantic v2</text><!--MD5=[d99c54ceace219557a49032ce09a4f43]
cluster crypto.py--><g id="cluster_crypto.py"><path d="M9,43.2969 L76,43.2969 A4.5,4.5 0 0 1 79,46.2969 L86,63.2656 L538,63.2656 A3,3 0 0 1 541,66.2656 L541,607.2969 A3,3 0 0 1 538,610.2969 L9,610.2969 A3,3 0 0 1 6,607.2969 L6,46.2969 A3,3 0 0 1 9,43.2969 " fill="#FEF3E8" style="stroke:#4A6FA5;stroke-width:1.5;"/><line style="stroke:#4A6FA5;stroke-width:1.5;" x1="6" x2="86" y1="63.2656" y2="63.2656"/><text fill="#333333" font-family="&quot;Segoe UI, Helvetica, Arial, sans-serif&quot;" font-size="12" font-weight="bold" lengthAdjust="spacing" textLength="67" x="10" y="56.4355">crypto.py</text></g><!--MD5=[96399a09134489a7fbf653d7d74546ad]
cluster signal.py--><g id="cluster_signal.py"><path d="M132,657.2969 L197,657.2969 A4.5,4.5 0 0 1 200,660.2969 L207,677.2656 L436,677.2656 A3,3 0 0 1 439,680.2656 L439,1179.2969 A3,3 0 0 1 436,1182.2969 L132,1182.2969 A3,3 0 0 1 129,1179.2969 L129,660.2969 A3,3 0 0 1 132,657.2969 " fill="#F3EEFF" style="stroke:#4A6FA5;stroke-width:1.5;"/><line style="stroke:#4A6FA5;stroke-width:1.5;" x1="129" x2="207" y1="677.2656" y2="677.2656"/><text fill="#333333" font-family="&quot;Segoe UI, Helvetica, Arial, sans-serif&quot;" font-size="12" font-weight="bold" lengthAdjust="spacing" textLength="65" x="133" y="670.4355">signal.py</text></g><!--MD5=[752e307221841fb2a35b87a9ae7d58b5]
cluster user.py--><g id="cluster_user.py"><path d="M568,85.2969 L622,85.2969 A4.5,4.5 0 0 1 625,88.2969 L632,105.2656 L974,105.2656 A3,3 0 0 1 977,108.2656 L977,268.2969 A3,3 0 0 1 974,271.2969 L568,271.2969 A3,3 0 0 1 565,268.2969 L565,88.2969 A3,3 0 0 1 568,85.2969 " fill="#ECFDF5" style="stroke:#4A6FA5;stroke-width:1.5;"/><line style="stroke:#4A6FA5;stroke-width:1.5;" x1="565" x2="632" y1="105.2656" y2="105.2656"/><text fill="#333333" font-family="&quot;Segoe UI, Helvetica, Arial, sans-serif&quot;" font-size="12" font-weight="bold" lengthAdjust="spacing" textLength="54" x="569" y="98.4355">user.py</text></g><!--MD5=[ac5d2209f5a169a65d77d298a288f92c]
class OHLCVRecord--><g id="elem_OHLCVRecord"><rect codeLine="11" fill="#ECFDF5" height="221.5625" id="OHLCVRecord" rx="3" ry="3" style="stroke:#34A853;stroke-width:0.5;" width="233" x="21.5" y="75.2969"/><rect fill="#34A853" height="37.9375" rx="3" ry="3" style="stroke:#34A853;stroke-width:0.5;" width="233" x="21.5" y="75.2969"/><rect fill="#34A853" height="3" style="stroke:#34A853;stroke-width:0.5;" width="233" x="21.5" y="110.2344"/><rect codeLine="11" fill="none" height="221.5625" id="OHLCVRecord" rx="3" ry="3" style="stroke:#34A853;stroke-width:0.5;" width="233" x="21.5" y="75.2969"/><ellipse cx="92" cy="94.2656" fill="#ADD1B2" rx="10" ry="10" style="stroke:#181818;stroke-width:1.0;"/><path d="M93.8281,98.5156 Q93.4219,98.7188 92.9688,98.8281 Q92.5156,98.9375 92.0313,98.9375 Q90.25,98.9375 89.3125,97.7813 Q88.3906,96.6094 88.3906,94.4063 Q88.3906,92.1875 89.3125,91.0313 Q90.25,89.8594 92.0313,89.8594 Q92.5156,89.8594 92.9688,89.9688 Q93.4375,90.0625 93.8281,90.2813 L93.8281,92.2031 Q93.3906,91.7969 92.9688,91.6094 Q92.5469,91.4063 92.1094,91.4063 Q91.1563,91.4063 90.6719,92.1719 Q90.1875,92.9219 90.1875,94.4063 Q90.1875,95.875 90.6719,96.625 Q91.1563,97.375 92.1094,97.375 Q92.5469,97.375 92.9688,97.1875 Q93.3906,97 93.8281,96.5938 L93.8281,98.5156 Z " fill="#333333"/><text fill="#7C5CFC" font-family="Segoe UI, Helvetica, Arial, sans-serif" font-size="12" font-style="italic" lengthAdjust="spacing" textLength="81" x="112.5" y="91.4355">«BaseModel»</text><text fill="#555555" font-family="&quot;Segoe UI, Helvetica, Arial, sans-serif&quot;" font-size="12" lengthAdjust="spacing" textLength="84" x="111" y="105.4043">OHLCVRecord</text><line style="stroke:#34A853;stroke-width:0.5;" x1="22.5" x2="253.5" y1="113.2344" y2="113.2344"/><ellipse cx="32.5" cy="124.2344" fill="none" rx="3" ry="3" style="stroke:#038048;stroke-width:1.0;"/><text fill="#555555" font-family="&quot;Segoe UI, Helvetica, Arial, sans-serif&quot;" font-size="12" lengthAdjust="spacing" textLength="72" x="40.5" y="128.373">symbol : str</text><ellipse cx="32.5" cy="138.2031" fill="none" rx="3" ry="3" style="stroke:#038048;stroke-width:1.0;"/><text fill="#555555" font-family="&quot;Segoe UI, Helvetica, Arial, sans-serif&quot;" font-size="12" lengthAdjust="spacing" textLength="130" x="40.5" y="142.3418">price_open : Decimal</text><ellipse cx="32.5" cy="152.1719" fill="none" rx="3" ry="3" style="stroke:#038048;stroke-width:1.0;"/><text fill="#555555" font-family="&quot;Segoe UI, Helvetica, Arial, sans-serif&quot;" font-size="12" lengthAdjust="spacing" textLength="125" x="40.5" y="156.3105">price_high : Decimal</text><ellipse cx="32.5" cy="166.1406" fill="none" rx="3" ry="3" style="stroke:#038048;stroke-width:1.0;"/><text fill="#555555" font-family="&quot;Segoe UI, Helvetica, Arial, sans-serif&quot;" font-size="12" lengthAdjust="spacing" textLength="118" x="40.5" y="170.2793">price_low : Decimal</text><ellipse cx="32.5" cy="180.1094" fill="none" rx="3" ry="3" style="stroke:#038048;stroke-width:1.0;"/><text fill="#555555" font-family="&quot;Segoe UI, Helvetica, Arial, sans-serif&quot;" font-size="12" lengthAdjust="spacing" textLength="131" x="40.5" y="184.248">price_close : Decimal</text><ellipse cx="32.5" cy="194.0781" fill="none" rx="3" ry="3" style="stroke:#038048;stroke-width:1.0;"/><text fill="#555555" font-family="&quot;Segoe UI, Helvetica, Arial, sans-serif&quot;" font-size="12" lengthAdjust="spacing" textLength="135" x="40.5" y="198.2168">volume_24h : Decimal</text><ellipse cx="32.5" cy="208.0469" fill="none" rx="3" ry="3" style="stroke:#038048;stroke-width:1.0;"/><text fill="#555555" font-family="&quot;Segoe UI, Helvetica, Arial, sans-serif&quot;" font-size="12" lengthAdjust="spacing" textLength="179" x="40.5" y="212.1855">market_cap : Decimal | None</text><ellipse cx="32.5" cy="222.0156" fill="none" rx="3" ry="3" style="stroke:#038048;stroke-width:1.0;"/><text fill="#555555" font-family="&quot;Segoe UI, Helvetica, Arial, sans-serif&quot;" font-size="12" lengthAdjust="spacing" textLength="134" x="40.5" y="226.1543">timestamp : datetime</text><ellipse cx="32.5" cy="235.9844" fill="none" rx="3" ry="3" style="stroke:#038048;stroke-width:1.0;"/><text fill="#555555" font-family="&quot;Segoe UI, Helvetica, Arial, sans-serif&quot;" font-size="12" lengthAdjust="spacing" textLength="72" x="40.5" y="240.123">source : str</text><ellipse cx="32.5" cy="249.9531" fill="none" rx="3" ry="3" style="stroke:#038048;stroke-width:1.0;"/><text fill="#555555" font-family="&quot;Segoe UI, Helvetica, Arial, sans-serif&quot;" font-size="12" lengthAdjust="spacing" textLength="92" x="40.5" y="254.0918">timeframe : str</text><line style="stroke:#34A853;stroke-width:1.0;" x1="22.5" x2="253.5" y1="260.9219" y2="260.9219"/><text fill="#555555" font-family="&quot;Segoe UI, Helvetica, Arial, sans-serif&quot;" font-size="12" lengthAdjust="spacing" textLength="221" x="27.5" y="276.0605">«validator» price_high &gt;= price_low</text><text fill="#555555" font-family="&quot;Segoe UI, Helvetica, Arial, sans-serif&quot;" font-size="12" lengthAdjust="spacing" textLength="182" x="27.5" y="290.0293">«validator» volume_24h &gt;= 0</text></g><!--MD5=[9ac296addf479f050c28bb4e369ac09a]
class IndicatorRecord--><g id="elem_IndicatorRecord"><rect codeLine="27" fill="#ECFDF5" height="221.5625" id="IndicatorRecord" rx="3" ry="3" style="stroke:#34A853;stroke-width:0.5;" width="241" x="58.5" y="372.2969"/><rect fill="#34A853" height="37.9375" rx="3" ry="3" style="stroke:#34A853;stroke-width:0.5;" width="241" x="58.5" y="372.2969"/><rect fill="#34A853" height="3" style="stroke:#34A853;stroke-width:0.5;" width="241" x="58.5" y="407.2344"/><rect codeLine="27" fill="none" height="221.5625" id="IndicatorRecord" rx="3" ry="3" style="stroke:#34A853;stroke-width:0.5;" width="241" x="58.5" y="372.2969"/><ellipse cx="125.5" cy="391.2656" fill="#ADD1B2" rx="10" ry="10" style="stroke:#181818;stroke-width:1.0;"/><path d="M127.3281,395.5156 Q126.9219,395.7188 126.4688,395.8281 Q126.0156,395.9375 125.5313,395.9375 Q123.75,395.9375 122.8125,394.7813 Q121.8906,393.6094 121.8906,391.4063 Q121.8906,389.1875 122.8125,388.0313 Q123.75,386.8594 125.5313,386.8594 Q126.0156,386.8594 126.4688,386.9688 Q126.9375,387.0625 127.3281,387.2813 L127.3281,389.2031 Q126.8906,388.7969 126.4688,388.6094 Q126.0469,388.4063 125.6094,388.4063 Q124.6563,388.4063 124.1719,389.1719 Q123.6875,389.9219 123.6875,391.4063 Q123.6875,392.875 124.1719,393.625 Q124.6563,394.375 125.6094,394.375 Q126.0469,394.375 126.4688,394.1875 Q126.8906,394 127.3281,393.5938 L127.3281,395.5156 Z " fill="#333333"/><text fill="#7C5CFC" font-family="Segoe UI, Helvetica, Arial, sans-serif" font-size="12" font-style="italic" lengthAdjust="spacing" textLength="81" x="153.5" y="388.4355">«BaseModel»</text><text fill="#555555" font-family="&quot;Segoe UI, Helvetica, Arial, sans-serif&quot;" font-size="12" lengthAdjust="spacing" textLength="99" x="144.5" y="402.4043">IndicatorRecord</text><line style="stroke:#34A853;stroke-width:0.5;" x1="59.5" x2="298.5" y1="410.2344" y2="410.2344"/><ellipse cx="69.5" cy="421.2344" fill="none" rx="3" ry="3" style="stroke:#038048;stroke-width:1.0;"/><text fill="#555555" font-family="&quot;Segoe UI, Helvetica, Arial, sans-serif&quot;" font-size="12" lengthAdjust="spacing" textLength="72" x="77.5" y="425.373">symbol : str</text><ellipse cx="69.5" cy="435.2031" fill="none" rx="3" ry="3" style="stroke:#038048;stroke-width:1.0;"/><text fill="#555555" font-family="&quot;Segoe UI, Helvetica, Arial, sans-serif&quot;" font-size="12" lengthAdjust="spacing" textLength="92" x="77.5" y="439.3418">timeframe : str</text><ellipse cx="69.5" cy="449.1719" fill="none" rx="3" ry="3" style="stroke:#038048;stroke-width:1.0;"/><text fill="#555555" font-family="&quot;Segoe UI, Helvetica, Arial, sans-serif&quot;" font-size="12" lengthAdjust="spacing" textLength="134" x="77.5" y="453.3105">timestamp : datetime</text><ellipse cx="69.5" cy="463.1406" fill="none" rx="3" ry="3" style="stroke:#038048;stroke-width:1.0;"/><text fill="#555555" font-family="&quot;Segoe UI, Helvetica, Arial, sans-serif&quot;" font-size="12" lengthAdjust="spacing" textLength="121" x="77.5" y="467.2793">rsi : Decimal | None</text><ellipse cx="69.5" cy="477.1094" fill="none" rx="3" ry="3" style="stroke:#038048;stroke-width:1.0;"/><text fill="#555555" font-family="&quot;Segoe UI, Helvetica, Arial, sans-serif&quot;" font-size="12" lengthAdjust="spacing" textLength="203" x="77.5" y="481.248">bollinger_upper : Decimal | None</text><ellipse cx="69.5" cy="491.0781" fill="none" rx="3" ry="3" style="stroke:#038048;stroke-width:1.0;"/><text fill="#555555" font-family="&quot;Segoe UI, Helvetica, Arial, sans-serif&quot;" font-size="12" lengthAdjust="spacing" textLength="207" x="77.5" y="495.2168">bollinger_middle : Decimal | None</text><ellipse cx="69.5" cy="505.0469" fill="none" rx="3" ry="3" style="stroke:#038048;stroke-width:1.0;"/><text fill="#555555" font-family="&quot;Segoe UI, Helvetica, Arial, sans-serif&quot;" font-size="12" lengthAdjust="spacing" textLength="199" x="77.5" y="509.1855">bollinger_lower : Decimal | None</text><ellipse cx="69.5" cy="519.0156" fill="none" rx="3" ry="3" style="stroke:#038048;stroke-width:1.0;"/><text fill="#555555" font-family="&quot;Segoe UI, Helvetica, Arial, sans-serif&quot;" font-size="12" lengthAdjust="spacing" textLength="216" x="77.5" y="523.1543">price_vs_bollinger : Decimal | None</text><ellipse cx="69.5" cy="532.9844" fill="none" rx="3" ry="3" style="stroke:#038048;stroke-width:1.0;"/><text fill="#555555" font-family="&quot;Segoe UI, Helvetica, Arial, sans-serif&quot;" font-size="12" lengthAdjust="spacing" textLength="185" x="77.5" y="537.123">harmonic_pattern : str | None</text><ellipse cx="69.5" cy="546.9531" fill="none" rx="3" ry="3" style="stroke:#038048;stroke-width:1.0;"/><text fill="#555555" font-family="&quot;Segoe UI, Helvetica, Arial, sans-serif&quot;" font-size="12" lengthAdjust="spacing" textLength="180" x="77.5" y="551.0918">trend_slope : Decimal | None</text><ellipse cx="69.5" cy="560.9219" fill="none" rx="3" ry="3" style="stroke:#038048;stroke-width:1.0;"/><text fill="#555555" font-family="&quot;Segoe UI, Helvetica, Arial, sans-serif&quot;" font-size="12" lengthAdjust="spacing" textLength="141" x="77.5" y="565.0605">trend_type : str | None</text><ellipse cx="69.5" cy="574.8906" fill="none" rx="3" ry="3" style="stroke:#038048;stroke-width:1.0;"/><text fill="#555555" font-family="&quot;Segoe UI, Helvetica, Arial, sans-serif&quot;" font-size="12" lengthAdjust="spacing" textLength="96" x="77.5" y="579.0293">metadata : dict</text><line style="stroke:#34A853;stroke-width:0.5;" x1="59.5" x2="298.5" y1="585.8594" y2="585.8594"/></g><!--MD5=[23ddccf7f5cac6f18416ff4c227f98cc]
class NewsArticle--><g id="elem_NewsArticle"><rect codeLine="42" fill="#ECFDF5" height="165.6875" id="NewsArticle" rx="3" ry="3" style="stroke:#34A853;stroke-width:0.5;" width="235" x="289.5" y="103.2969"/><rect fill="#34A853" height="37.9375" rx="3" ry="3" style="stroke:#34A853;stroke-width:0.5;" width="235" x="289.5" y="103.2969"/><rect fill="#34A853" height="3" style="stroke:#34A853;stroke-width:0.5;" width="235" x="289.5" y="138.2344"/><rect codeLine="42" fill="none" height="165.6875" id="NewsArticle" rx="3" ry="3" style="stroke:#34A853;stroke-width:0.5;" width="235" x="289.5" y="103.2969"/><ellipse cx="364.5" cy="122.2656" fill="#ADD1B2" rx="10" ry="10" style="stroke:#181818;stroke-width:1.0;"/><path d="M366.3281,126.5156 Q365.9219,126.7188 365.4688,126.8281 Q365.0156,126.9375 364.5313,126.9375 Q362.75,126.9375 361.8125,125.7813 Q360.8906,124.6094 360.8906,122.4063 Q360.8906,120.1875 361.8125,119.0313 Q362.75,117.8594 364.5313,117.8594 Q365.0156,117.8594 365.4688,117.9688 Q365.9375,118.0625 366.3281,118.2813 L366.3281,120.2031 Q365.8906,119.7969 365.4688,119.6094 Q365.0469,119.4063 364.6094,119.4063 Q363.6563,119.4063 363.1719,120.1719 Q362.6875,120.9219 362.6875,122.4063 Q362.6875,123.875 363.1719,124.625 Q363.6563,125.375 364.6094,125.375 Q365.0469,125.375 365.4688,125.1875 Q365.8906,125 366.3281,124.5938 L366.3281,126.5156 Z " fill="#333333"/><text fill="#7C5CFC" font-family="Segoe UI, Helvetica, Arial, sans-serif" font-size="12" font-style="italic" lengthAdjust="spacing" textLength="81" x="381.5" y="119.4355">«BaseModel»</text><text fill="#555555" font-family="&quot;Segoe UI, Helvetica, Arial, sans-serif&quot;" font-size="12" lengthAdjust="spacing" textLength="72" x="386" y="133.4043">NewsArticle</text><line style="stroke:#34A853;stroke-width:0.5;" x1="290.5" x2="523.5" y1="141.2344" y2="141.2344"/><ellipse cx="300.5" cy="152.2344" fill="none" rx="3" ry="3" style="stroke:#038048;stroke-width:1.0;"/><text fill="#555555" font-family="&quot;Segoe UI, Helvetica, Arial, sans-serif&quot;" font-size="12" lengthAdjust="spacing" textLength="53" x="308.5" y="156.373">title : str</text><ellipse cx="300.5" cy="166.2031" fill="none" rx="3" ry="3" style="stroke:#038048;stroke-width:1.0;"/><text fill="#555555" font-family="&quot;Segoe UI, Helvetica, Arial, sans-serif&quot;" font-size="12" lengthAdjust="spacing" textLength="123" x="308.5" y="170.3418">content : str | None</text><ellipse cx="300.5" cy="180.1719" fill="none" rx="3" ry="3" style="stroke:#038048;stroke-width:1.0;"/><text fill="#555555" font-family="&quot;Segoe UI, Helvetica, Arial, sans-serif&quot;" font-size="12" lengthAdjust="spacing" textLength="72" x="308.5" y="184.3105">source : str</text><ellipse cx="300.5" cy="194.1406" fill="none" rx="3" ry="3" style="stroke:#038048;stroke-width:1.0;"/><text fill="#555555" font-family="&quot;Segoe UI, Helvetica, Arial, sans-serif&quot;" font-size="12" lengthAdjust="spacing" textLength="45" x="308.5" y="198.2793">url : str</text><ellipse cx="300.5" cy="208.1094" fill="none" rx="3" ry="3" style="stroke:#038048;stroke-width:1.0;"/><text fill="#555555" font-family="&quot;Segoe UI, Helvetica, Arial, sans-serif&quot;" font-size="12" lengthAdjust="spacing" textLength="193" x="308.5" y="212.248">published_at : datetime | None</text><ellipse cx="300.5" cy="222.0781" fill="none" rx="3" ry="3" style="stroke:#038048;stroke-width:1.0;"/><text fill="#555555" font-family="&quot;Segoe UI, Helvetica, Arial, sans-serif&quot;" font-size="12" lengthAdjust="spacing" textLength="210" x="308.5" y="226.2168">sentiment_score : Decimal | None</text><ellipse cx="300.5" cy="236.0469" fill="none" rx="3" ry="3" style="stroke:#038048;stroke-width:1.0;"/><text fill="#555555" font-family="&quot;Segoe UI, Helvetica, Arial, sans-serif&quot;" font-size="12" lengthAdjust="spacing" textLength="115" x="308.5" y="240.1855">keywords : list[str]</text><ellipse cx="300.5" cy="250.0156" fill="none" rx="3" ry="3" style="stroke:#038048;stroke-width:1.0;"/><text fill="#555555" font-family="&quot;Segoe UI, Helvetica, Arial, sans-serif&quot;" font-size="12" lengthAdjust="spacing" textLength="202" x="308.5" y="254.1543">reliability_score : Decimal | None</text><line style="stroke:#34A853;stroke-width:0.5;" x1="290.5" x2="523.5" y1="260.9844" y2="260.9844"/></g><!--MD5=[b95aa09f883a94d7fde0e1dfb6cd9663]
class TradingSignal--><g id="elem_TradingSignal"><rect codeLine="59" fill="#ECFDF5" height="235.5313" id="TradingSignal" rx="3" ry="3" style="stroke:#34A853;stroke-width:0.5;" width="278" x="145" y="689.2969"/><rect fill="#34A853" height="37.9375" rx="3" ry="3" style="stroke:#34A853;stroke-width:0.5;" width="278" x="145" y="689.2969"/><rect fill="#34A853" height="3" style="stroke:#34A853;stroke-width:0.5;" width="278" x="145" y="724.2344"/><rect codeLine="59" fill="none" height="235.5313" id="TradingSignal" rx="3" ry="3" style="stroke:#34A853;stroke-width:0.5;" width="278" x="145" y="689.2969"/><ellipse cx="237.5" cy="708.2656" fill="#ADD1B2" rx="10" ry="10" style="stroke:#181818;stroke-width:1.0;"/><path d="M239.3281,712.5156 Q238.9219,712.7188 238.4688,712.8281 Q238.0156,712.9375 237.5313,712.9375 Q235.75,712.9375 234.8125,711.7813 Q233.8906,710.6094 233.8906,708.4063 Q233.8906,706.1875 234.8125,705.0313 Q235.75,703.8594 237.5313,703.8594 Q238.0156,703.8594 238.4688,703.9688 Q238.9375,704.0625 239.3281,704.2813 L239.3281,706.2031 Q238.8906,705.7969 238.4688,705.6094 Q238.0469,705.4063 237.6094,705.4063 Q236.6563,705.4063 236.1719,706.1719 Q235.6875,706.9219 235.6875,708.4063 Q235.6875,709.875 236.1719,710.625 Q236.6563,711.375 237.6094,711.375 Q238.0469,711.375 238.4688,711.1875 Q238.8906,711 239.3281,710.5938 L239.3281,712.5156 Z " fill="#333333"/><text fill="#7C5CFC" font-family="Segoe UI, Helvetica, Arial, sans-serif" font-size="12" font-style="italic" lengthAdjust="spacing" textLength="81" x="258.5" y="705.4355">«BaseModel»</text><text fill="#555555" font-family="&quot;Segoe UI, Helvetica, Arial, sans-serif&quot;" font-size="12" lengthAdjust="spacing" textLength="85" x="256.5" y="719.4043">TradingSignal</text><line style="stroke:#34A853;stroke-width:0.5;" x1="146" x2="422" y1="727.2344" y2="727.2344"/><ellipse cx="156" cy="738.2344" fill="none" rx="3" ry="3" style="stroke:#038048;stroke-width:1.0;"/><text fill="#555555" font-family="&quot;Segoe UI, Helvetica, Arial, sans-serif&quot;" font-size="12" lengthAdjust="spacing" textLength="72" x="164" y="742.373">symbol : str</text><ellipse cx="156" cy="752.2031" fill="none" rx="3" ry="3" style="stroke:#038048;stroke-width:1.0;"/><text fill="#555555" font-family="&quot;Segoe UI, Helvetica, Arial, sans-serif&quot;" font-size="12" lengthAdjust="spacing" textLength="253" x="164" y="756.3418">signal_type : Literal["BUY","SELL","HOLD"]</text><ellipse cx="156" cy="766.1719" fill="none" rx="3" ry="3" style="stroke:#038048;stroke-width:1.0;"/><text fill="#555555" font-family="&quot;Segoe UI, Helvetica, Arial, sans-serif&quot;" font-size="12" lengthAdjust="spacing" textLength="171" x="164" y="770.3105">confidence_score : Decimal</text><ellipse cx="156" cy="780.1406" fill="none" rx="3" ry="3" style="stroke:#038048;stroke-width:1.0;"/><text fill="#555555" font-family="&quot;Segoe UI, Helvetica, Arial, sans-serif&quot;" font-size="12" lengthAdjust="spacing" textLength="144" x="164" y="784.2793">timeframe_primary : str</text><ellipse cx="156" cy="794.1094" fill="none" rx="3" ry="3" style="stroke:#038048;stroke-width:1.0;"/><text fill="#555555" font-family="&quot;Segoe UI, Helvetica, Arial, sans-serif&quot;" font-size="12" lengthAdjust="spacing" textLength="157" x="164" y="798.248">timeframes_aligned : dict</text><ellipse cx="156" cy="808.0781" fill="none" rx="3" ry="3" style="stroke:#038048;stroke-width:1.0;"/><text fill="#555555" font-family="&quot;Segoe UI, Helvetica, Arial, sans-serif&quot;" font-size="12" lengthAdjust="spacing" textLength="152" x="164" y="812.2168">rules_triggered : list[str]</text><ellipse cx="156" cy="822.0469" fill="none" rx="3" ry="3" style="stroke:#038048;stroke-width:1.0;"/><text fill="#555555" font-family="&quot;Segoe UI, Helvetica, Arial, sans-serif&quot;" font-size="12" lengthAdjust="spacing" textLength="200" x="164" y="826.1855">leverage_suggested : int | None</text><ellipse cx="156" cy="836.0156" fill="none" rx="3" ry="3" style="stroke:#038048;stroke-width:1.0;"/><text fill="#555555" font-family="&quot;Segoe UI, Helvetica, Arial, sans-serif&quot;" font-size="12" lengthAdjust="spacing" textLength="193" x="164" y="840.1543">margin_safety : Decimal | None</text><ellipse cx="156" cy="849.9844" fill="none" rx="3" ry="3" style="stroke:#038048;stroke-width:1.0;"/><text fill="#555555" font-family="&quot;Segoe UI, Helvetica, Arial, sans-serif&quot;" font-size="12" lengthAdjust="spacing" textLength="202" x="164" y="854.123">fees_estimated : Decimal | None</text><ellipse cx="156" cy="863.9531" fill="none" rx="3" ry="3" style="stroke:#038048;stroke-width:1.0;"/><text fill="#555555" font-family="&quot;Segoe UI, Helvetica, Arial, sans-serif&quot;" font-size="12" lengthAdjust="spacing" textLength="118" x="164" y="868.0918">model_version : str</text><ellipse cx="156" cy="877.9219" fill="none" rx="3" ry="3" style="stroke:#038048;stroke-width:1.0;"/><text fill="#555555" font-family="&quot;Segoe UI, Helvetica, Arial, sans-serif&quot;" font-size="12" lengthAdjust="spacing" textLength="181" x="164" y="882.0605">created_at : datetime | None</text><line style="stroke:#34A853;stroke-width:1.0;" x1="146" x2="422" y1="888.8906" y2="888.8906"/><text fill="#555555" font-family="&quot;Segoe UI, Helvetica, Arial, sans-serif&quot;" font-size="12" lengthAdjust="spacing" textLength="199" x="151" y="904.0293">«constraint» confidence &gt;= 0.6</text><text fill="#555555" font-family="&quot;Segoe UI, Helvetica, Arial, sans-serif&quot;" font-size="12" lengthAdjust="spacing" textLength="168" x="151" y="917.998">«constraint» leverage 1-20</text></g><!--MD5=[ff055613f32a70c42307b5e1e9ba4cbf]
class SignalOutcome--><g id="elem_SignalOutcome"><rect codeLine="76" fill="#ECFDF5" height="165.6875" id="SignalOutcome" rx="3" ry="3" style="stroke:#34A853;stroke-width:0.5;" width="220" x="174" y="1000.2969"/><rect fill="#34A853" height="37.9375" rx="3" ry="3" style="stroke:#34A853;stroke-width:0.5;" width="220" x="174" y="1000.2969"/><rect fill="#34A853" height="3" style="stroke:#34A853;stroke-width:0.5;" width="220" x="174" y="1035.2344"/><rect codeLine="76" fill="none" height="165.6875" id="SignalOutcome" rx="3" ry="3" style="stroke:#34A853;stroke-width:0.5;" width="220" x="174" y="1000.2969"/><ellipse cx="233" cy="1019.2656" fill="#ADD1B2" rx="10" ry="10" style="stroke:#181818;stroke-width:1.0;"/><path d="M234.8281,1023.5156 Q234.4219,1023.7188 233.9688,1023.8281 Q233.5156,1023.9375 233.0313,1023.9375 Q231.25,1023.9375 230.3125,1022.7813 Q229.3906,1021.6094 229.3906,1019.4063 Q229.3906,1017.1875 230.3125,1016.0313 Q231.25,1014.8594 233.0313,1014.8594 Q233.5156,1014.8594 233.9688,1014.9688 Q234.4375,1015.0625 234.8281,1015.2813 L234.8281,1017.2031 Q234.3906,1016.7969 233.9688,1016.6094 Q233.5469,1016.4063 233.1094,1016.4063 Q232.1563,1016.4063 231.6719,1017.1719 Q231.1875,1017.9219 231.1875,1019.4063 Q231.1875,1020.875 231.6719,1021.625 Q232.1563,1022.375 233.1094,1022.375 Q233.5469,1022.375 233.9688,1022.1875 Q234.3906,1022 234.8281,1021.5938 L234.8281,1023.5156 Z " fill="#333333"/><text fill="#7C5CFC" font-family="Segoe UI, Helvetica, Arial, sans-serif" font-size="12" font-style="italic" lengthAdjust="spacing" textLength="81" x="258.5" y="1016.4355">«BaseModel»</text><text fill="#555555" font-family="&quot;Segoe UI, Helvetica, Arial, sans-serif&quot;" font-size="12" lengthAdjust="spacing" textLength="94" x="252" y="1030.4043">SignalOutcome</text><line style="stroke:#34A853;stroke-width:0.5;" x1="175" x2="393" y1="1038.2344" y2="1038.2344"/><ellipse cx="185" cy="1049.2344" fill="none" rx="3" ry="3" style="stroke:#038048;stroke-width:1.0;"/><text fill="#555555" font-family="&quot;Segoe UI, Helvetica, Arial, sans-serif&quot;" font-size="12" lengthAdjust="spacing" textLength="83" x="193" y="1053.373">signal_id : str</text><ellipse cx="185" cy="1063.2031" fill="none" rx="3" ry="3" style="stroke:#038048;stroke-width:1.0;"/><text fill="#555555" font-family="&quot;Segoe UI, Helvetica, Arial, sans-serif&quot;" font-size="12" lengthAdjust="spacing" textLength="154" x="193" y="1067.3418">price_at_signal : Decimal</text><ellipse cx="185" cy="1077.1719" fill="none" rx="3" ry="3" style="stroke:#038048;stroke-width:1.0;"/><text fill="#555555" font-family="&quot;Segoe UI, Helvetica, Arial, sans-serif&quot;" font-size="12" lengthAdjust="spacing" textLength="195" x="193" y="1081.3105">price_after_1h : Decimal | None</text><ellipse cx="185" cy="1091.1406" fill="none" rx="3" ry="3" style="stroke:#038048;stroke-width:1.0;"/><text fill="#555555" font-family="&quot;Segoe UI, Helvetica, Arial, sans-serif&quot;" font-size="12" lengthAdjust="spacing" textLength="195" x="193" y="1095.2793">price_after_4h : Decimal | None</text><ellipse cx="185" cy="1105.1094" fill="none" rx="3" ry="3" style="stroke:#038048;stroke-width:1.0;"/><text fill="#555555" font-family="&quot;Segoe UI, Helvetica, Arial, sans-serif&quot;" font-size="12" lengthAdjust="spacing" textLength="195" x="193" y="1109.248">price_after_1d : Decimal | None</text><ellipse cx="185" cy="1119.0781" fill="none" rx="3" ry="3" style="stroke:#038048;stroke-width:1.0;"/><text fill="#555555" font-family="&quot;Segoe UI, Helvetica, Arial, sans-serif&quot;" font-size="12" lengthAdjust="spacing" textLength="192" x="193" y="1123.2168">pnl_simulated : Decimal | None</text><ellipse cx="185" cy="1133.0469" fill="none" rx="3" ry="3" style="stroke:#038048;stroke-width:1.0;"/><text fill="#555555" font-family="&quot;Segoe UI, Helvetica, Arial, sans-serif&quot;" font-size="12" lengthAdjust="spacing" textLength="159" x="193" y="1137.1855">was_correct : bool | None</text><ellipse cx="185" cy="1147.0156" fill="none" rx="3" ry="3" style="stroke:#038048;stroke-width:1.0;"/><text fill="#555555" font-family="&quot;Segoe UI, Helvetica, Arial, sans-serif&quot;" font-size="12" lengthAdjust="spacing" textLength="149" x="193" y="1151.1543">evaluated_at : datetime</text><line style="stroke:#34A853;stroke-width:0.5;" x1="175" x2="393" y1="1157.9844" y2="1157.9844"/></g><!--MD5=[177726c6dccf199602c5c27bb05f2a1e]
class UserCreate--><g id="elem_UserCreate"><rect codeLine="93" fill="#ECFDF5" height="123.7813" id="UserCreate" rx="3" ry="3" style="stroke:#34A853;stroke-width:0.5;" width="183" x="777.5" y="124.2969"/><rect fill="#34A853" height="37.9375" rx="3" ry="3" style="stroke:#34A853;stroke-width:0.5;" width="183" x="777.5" y="124.2969"/><rect fill="#34A853" height="3" style="stroke:#34A853;stroke-width:0.5;" width="183" x="777.5" y="159.2344"/><rect codeLine="93" fill="none" height="123.7813" id="UserCreate" rx="3" ry="3" style="stroke:#34A853;stroke-width:0.5;" width="183" x="777.5" y="124.2969"/><ellipse cx="826.5" cy="143.2656" fill="#ADD1B2" rx="10" ry="10" style="stroke:#181818;stroke-width:1.0;"/><path d="M828.3281,147.5156 Q827.9219,147.7188 827.4688,147.8281 Q827.0156,147.9375 826.5313,147.9375 Q824.75,147.9375 823.8125,146.7813 Q822.8906,145.6094 822.8906,143.4063 Q822.8906,141.1875 823.8125,140.0313 Q824.75,138.8594 826.5313,138.8594 Q827.0156,138.8594 827.4688,138.9688 Q827.9375,139.0625 828.3281,139.2813 L828.3281,141.2031 Q827.8906,140.7969 827.4688,140.6094 Q827.0469,140.4063 826.6094,140.4063 Q825.6563,140.4063 825.1719,141.1719 Q824.6875,141.9219 824.6875,143.4063 Q824.6875,144.875 825.1719,145.625 Q825.6563,146.375 826.6094,146.375 Q827.0469,146.375 827.4688,146.1875 Q827.8906,146 828.3281,145.5938 L828.3281,147.5156 Z " fill="#333333"/><text fill="#7C5CFC" font-family="Segoe UI, Helvetica, Arial, sans-serif" font-size="12" font-style="italic" lengthAdjust="spacing" textLength="81" x="843.5" y="140.4355">«BaseModel»</text><text fill="#555555" font-family="&quot;Segoe UI, Helvetica, Arial, sans-serif&quot;" font-size="12" lengthAdjust="spacing" textLength="71" x="848.5" y="154.4043">UserCreate</text><line style="stroke:#34A853;stroke-width:0.5;" x1="778.5" x2="959.5" y1="162.2344" y2="162.2344"/><ellipse cx="788.5" cy="173.2344" fill="none" rx="3" ry="3" style="stroke:#038048;stroke-width:1.0;"/><text fill="#555555" font-family="&quot;Segoe UI, Helvetica, Arial, sans-serif&quot;" font-size="12" lengthAdjust="spacing" textLength="148" x="796.5" y="177.373">username : str {3-100}</text><ellipse cx="788.5" cy="187.2031" fill="none" rx="3" ry="3" style="stroke:#038048;stroke-width:1.0;"/><text fill="#555555" font-family="&quot;Segoe UI, Helvetica, Arial, sans-serif&quot;" font-size="12" lengthAdjust="spacing" textLength="96" x="796.5" y="191.3418">email : EmailStr</text><ellipse cx="788.5" cy="201.1719" fill="none" rx="3" ry="3" style="stroke:#038048;stroke-width:1.0;"/><text fill="#555555" font-family="&quot;Segoe UI, Helvetica, Arial, sans-serif&quot;" font-size="12" lengthAdjust="spacing" textLength="143" x="796.5" y="205.3105">password : str {min 8}</text><ellipse cx="788.5" cy="215.1406" fill="none" rx="3" ry="3" style="stroke:#038048;stroke-width:1.0;"/><text fill="#555555" font-family="&quot;Segoe UI, Helvetica, Arial, sans-serif&quot;" font-size="12" lengthAdjust="spacing" textLength="114" x="796.5" y="219.2793">persona_type : str</text><line style="stroke:#34A853;stroke-width:1.0;" x1="778.5" x2="959.5" y1="226.1094" y2="226.1094"/><text fill="#555555" font-family="&quot;Segoe UI, Helvetica, Arial, sans-serif&quot;" font-size="12" lengthAdjust="spacing" textLength="171" x="783.5" y="241.248">trader | journalist | investor</text></g><!--MD5=[64bc69595352f379f9563eb903d19eb7]
class UserRead--><g id="elem_UserRead"><rect codeLine="102" fill="#ECFDF5" height="137.75" id="UserRead" rx="3" ry="3" style="stroke:#34A853;stroke-width:0.5;" width="161" x="581.5" y="117.2969"/><rect fill="#34A853" height="37.9375" rx="3" ry="3" style="stroke:#34A853;stroke-width:0.5;" width="161" x="581.5" y="117.2969"/><rect fill="#34A853" height="3" style="stroke:#34A853;stroke-width:0.5;" width="161" x="581.5" y="152.2344"/><rect codeLine="102" fill="none" height="137.75" id="UserRead" rx="3" ry="3" style="stroke:#34A853;stroke-width:0.5;" width="161" x="581.5" y="117.2969"/><ellipse cx="619.8" cy="136.2656" fill="#ADD1B2" rx="10" ry="10" style="stroke:#181818;stroke-width:1.0;"/><path d="M621.6281,140.5156 Q621.2219,140.7188 620.7688,140.8281 Q620.3156,140.9375 619.8313,140.9375 Q618.05,140.9375 617.1125,139.7813 Q616.1906,138.6094 616.1906,136.4063 Q616.1906,134.1875 617.1125,133.0313 Q618.05,131.8594 619.8313,131.8594 Q620.3156,131.8594 620.7688,131.9688 Q621.2375,132.0625 621.6281,132.2813 L621.6281,134.2031 Q621.1906,133.7969 620.7688,133.6094 Q620.3469,133.4063 619.9094,133.4063 Q618.9563,133.4063 618.4719,134.1719 Q617.9875,134.9219 617.9875,136.4063 Q617.9875,137.875 618.4719,138.625 Q618.9563,139.375 619.9094,139.375 Q620.3469,139.375 620.7688,139.1875 Q621.1906,139 621.6281,138.5938 L621.6281,140.5156 Z " fill="#333333"/><text fill="#7C5CFC" font-family="Segoe UI, Helvetica, Arial, sans-serif" font-size="12" font-style="italic" lengthAdjust="spacing" textLength="81" x="636.2" y="133.4355">«BaseModel»</text><text fill="#555555" font-family="&quot;Segoe UI, Helvetica, Arial, sans-serif&quot;" font-size="12" lengthAdjust="spacing" textLength="61" x="646.2" y="147.4043">UserRead</text><line style="stroke:#34A853;stroke-width:0.5;" x1="582.5" x2="741.5" y1="155.2344" y2="155.2344"/><ellipse cx="592.5" cy="166.2344" fill="none" rx="3" ry="3" style="stroke:#038048;stroke-width:1.0;"/><text fill="#555555" font-family="&quot;Segoe UI, Helvetica, Arial, sans-serif&quot;" font-size="12" lengthAdjust="spacing" textLength="40" x="600.5" y="170.373">id : str</text><ellipse cx="592.5" cy="180.2031" fill="none" rx="3" ry="3" style="stroke:#038048;stroke-width:1.0;"/><text fill="#555555" font-family="&quot;Segoe UI, Helvetica, Arial, sans-serif&quot;" font-size="12" lengthAdjust="spacing" textLength="92" x="600.5" y="184.3418">username : str</text><ellipse cx="592.5" cy="194.1719" fill="none" rx="3" ry="3" style="stroke:#038048;stroke-width:1.0;"/><text fill="#555555" font-family="&quot;Segoe UI, Helvetica, Arial, sans-serif&quot;" font-size="12" lengthAdjust="spacing" textLength="62" x="600.5" y="198.3105">email : str</text><ellipse cx="592.5" cy="208.1406" fill="none" rx="3" ry="3" style="stroke:#038048;stroke-width:1.0;"/><text fill="#555555" font-family="&quot;Segoe UI, Helvetica, Arial, sans-serif&quot;" font-size="12" lengthAdjust="spacing" textLength="114" x="600.5" y="212.2793">persona_type : str</text><ellipse cx="592.5" cy="222.1094" fill="none" rx="3" ry="3" style="stroke:#038048;stroke-width:1.0;"/><text fill="#555555" font-family="&quot;Segoe UI, Helvetica, Arial, sans-serif&quot;" font-size="12" lengthAdjust="spacing" textLength="111" x="600.5" y="226.248">preferences : dict</text><ellipse cx="592.5" cy="236.0781" fill="none" rx="3" ry="3" style="stroke:#038048;stroke-width:1.0;"/><text fill="#555555" font-family="&quot;Segoe UI, Helvetica, Arial, sans-serif&quot;" font-size="12" lengthAdjust="spacing" textLength="136" x="600.5" y="240.2168">created_at : datetime</text><line style="stroke:#34A853;stroke-width:0.5;" x1="582.5" x2="741.5" y1="247.0469" y2="247.0469"/></g><!--MD5=[32a4bc9480fc4e9031693538ba9fe3e8]
link TradingSignal to SignalOutcome--><g id="link_TradingSignal_SignalOutcome"><path codeLine="115" d="M284,925.6869 C284,950.8169 284,976.8469 284,1000.2969 " fill="none" id="TradingSignal-SignalOutcome" style="stroke:#4A6FA5;stroke-width:1.0;"/><text fill="#333333" font-family="&quot;Segoe UI, Helvetica, Arial, sans-serif&quot;" font-size="12" lengthAdjust="spacing" textLength="65" x="285" y="967.4355">evaluation</text><text fill="#333333" font-family="&quot;Segoe UI, Helvetica, Arial, sans-serif&quot;" font-size="12" lengthAdjust="spacing" textLength="8" x="275.7688" y="944.0873">1</text><text fill="#333333" font-family="&quot;Segoe UI, Helvetica, Arial, sans-serif&quot;" font-size="12" lengthAdjust="spacing" textLength="24" x="258.7625" y="989.2719">0..1</text></g><!--MD5=[45e71df19daef141027a66f0994c7d26]
link OHLCVRecord to IndicatorRecord--><g id="link_OHLCVRecord_IndicatorRecord"><path codeLine="116" d="M153.33,297.5669 C156.48,320.2369 159.8,344.1569 162.98,366.9969 " fill="none" id="OHLCVRecord-to-IndicatorRecord" style="stroke:#4A6FA5;stroke-width:1.0;stroke-dasharray:7.0,7.0;"/><polygon fill="#4A6FA5" points="163.69,372.1669,166.3923,362.696,162.9909,367.216,158.4709,363.8146,163.69,372.1669" style="stroke:#4A6FA5;stroke-width:1.0;"/><text fill="#333333" font-family="&quot;Segoe UI, Helvetica, Arial, sans-serif&quot;" font-size="12" lengthAdjust="spacing" textLength="44" x="159" y="339.4355">calcule</text></g><!--MD5=[38853a21576f962c67a4797f0e09017b]
link IndicatorRecord to TradingSignal--><g id="link_IndicatorRecord_TradingSignal"><path codeLine="117" d="M214.99,594.6569 C224.39,623.4869 234.57,654.7269 244.16,684.1269 " fill="none" id="IndicatorRecord-to-TradingSignal" style="stroke:#4A6FA5;stroke-width:1.0;stroke-dasharray:7.0,7.0;"/><polygon fill="#4A6FA5" points="245.82,689.2069,246.8397,679.4109,244.2733,684.4521,239.2321,681.8857,245.82,689.2069" style="stroke:#4A6FA5;stroke-width:1.0;"/><text fill="#333333" font-family="&quot;Segoe UI, Helvetica, Arial, sans-serif&quot;" font-size="12" lengthAdjust="spacing" textLength="45" x="229" y="638.4355">genere</text></g><!--MD5=[e76abdda737fabad1dcc74dba7581cd4]
link NewsArticle to TradingSignal--><g id="link_NewsArticle_TradingSignal"><path codeLine="118" d="M390.67,269.4969 C369.57,375.6469 332.68,561.2969 308.3,684.0269 " fill="none" id="NewsArticle-to-TradingSignal" style="stroke:#4A6FA5;stroke-width:1.0;stroke-dasharray:7.0,7.0;"/><polygon fill="#4A6FA5" points="307.29,689.0969,312.9638,681.0466,308.2623,684.1923,305.1166,679.4908,307.29,689.0969" style="stroke:#4A6FA5;stroke-width:1.0;"/><text fill="#333333" font-family="&quot;Segoe UI, Helvetica, Arial, sans-serif&quot;" font-size="12" lengthAdjust="spacing" textLength="63" x="370" y="487.9355">sentiment</text></g><rect fill="#FFFFFF" height="16.2969" rx="3" ry="3" style="stroke:#00000000;stroke-width:1.0;" width="221" x="374.5" y="1189.2969"/><text fill="#333333" font-family="&quot;Segoe UI, Helvetica, Arial, sans-serif&quot;" font-size="14" lengthAdjust="spacing" textLength="221" x="374.5" y="1202.292">src/shared/models/ | 7 modeles</text><!--MD5=[c075b13c682c6134aaab7dd4a30c34b0]
@startuml CL01-pydantic-models
!include _common.puml

title CryptoBot — Modeles Domaine Pydantic v2
caption src/shared/models/ | 7 modeles

' ============================================================
' Crypto Domain
' ============================================================
package "crypto.py" #FEF3E8 {

  class OHLCVRecord <<BaseModel>> {
    + symbol : str
    + price_open : Decimal
    + price_high : Decimal
    + price_low : Decimal
    + price_close : Decimal
    + volume_24h : Decimal
    + market_cap : Decimal | None
    + timestamp : datetime
    + source : str
    + timeframe : str
    - -
    <<validator>> price_high >= price_low
    <<validator>> volume_24h >= 0
  }

  class IndicatorRecord <<BaseModel>> {
    + symbol : str
    + timeframe : str
    + timestamp : datetime
    + rsi : Decimal | None
    + bollinger_upper : Decimal | None
    + bollinger_middle : Decimal | None
    + bollinger_lower : Decimal | None
    + price_vs_bollinger : Decimal | None
    + harmonic_pattern : str | None
    + trend_slope : Decimal | None
    + trend_type : str | None
    + metadata : dict
  }

  class NewsArticle <<BaseModel>> {
    + title : str
    + content : str | None
    + source : str
    + url : str
    + published_at : datetime | None
    + sentiment_score : Decimal | None
    + keywords : list[str]
    + reliability_score : Decimal | None
  }
}

' ============================================================
' Signal Domain
' ============================================================
package "signal.py" #F3EEFF {

  class TradingSignal <<BaseModel>> {
    + symbol : str
    + signal_type : Literal["BUY","SELL","HOLD"]
    + confidence_score : Decimal
    + timeframe_primary : str
    + timeframes_aligned : dict
    + rules_triggered : list[str]
    + leverage_suggested : int | None
    + margin_safety : Decimal | None
    + fees_estimated : Decimal | None
    + model_version : str
    + created_at : datetime | None
    - -
    <<constraint>> confidence >= 0.6
    <<constraint>> leverage 1-20
  }

  class SignalOutcome <<BaseModel>> {
    + signal_id : str
    + price_at_signal : Decimal
    + price_after_1h : Decimal | None
    + price_after_4h : Decimal | None
    + price_after_1d : Decimal | None
    + pnl_simulated : Decimal | None
    + was_correct : bool | None
    + evaluated_at : datetime
  }
}

' ============================================================
' User Domain
' ============================================================
package "user.py" #ECFDF5 {

  class UserCreate <<BaseModel>> {
    + username : str {3-100}
    + email : EmailStr
    + password : str {min 8}
    + persona_type : str
    - -
    trader | journalist | investor
  }

  class UserRead <<BaseModel>> {
    + id : str
    + username : str
    + email : str
    + persona_type : str
    + preferences : dict
    + created_at : datetime
  }
}

' ============================================================
' Relations
' ============================================================
TradingSignal "1" - - "0..1" SignalOutcome : evaluation
OHLCVRecord ..> IndicatorRecord : calcule
IndicatorRecord ..> TradingSignal : genere
NewsArticle ..> TradingSignal : sentiment

@enduml

@startuml CL01-pydantic-models

skinparam backgroundColor white
skinparam defaultFontName "Segoe UI, Helvetica, Arial, sans-serif"
skinparam defaultFontSize 12
skinparam defaultFontColor #333333
skinparam shadowing false
skinparam roundCorner 6


skinparam component {
  BackgroundColor #F3EEFF
  BorderColor #7C5CFC
  FontColor #333333
  ArrowColor #4A6FA5
  StereotypeFontColor #7C5CFC
}

skinparam package {
  BackgroundColor #F5F5F5
  BorderColor #4A6FA5
  FontColor #333333
}

skinparam class {
  BackgroundColor #ECFDF5
  BorderColor #34A853
  FontColor #333333
  HeaderBackgroundColor #34A853
  HeaderFontColor white
  ArrowColor #4A6FA5
  StereotypeFontColor #7C5CFC
  AttributeFontColor #555555
}

skinparam sequence {
  ArrowColor #4A6FA5
  ActorBorderColor #7C5CFC
  LifeLineBorderColor #CCCCCC
  LifeLineBackgroundColor #F5F5F5
  ParticipantBorderColor #4A6FA5
  ParticipantBackgroundColor #F3EEFF
  ParticipantFontColor #333333
  BoxBorderColor #CCCCCC
  BoxBackgroundColor #F5F5F5
  DividerBackgroundColor #4A6FA5
  DividerFontColor white
}

skinparam activity {
  BackgroundColor #FEF3E8
  BorderColor #E8943A
  FontColor #333333
  ArrowColor #4A6FA5
  DiamondBackgroundColor #F3EEFF
  DiamondBorderColor #7C5CFC
}

skinparam node {
  BackgroundColor #F3EEFF
  BorderColor #7C5CFC
  FontColor #333333
}

skinparam database {
  BackgroundColor #ECFDF5
  BorderColor #34A853
  FontColor #333333
}

skinparam entity {
  BackgroundColor white
  BorderColor #4A6FA5
  FontColor #333333
  HeaderBackgroundColor #4A6FA5
  HeaderFontColor white
}

skinparam state {
  BackgroundColor #FEF3E8
  BorderColor #E8943A
  FontColor #333333
  ArrowColor #4A6FA5
}

skinparam usecase {
  BackgroundColor #F3EEFF
  BorderColor #7C5CFC
  FontColor #333333
  ArrowColor #4A6FA5
  ActorBorderColor #E8943A
}

skinparam note {
  BackgroundColor #FEF3E8
  BorderColor #E8943A
  FontColor #333333
}

skinparam legend {
  BackgroundColor #F5F5F5
  BorderColor #CCCCCC
  FontColor #333333
}



title CryptoBot — Modeles Domaine Pydantic v2
caption src/shared/models/ | 7 modeles

package "crypto.py" #FEF3E8 {

  class OHLCVRecord <<BaseModel>> {
    + symbol : str
    + price_open : Decimal
    + price_high : Decimal
    + price_low : Decimal
    + price_close : Decimal
    + volume_24h : Decimal
    + market_cap : Decimal | None
    + timestamp : datetime
    + source : str
    + timeframe : str
    - -
    <<validator>> price_high >= price_low
    <<validator>> volume_24h >= 0
  }

  class IndicatorRecord <<BaseModel>> {
    + symbol : str
    + timeframe : str
    + timestamp : datetime
    + rsi : Decimal | None
    + bollinger_upper : Decimal | None
    + bollinger_middle : Decimal | None
    + bollinger_lower : Decimal | None
    + price_vs_bollinger : Decimal | None
    + harmonic_pattern : str | None
    + trend_slope : Decimal | None
    + trend_type : str | None
    + metadata : dict
  }

  class NewsArticle <<BaseModel>> {
    + title : str
    + content : str | None
    + source : str
    + url : str
    + published_at : datetime | None
    + sentiment_score : Decimal | None
    + keywords : list[str]
    + reliability_score : Decimal | None
  }
}

package "signal.py" #F3EEFF {

  class TradingSignal <<BaseModel>> {
    + symbol : str
    + signal_type : Literal["BUY","SELL","HOLD"]
    + confidence_score : Decimal
    + timeframe_primary : str
    + timeframes_aligned : dict
    + rules_triggered : list[str]
    + leverage_suggested : int | None
    + margin_safety : Decimal | None
    + fees_estimated : Decimal | None
    + model_version : str
    + created_at : datetime | None
    - -
    <<constraint>> confidence >= 0.6
    <<constraint>> leverage 1-20
  }

  class SignalOutcome <<BaseModel>> {
    + signal_id : str
    + price_at_signal : Decimal
    + price_after_1h : Decimal | None
    + price_after_4h : Decimal | None
    + price_after_1d : Decimal | None
    + pnl_simulated : Decimal | None
    + was_correct : bool | None
    + evaluated_at : datetime
  }
}

package "user.py" #ECFDF5 {

  class UserCreate <<BaseModel>> {
    + username : str {3-100}
    + email : EmailStr
    + password : str {min 8}
    + persona_type : str
    - -
    trader | journalist | investor
  }

  class UserRead <<BaseModel>> {
    + id : str
    + username : str
    + email : str
    + persona_type : str
    + preferences : dict
    + created_at : datetime
  }
}

TradingSignal "1" - - "0..1" SignalOutcome : evaluation
OHLCVRecord ..> IndicatorRecord : calcule
IndicatorRecord ..> TradingSignal : genere
NewsArticle ..> TradingSignal : sentiment

@enduml

PlantUML version 1.2022.6(Tue Jun 21 19:34:49 CEST 2022)
(GPL source distribution)
Java Runtime: OpenJDK Runtime Environment
JVM: OpenJDK 64-Bit Server VM
Default Encoding: UTF-8
Language: en
Country: US
--></g></svg>