<?xml version="1.0" encoding="UTF-8" standalone="no"?><svg xmlns="http://www.w3.org/2000/svg" xmlns:xlink="http://www.w3.org/1999/xlink" contentStyleType="text/css" height="1267px" preserveAspectRatio="none" style="width:1260px;height:1267px;background:#FFFFFF;" version="1.1" viewBox="0 0 1260 1267" width="1260px" zoomAndPan="magnify"><defs/><g><rect fill="#FFFFFF" height="26.2969" rx="3" ry="3" style="stroke:#00000000;stroke-width:1.0;" width="344" x="454" y="10"/><text fill="#333333" font-family="&quot;Segoe UI, Helvetica, Arial, sans-serif&quot;" font-size="14" font-weight="bold" lengthAdjust="spacing" textLength="334" x="459" y="27.9951">CryptoBot — Chargement Page Dashboard</text><rect fill="#FFFFFF" height="16.2969" rx="3" ry="3" style="stroke:#00000000;stroke-width:1.0;" width="324" x="464" y="1242.1719"/><text fill="#333333" font-family="&quot;Segoe UI, Helvetica, Arial, sans-serif&quot;" font-size="14" lengthAdjust="spacing" textLength="324" x="464" y="1255.167">Streamlit -&gt; APIClient -&gt; FastAPI multi-endpoint</text><line style="stroke:#CCCCCC;stroke-width:0.5;stroke-dasharray:5.0,5.0;" x1="24" x2="24" y1="116.2656" y2="1167.2031"/><line style="stroke:#CCCCCC;stroke-width:0.5;stroke-dasharray:5.0,5.0;" x1="171" x2="171" y1="116.2656" y2="1167.2031"/><line style="stroke:#CCCCCC;stroke-width:0.5;stroke-dasharray:5.0,5.0;" x1="409.5" x2="409.5" y1="116.2656" y2="1167.2031"/><line style="stroke:#CCCCCC;stroke-width:0.5;stroke-dasharray:5.0,5.0;" x1="745.5" x2="745.5" y1="116.2656" y2="1167.2031"/><line style="stroke:#CCCCCC;stroke-width:0.5;stroke-dasharray:5.0,5.0;" x1="921" x2="921" y1="116.2656" y2="1167.2031"/><line style="stroke:#CCCCCC;stroke-width:0.5;stroke-dasharray:5.0,5.0;" x1="1033" x2="1033" y1="116.2656" y2="1167.2031"/><line style="stroke:#CCCCCC;stroke-width:0.5;stroke-dasharray:5.0,5.0;" x1="1205" x2="1205" y1="116.2656" y2="1167.2031"/><text fill="#333333" font-family="&quot;Segoe UI, Helvetica, Arial, sans-serif&quot;" font-size="12" lengthAdjust="spacing" textLength="33" x="5" y="113.4355">Noah</text><ellipse cx="24.5" cy="50.7969" fill="#E2E2F0" rx="8" ry="8" style="stroke:#7C5CFC;stroke-width:0.5;"/><path d="M24.5,58.7969 L24.5,85.7969 M11.5,66.7969 L37.5,66.7969 M24.5,85.7969 L11.5,100.7969 M24.5,85.7969 L37.5,100.7969 " fill="none" style="stroke:#7C5CFC;stroke-width:0.5;"/><text fill="#333333" font-family="&quot;Segoe UI, Helvetica, Arial, sans-serif&quot;" font-size="12" lengthAdjust="spacing" textLength="33" x="5" y="1177.3418">Noah</text><ellipse cx="24.5" cy="1188.6719" fill="#E2E2F0" rx="8" ry="8" style="stroke:#7C5CFC;stroke-width:0.5;"/><path d="M24.5,1196.6719 L24.5,1223.6719 M11.5,1204.6719 L37.5,1204.6719 M24.5,1223.6719 L11.5,1238.6719 M24.5,1223.6719 L37.5,1238.6719 " fill="none" style="stroke:#7C5CFC;stroke-width:0.5;"/><rect fill="#FEF3E8" height="41.9375" rx="3" ry="3" style="stroke:#4A6FA5;stroke-width:0.5;" width="83" x="130" y="73.3281"/><text fill="#333333" font-family="&quot;Segoe UI, Helvetica, Arial, sans-serif&quot;" font-size="12" lengthAdjust="spacing" textLength="56" x="143.5" y="91.4668">Streamlit</text><text fill="#333333" font-family="&quot;Segoe UI, Helvetica, Arial, sans-serif&quot;" font-size="12" lengthAdjust="spacing" textLength="69" x="137" y="105.4355">Dashboard</text><rect fill="#FEF3E8" height="41.9375" rx="3" ry="3" style="stroke:#4A6FA5;stroke-width:0.5;" width="83" x="130" y="1166.2031"/><text fill="#333333" font-family="&quot;Segoe UI, Helvetica, Arial, sans-serif&quot;" font-size="12" lengthAdjust="spacing" textLength="56" x="143.5" y="1184.3418">Streamlit</text><text fill="#333333" font-family="&quot;Segoe UI, Helvetica, Arial, sans-serif&quot;" font-size="12" lengthAdjust="spacing" textLength="69" x="137" y="1198.3105">Dashboard</text><rect fill="#F3EEFF" height="27.9688" rx="3" ry="3" style="stroke:#4A6FA5;stroke-width:0.5;" width="68" x="375.5" y="87.2969"/><text fill="#333333" font-family="&quot;Segoe UI, Helvetica, Arial, sans-serif&quot;" font-size="12" lengthAdjust="spacing" textLength="54" x="382.5" y="105.4355">APIClient</text><rect fill="#F3EEFF" height="27.9688" rx="3" ry="3" style="stroke:#4A6FA5;stroke-width:0.5;" width="68" x="375.5" y="1166.2031"/><text fill="#333333" font-family="&quot;Segoe UI, Helvetica, Arial, sans-serif&quot;" font-size="12" lengthAdjust="spacing" textLength="54" x="382.5" y="1184.3418">APIClient</text><rect fill="#FEF3E8" height="27.9688" rx="3" ry="3" style="stroke:#4A6FA5;stroke-width:0.5;" width="60" x="715.5" y="87.2969"/><text fill="#333333" font-family="&quot;Segoe UI, Helvetica, Arial, sans-serif&quot;" font-size="12" lengthAdjust="spacing" textLength="46" x="722.5" y="105.4355">FastAPI</text><rect fill="#FEF3E8" height="27.9688" rx="3" ry="3" style="stroke:#4A6FA5;stroke-width:0.5;" width="60" x="715.5" y="1166.2031"/><text fill="#333333" font-family="&quot;Segoe UI, Helvetica, Arial, sans-serif&quot;" font-size="12" lengthAdjust="spacing" textLength="46" x="722.5" y="1184.3418">FastAPI</text><rect fill="#F3EEFF" height="27.9688" rx="3" ry="3" style="stroke:#4A6FA5;stroke-width:0.5;" width="103" x="870" y="87.2969"/><text fill="#333333" font-family="&quot;Segoe UI, Helvetica, Arial, sans-serif&quot;" font-size="12" lengthAdjust="spacing" textLength="89" x="877" y="105.4355">crypto_service</text><rect fill="#F3EEFF" height="27.9688" rx="3" ry="3" style="stroke:#4A6FA5;stroke-width:0.5;" width="103" x="870" y="1166.2031"/><text fill="#333333" font-family="&quot;Segoe UI, Helvetica, Arial, sans-serif&quot;" font-size="12" lengthAdjust="spacing" textLength="89" x="877" y="1184.3418">crypto_service</text><rect fill="#F3EEFF" height="27.9688" rx="3" ry="3" style="stroke:#4A6FA5;stroke-width:0.5;" width="101" x="983" y="87.2969"/><text fill="#333333" font-family="&quot;Segoe UI, Helvetica, Arial, sans-serif&quot;" font-size="12" lengthAdjust="spacing" textLength="87" x="990" y="105.4355">signal_service</text><rect fill="#F3EEFF" height="27.9688" rx="3" ry="3" style="stroke:#4A6FA5;stroke-width:0.5;" width="101" x="983" y="1166.2031"/><text fill="#333333" font-family="&quot;Segoe UI, Helvetica, Arial, sans-serif&quot;" font-size="12" lengthAdjust="spacing" textLength="87" x="990" y="1184.3418">signal_service</text><text fill="#333333" font-family="&quot;Segoe UI, Helvetica, Arial, sans-serif&quot;" font-size="12" lengthAdjust="spacing" textLength="79" x="1163" y="113.4355">TimescaleDB</text><path d="M1187.5,66.2969 C1187.5,56.2969 1205.5,56.2969 1205.5,56.2969 C1205.5,56.2969 1223.5,56.2969 1223.5,66.2969 L1223.5,92.2969 C1223.5,102.2969 1205.5,102.2969 1205.5,102.2969 C1205.5,102.2969 1187.5,102.2969 1187.5,92.2969 L1187.5,66.2969 " fill="#ECFDF5" style="stroke:#34A853;stroke-width:1.5;"/><path d="M1187.5,66.2969 C1187.5,76.2969 1205.5,76.2969 1205.5,76.2969 C1205.5,76.2969 1223.5,76.2969 1223.5,66.2969 " fill="none" style="stroke:#34A853;stroke-width:1.5;"/><text fill="#333333" font-family="&quot;Segoe UI, Helvetica, Arial, sans-serif&quot;" font-size="12" lengthAdjust="spacing" textLength="79" x="1163" y="1177.3418">TimescaleDB</text><path d="M1187.5,1190.1719 C1187.5,1180.1719 1205.5,1180.1719 1205.5,1180.1719 C1205.5,1180.1719 1223.5,1180.1719 1223.5,1190.1719 L1223.5,1216.1719 C1223.5,1226.1719 1205.5,1226.1719 1205.5,1226.1719 C1205.5,1226.1719 1187.5,1226.1719 1187.5,1216.1719 L1187.5,1190.1719 " fill="#ECFDF5" style="stroke:#34A853;stroke-width:1.5;"/><path d="M1187.5,1190.1719 C1187.5,1200.1719 1205.5,1200.1719 1205.5,1200.1719 C1205.5,1200.1719 1223.5,1200.1719 1223.5,1190.1719 " fill="none" style="stroke:#34A853;stroke-width:1.5;"/><polygon fill="#4A6FA5" points="159.5,142.2344,169.5,146.2344,159.5,150.2344,163.5,146.2344" style="stroke:#4A6FA5;stroke-width:1.0;"/><line style="stroke:#4A6FA5;stroke-width:1.0;" x1="24.5" x2="165.5" y1="146.2344" y2="146.2344"/><text fill="#333333" font-family="&quot;Segoe UI, Helvetica, Arial, sans-serif&quot;" font-size="12" lengthAdjust="spacing" textLength="109" x="31.5" y="141.4043">Ouvre Dashboard</text><line style="stroke:#4A6FA5;stroke-width:1.0;" x1="171.5" x2="213.5" y1="174.2031" y2="174.2031"/><line style="stroke:#4A6FA5;stroke-width:1.0;" x1="213.5" x2="213.5" y1="174.2031" y2="187.2031"/><line style="stroke:#4A6FA5;stroke-width:1.0;" x1="172.5" x2="213.5" y1="187.2031" y2="187.2031"/><polygon fill="#4A6FA5" points="182.5,183.2031,172.5,187.2031,182.5,191.2031,178.5,187.2031" style="stroke:#4A6FA5;stroke-width:1.0;"/><text fill="#333333" font-family="&quot;Segoe UI, Helvetica, Arial, sans-serif&quot;" font-size="12" lengthAdjust="spacing" textLength="128" x="178.5" y="169.373">st.set_page_config()</text><rect fill="#4A6FA5" height="3" rx="3" ry="3" style="stroke:#4A6FA5;stroke-width:1.0;" width="1253" x="0" y="215.1875"/><line style="stroke:#000000;stroke-width:1.0;" x1="0" x2="1253" y1="215.1875" y2="215.1875"/><line style="stroke:#000000;stroke-width:1.0;" x1="0" x2="1253" y1="218.1875" y2="218.1875"/><rect fill="#4A6FA5" height="21.9688" rx="3" ry="3" style="stroke:#000000;stroke-width:2.0;" width="172" x="540.5" y="205.2031"/><text fill="#FFFFFF" font-family="&quot;Segoe UI, Helvetica, Arial, sans-serif&quot;" font-size="12" font-weight="bold" lengthAdjust="spacing" textLength="154" x="546.5" y="220.3418">Chargement parallele</text><polygon fill="#4A6FA5" points="397.5,253.1406,407.5,257.1406,397.5,261.1406,401.5,257.1406" style="stroke:#4A6FA5;stroke-width:1.0;"/><line style="stroke:#4A6FA5;stroke-width:1.0;" x1="171.5" x2="403.5" y1="257.1406" y2="257.1406"/><text fill="#333333" font-family="&quot;Segoe UI, Helvetica, Arial, sans-serif&quot;" font-size="12" lengthAdjust="spacing" textLength="100" x="178.5" y="252.3105">get_crypto_list()</text><polygon fill="#4A6FA5" points="733.5,281.1094,743.5,285.1094,733.5,289.1094,737.5,285.1094" style="stroke:#4A6FA5;stroke-width:1.0;"/><line style="stroke:#4A6FA5;stroke-width:1.0;" x1="409.5" x2="739.5" y1="285.1094" y2="285.1094"/><text fill="#333333" font-family="&quot;Segoe UI, Helvetica, Arial, sans-serif&quot;" font-size="12" lengthAdjust="spacing" textLength="134" x="416.5" y="280.2793">GET /api/v1/crypto/list</text><polygon fill="#4A6FA5" points="909.5,309.0781,919.5,313.0781,909.5,317.0781,913.5,313.0781" style="stroke:#4A6FA5;stroke-width:1.0;"/><line style="stroke:#4A6FA5;stroke-width:1.0;" x1="745.5" x2="915.5" y1="313.0781" y2="313.0781"/><text fill="#333333" font-family="&quot;Segoe UI, Helvetica, Arial, sans-serif&quot;" font-size="12" lengthAdjust="spacing" textLength="82" x="752.5" y="308.248">list_tracked()</text><polygon fill="#4A6FA5" points="756.5,337.0469,746.5,341.0469,756.5,345.0469,752.5,341.0469" style="stroke:#4A6FA5;stroke-width:1.0;"/><line style="stroke:#4A6FA5;stroke-width:1.0;stroke-dasharray:2.0,2.0;" x1="750.5" x2="920.5" y1="341.0469" y2="341.0469"/><text fill="#333333" font-family="&quot;Segoe UI, Helvetica, Arial, sans-serif&quot;" font-size="12" lengthAdjust="spacing" textLength="116" x="762.5" y="336.2168">list[CryptoListItem]</text><polygon fill="#4A6FA5" points="420.5,365.0156,410.5,369.0156,420.5,373.0156,416.5,369.0156" style="stroke:#4A6FA5;stroke-width:1.0;"/><line style="stroke:#4A6FA5;stroke-width:1.0;stroke-dasharray:2.0,2.0;" x1="414.5" x2="744.5" y1="369.0156" y2="369.0156"/><text fill="#333333" font-family="&quot;Segoe UI, Helvetica, Arial, sans-serif&quot;" font-size="12" lengthAdjust="spacing" textLength="24" x="426.5" y="364.1855">200</text><polygon fill="#4A6FA5" points="397.5,392.9844,407.5,396.9844,397.5,400.9844,401.5,396.9844" style="stroke:#4A6FA5;stroke-width:1.0;"/><line style="stroke:#4A6FA5;stroke-width:1.0;" x1="171.5" x2="403.5" y1="396.9844" y2="396.9844"/><text fill="#333333" font-family="&quot;Segoe UI, Helvetica, Arial, sans-serif&quot;" font-size="12" lengthAdjust="spacing" textLength="152" x="178.5" y="392.1543">get_prices(symbol, "4h")</text><polygon fill="#4A6FA5" points="733.5,420.9531,743.5,424.9531,733.5,428.9531,737.5,424.9531" style="stroke:#4A6FA5;stroke-width:1.0;"/><line style="stroke:#4A6FA5;stroke-width:1.0;" x1="409.5" x2="739.5" y1="424.9531" y2="424.9531"/><text fill="#333333" font-family="&quot;Segoe UI, Helvetica, Arial, sans-serif&quot;" font-size="12" lengthAdjust="spacing" textLength="312" x="416.5" y="420.123">GET /api/v1/crypto/{symbol}/prices?timeframe=4h</text><polygon fill="#4A6FA5" points="909.5,448.9219,919.5,452.9219,909.5,456.9219,913.5,452.9219" style="stroke:#4A6FA5;stroke-width:1.0;"/><line style="stroke:#4A6FA5;stroke-width:1.0;" x1="745.5" x2="915.5" y1="452.9219" y2="452.9219"/><text fill="#333333" font-family="&quot;Segoe UI, Helvetica, Arial, sans-serif&quot;" font-size="12" lengthAdjust="spacing" textLength="152" x="752.5" y="448.0918">get_prices(symbol, "4h")</text><polygon fill="#4A6FA5" points="1193.5,476.8906,1203.5,480.8906,1193.5,484.8906,1197.5,480.8906" style="stroke:#4A6FA5;stroke-width:1.0;"/><line style="stroke:#4A6FA5;stroke-width:1.0;" x1="921.5" x2="1199.5" y1="480.8906" y2="480.8906"/><text fill="#333333" font-family="&quot;Segoe UI, Helvetica, Arial, sans-serif&quot;" font-size="12" lengthAdjust="spacing" textLength="132" x="928.5" y="476.0605">SELECT crypto_prices</text><polygon fill="#4A6FA5" points="932.5,504.8594,922.5,508.8594,932.5,512.8594,928.5,508.8594" style="stroke:#4A6FA5;stroke-width:1.0;"/><line style="stroke:#4A6FA5;stroke-width:1.0;stroke-dasharray:2.0,2.0;" x1="926.5" x2="1204.5" y1="508.8594" y2="508.8594"/><text fill="#333333" font-family="&quot;Segoe UI, Helvetica, Arial, sans-serif&quot;" font-size="12" lengthAdjust="spacing" textLength="29" x="938.5" y="504.0293">rows</text><polygon fill="#4A6FA5" points="756.5,532.8281,746.5,536.8281,756.5,540.8281,752.5,536.8281" style="stroke:#4A6FA5;stroke-width:1.0;"/><line style="stroke:#4A6FA5;stroke-width:1.0;stroke-dasharray:2.0,2.0;" x1="750.5" x2="920.5" y1="536.8281" y2="536.8281"/><text fill="#333333" font-family="&quot;Segoe UI, Helvetica, Arial, sans-serif&quot;" font-size="12" lengthAdjust="spacing" textLength="130" x="762.5" y="531.998">list[OHLCVResponse]</text><polygon fill="#4A6FA5" points="420.5,560.7969,410.5,564.7969,420.5,568.7969,416.5,564.7969" style="stroke:#4A6FA5;stroke-width:1.0;"/><line style="stroke:#4A6FA5;stroke-width:1.0;stroke-dasharray:2.0,2.0;" x1="414.5" x2="744.5" y1="564.7969" y2="564.7969"/><text fill="#333333" font-family="&quot;Segoe UI, Helvetica, Arial, sans-serif&quot;" font-size="12" lengthAdjust="spacing" textLength="24" x="426.5" y="559.9668">200</text><polygon fill="#4A6FA5" points="397.5,588.7656,407.5,592.7656,397.5,596.7656,401.5,592.7656" style="stroke:#4A6FA5;stroke-width:1.0;"/><line style="stroke:#4A6FA5;stroke-width:1.0;" x1="171.5" x2="403.5" y1="592.7656" y2="592.7656"/><text fill="#333333" font-family="&quot;Segoe UI, Helvetica, Arial, sans-serif&quot;" font-size="12" lengthAdjust="spacing" textLength="176" x="178.5" y="587.9355">get_indicators(symbol, "4h")</text><polygon fill="#4A6FA5" points="733.5,616.7344,743.5,620.7344,733.5,624.7344,737.5,620.7344" style="stroke:#4A6FA5;stroke-width:1.0;"/><line style="stroke:#4A6FA5;stroke-width:1.0;" x1="409.5" x2="739.5" y1="620.7344" y2="620.7344"/><text fill="#333333" font-family="&quot;Segoe UI, Helvetica, Arial, sans-serif&quot;" font-size="12" lengthAdjust="spacing" textLength="241" x="416.5" y="615.9043">GET /api/v1/crypto/{symbol}/indicators</text><polygon fill="#4A6FA5" points="909.5,644.7031,919.5,648.7031,909.5,652.7031,913.5,648.7031" style="stroke:#4A6FA5;stroke-width:1.0;"/><line style="stroke:#4A6FA5;stroke-width:1.0;" x1="745.5" x2="915.5" y1="648.7031" y2="648.7031"/><text fill="#333333" font-family="&quot;Segoe UI, Helvetica, Arial, sans-serif&quot;" font-size="12" lengthAdjust="spacing" textLength="99" x="752.5" y="643.873">get_indicators()</text><polygon fill="#4A6FA5" points="1193.5,672.6719,1203.5,676.6719,1193.5,680.6719,1197.5,676.6719" style="stroke:#4A6FA5;stroke-width:1.0;"/><line style="stroke:#4A6FA5;stroke-width:1.0;" x1="921.5" x2="1199.5" y1="676.6719" y2="676.6719"/><text fill="#333333" font-family="&quot;Segoe UI, Helvetica, Arial, sans-serif&quot;" font-size="12" lengthAdjust="spacing" textLength="111" x="928.5" y="671.8418">SELECT indicators</text><polygon fill="#4A6FA5" points="932.5,700.6406,922.5,704.6406,932.5,708.6406,928.5,704.6406" style="stroke:#4A6FA5;stroke-width:1.0;"/><line style="stroke:#4A6FA5;stroke-width:1.0;stroke-dasharray:2.0,2.0;" x1="926.5" x2="1204.5" y1="704.6406" y2="704.6406"/><text fill="#333333" font-family="&quot;Segoe UI, Helvetica, Arial, sans-serif&quot;" font-size="12" lengthAdjust="spacing" textLength="29" x="938.5" y="699.8105">rows</text><polygon fill="#4A6FA5" points="756.5,728.6094,746.5,732.6094,756.5,736.6094,752.5,732.6094" style="stroke:#4A6FA5;stroke-width:1.0;"/><line style="stroke:#4A6FA5;stroke-width:1.0;stroke-dasharray:2.0,2.0;" x1="750.5" x2="920.5" y1="732.6094" y2="732.6094"/><text fill="#333333" font-family="&quot;Segoe UI, Helvetica, Arial, sans-serif&quot;" font-size="12" lengthAdjust="spacing" textLength="145" x="762.5" y="727.7793">list[IndicatorResponse]</text><polygon fill="#4A6FA5" points="420.5,756.5781,410.5,760.5781,420.5,764.5781,416.5,760.5781" style="stroke:#4A6FA5;stroke-width:1.0;"/><line style="stroke:#4A6FA5;stroke-width:1.0;stroke-dasharray:2.0,2.0;" x1="414.5" x2="744.5" y1="760.5781" y2="760.5781"/><text fill="#333333" font-family="&quot;Segoe UI, Helvetica, Arial, sans-serif&quot;" font-size="12" lengthAdjust="spacing" textLength="24" x="426.5" y="755.748">200</text><polygon fill="#4A6FA5" points="397.5,784.5469,407.5,788.5469,397.5,792.5469,401.5,788.5469" style="stroke:#4A6FA5;stroke-width:1.0;"/><line style="stroke:#4A6FA5;stroke-width:1.0;" x1="171.5" x2="403.5" y1="788.5469" y2="788.5469"/><text fill="#333333" font-family="&quot;Segoe UI, Helvetica, Arial, sans-serif&quot;" font-size="12" lengthAdjust="spacing" textLength="124" x="178.5" y="783.7168">get_active_signals()</text><polygon fill="#4A6FA5" points="733.5,812.5156,743.5,816.5156,733.5,820.5156,737.5,816.5156" style="stroke:#4A6FA5;stroke-width:1.0;"/><line style="stroke:#4A6FA5;stroke-width:1.0;" x1="409.5" x2="739.5" y1="816.5156" y2="816.5156"/><text fill="#333333" font-family="&quot;Segoe UI, Helvetica, Arial, sans-serif&quot;" font-size="12" lengthAdjust="spacing" textLength="158" x="416.5" y="811.6855">GET /api/v1/signals/active</text><polygon fill="#4A6FA5" points="1021.5,840.4844,1031.5,844.4844,1021.5,848.4844,1025.5,844.4844" style="stroke:#4A6FA5;stroke-width:1.0;"/><line style="stroke:#4A6FA5;stroke-width:1.0;" x1="745.5" x2="1027.5" y1="844.4844" y2="844.4844"/><text fill="#333333" font-family="&quot;Segoe UI, Helvetica, Arial, sans-serif&quot;" font-size="12" lengthAdjust="spacing" textLength="74" x="752.5" y="839.6543">get_active()</text><polygon fill="#4A6FA5" points="1193.5,868.4531,1203.5,872.4531,1193.5,876.4531,1197.5,872.4531" style="stroke:#4A6FA5;stroke-width:1.0;"/><line style="stroke:#4A6FA5;stroke-width:1.0;" x1="1033.5" x2="1199.5" y1="872.4531" y2="872.4531"/><text fill="#333333" font-family="&quot;Segoe UI, Helvetica, Arial, sans-serif&quot;" font-size="12" lengthAdjust="spacing" textLength="148" x="1040.5" y="867.623">SELECT signals last 24h</text><polygon fill="#4A6FA5" points="1044.5,896.4219,1034.5,900.4219,1044.5,904.4219,1040.5,900.4219" style="stroke:#4A6FA5;stroke-width:1.0;"/><line style="stroke:#4A6FA5;stroke-width:1.0;stroke-dasharray:2.0,2.0;" x1="1038.5" x2="1204.5" y1="900.4219" y2="900.4219"/><text fill="#333333" font-family="&quot;Segoe UI, Helvetica, Arial, sans-serif&quot;" font-size="12" lengthAdjust="spacing" textLength="29" x="1050.5" y="895.5918">rows</text><polygon fill="#4A6FA5" points="756.5,924.3906,746.5,928.3906,756.5,932.3906,752.5,928.3906" style="stroke:#4A6FA5;stroke-width:1.0;"/><line style="stroke:#4A6FA5;stroke-width:1.0;stroke-dasharray:2.0,2.0;" x1="750.5" x2="1032.5" y1="928.3906" y2="928.3906"/><text fill="#333333" font-family="&quot;Segoe UI, Helvetica, Arial, sans-serif&quot;" font-size="12" lengthAdjust="spacing" textLength="128" x="762.5" y="923.5605">list[SignalResponse]</text><polygon fill="#4A6FA5" points="420.5,952.3594,410.5,956.3594,420.5,960.3594,416.5,956.3594" style="stroke:#4A6FA5;stroke-width:1.0;"/><line style="stroke:#4A6FA5;stroke-width:1.0;stroke-dasharray:2.0,2.0;" x1="414.5" x2="744.5" y1="956.3594" y2="956.3594"/><text fill="#333333" font-family="&quot;Segoe UI, Helvetica, Arial, sans-serif&quot;" font-size="12" lengthAdjust="spacing" textLength="24" x="426.5" y="951.5293">200</text><rect fill="#4A6FA5" height="3" rx="3" ry="3" style="stroke:#4A6FA5;stroke-width:1.0;" width="1253" x="0" y="984.3438"/><line style="stroke:#000000;stroke-width:1.0;" x1="0" x2="1253" y1="984.3438" y2="984.3438"/><line style="stroke:#000000;stroke-width:1.0;" x1="0" x2="1253" y1="987.3438" y2="987.3438"/><rect fill="#4A6FA5" height="21.9688" rx="3" ry="3" style="stroke:#000000;stroke-width:2.0;" width="63" x="595" y="974.3594"/><text fill="#FFFFFF" font-family="&quot;Segoe UI, Helvetica, Arial, sans-serif&quot;" font-size="12" font-weight="bold" lengthAdjust="spacing" textLength="45" x="601" y="989.498">Rendu</text><line style="stroke:#4A6FA5;stroke-width:1.0;" x1="171.5" x2="213.5" y1="1026.2969" y2="1026.2969"/><line style="stroke:#4A6FA5;stroke-width:1.0;" x1="213.5" x2="213.5" y1="1026.2969" y2="1039.2969"/><line style="stroke:#4A6FA5;stroke-width:1.0;" x1="172.5" x2="213.5" y1="1039.2969" y2="1039.2969"/><polygon fill="#4A6FA5" points="182.5,1035.2969,172.5,1039.2969,182.5,1043.2969,178.5,1039.2969" style="stroke:#4A6FA5;stroke-width:1.0;"/><text fill="#333333" font-family="&quot;Segoe UI, Helvetica, Arial, sans-serif&quot;" font-size="12" lengthAdjust="spacing" textLength="224" x="178.5" y="1021.4668">CandlestickChart(prices, indicators)</text><line style="stroke:#4A6FA5;stroke-width:1.0;" x1="171.5" x2="213.5" y1="1067.2656" y2="1067.2656"/><line style="stroke:#4A6FA5;stroke-width:1.0;" x1="213.5" x2="213.5" y1="1067.2656" y2="1080.2656"/><line style="stroke:#4A6FA5;stroke-width:1.0;" x1="172.5" x2="213.5" y1="1080.2656" y2="1080.2656"/><polygon fill="#4A6FA5" points="182.5,1076.2656,172.5,1080.2656,182.5,1084.2656,178.5,1080.2656" style="stroke:#4A6FA5;stroke-width:1.0;"/><text fill="#333333" font-family="&quot;Segoe UI, Helvetica, Arial, sans-serif&quot;" font-size="12" lengthAdjust="spacing" textLength="121" x="178.5" y="1062.4355">SignalCard(signals)</text><line style="stroke:#4A6FA5;stroke-width:1.0;" x1="171.5" x2="213.5" y1="1108.2344" y2="1108.2344"/><line style="stroke:#4A6FA5;stroke-width:1.0;" x1="213.5" x2="213.5" y1="1108.2344" y2="1121.2344"/><line style="stroke:#4A6FA5;stroke-width:1.0;" x1="172.5" x2="213.5" y1="1121.2344" y2="1121.2344"/><polygon fill="#4A6FA5" points="182.5,1117.2344,172.5,1121.2344,182.5,1125.2344,178.5,1121.2344" style="stroke:#4A6FA5;stroke-width:1.0;"/><text fill="#333333" font-family="&quot;Segoe UI, Helvetica, Arial, sans-serif&quot;" font-size="12" lengthAdjust="spacing" textLength="162" x="178.5" y="1103.4043">IndicatorPanel(indicators)</text><polygon fill="#4A6FA5" points="35.5,1145.2031,25.5,1149.2031,35.5,1153.2031,31.5,1149.2031" style="stroke:#4A6FA5;stroke-width:1.0;"/><line style="stroke:#4A6FA5;stroke-width:1.0;stroke-dasharray:2.0,2.0;" x1="29.5" x2="170.5" y1="1149.2031" y2="1149.2031"/><text fill="#333333" font-family="&quot;Segoe UI, Helvetica, Arial, sans-serif&quot;" font-size="12" lengthAdjust="spacing" textLength="123" x="41.5" y="1144.373">Dashboard complet</text><!--MD5=[2319b20863ab19fcaacad5da8a748c96]
@startuml SQ02-dashboard-request
!include _common.puml

title CryptoBot — Chargement Page Dashboard
caption Streamlit -> APIClient -> FastAPI multi-endpoint

actor "Noah" as user
participant "Streamlit\nDashboard" as st #FEF3E8
participant "APIClient" as client #F3EEFF
participant "FastAPI" as api #FEF3E8
participant "crypto_service" as csvc #F3EEFF
participant "signal_service" as ssvc #F3EEFF
database "TimescaleDB" as db #ECFDF5

user -> st : Ouvre Dashboard
st -> st : st.set_page_config()

== Chargement parallele ==
st -> client : get_crypto_list()
client -> api : GET /api/v1/crypto/list
api -> csvc : list_tracked()
csvc - -> api : list[CryptoListItem]
api - -> client : 200

st -> client : get_prices(symbol, "4h")
client -> api : GET /api/v1/crypto/{symbol}/prices?timeframe=4h
api -> csvc : get_prices(symbol, "4h")
csvc -> db : SELECT crypto_prices
db - -> csvc : rows
csvc - -> api : list[OHLCVResponse]
api - -> client : 200

st -> client : get_indicators(symbol, "4h")
client -> api : GET /api/v1/crypto/{symbol}/indicators
api -> csvc : get_indicators()
csvc -> db : SELECT indicators
db - -> csvc : rows
csvc - -> api : list[IndicatorResponse]
api - -> client : 200

st -> client : get_active_signals()
client -> api : GET /api/v1/signals/active
api -> ssvc : get_active()
ssvc -> db : SELECT signals last 24h
db - -> ssvc : rows
ssvc - -> api : list[SignalResponse]
api - -> client : 200

== Rendu ==
st -> st : CandlestickChart(prices, indicators)
st -> st : SignalCard(signals)
st -> st : IndicatorPanel(indicators)
st - -> user : Dashboard complet

@enduml

@startuml SQ02-dashboard-request

skinparam backgroundColor white
skinparam defaultFontName "Segoe UI, Helvetica, Arial, sans-serif"
skinparam defaultFontSize 12
skinparam defaultFontColor #333333
skinparam shadowing false
skinparam roundCorner 6


skinparam component {
  BackgroundColor #F3EEFF
  BorderColor #7C5CFC
  FontColor #333333
  ArrowColor #4A6FA5
  StereotypeFontColor #7C5CFC
}

skinparam package {
  BackgroundColor #F5F5F5
  BorderColor #4A6FA5
  FontColor #333333
}

skinparam class {
  BackgroundColor #ECFDF5
  BorderColor #34A853
  FontColor #333333
  HeaderBackgroundColor #34A853
  HeaderFontColor white
  ArrowColor #4A6FA5
  StereotypeFontColor #7C5CFC
  AttributeFontColor #555555
}

skinparam sequence {
  ArrowColor #4A6FA5
  ActorBorderColor #7C5CFC
  LifeLineBorderColor #CCCCCC
  LifeLineBackgroundColor #F5F5F5
  ParticipantBorderColor #4A6FA5
  ParticipantBackgroundColor #F3EEFF
  ParticipantFontColor #333333
  BoxBorderColor #CCCCCC
  BoxBackgroundColor #F5F5F5
  DividerBackgroundColor #4A6FA5
  DividerFontColor white
}

skinparam activity {
  BackgroundColor #FEF3E8
  BorderColor #E8943A
  FontColor #333333
  ArrowColor #4A6FA5
  DiamondBackgroundColor #F3EEFF
  DiamondBorderColor #7C5CFC
}

skinparam node {
  BackgroundColor #F3EEFF
  BorderColor #7C5CFC
  FontColor #333333
}

skinparam database {
  BackgroundColor #ECFDF5
  BorderColor #34A853
  FontColor #333333
}

skinparam entity {
  BackgroundColor white
  BorderColor #4A6FA5
  FontColor #333333
  HeaderBackgroundColor #4A6FA5
  HeaderFontColor white
}

skinparam state {
  BackgroundColor #FEF3E8
  BorderColor #E8943A
  FontColor #333333
  ArrowColor #4A6FA5
}

skinparam usecase {
  BackgroundColor #F3EEFF
  BorderColor #7C5CFC
  FontColor #333333
  ArrowColor #4A6FA5
  ActorBorderColor #E8943A
}

skinparam note {
  BackgroundColor #FEF3E8
  BorderColor #E8943A
  FontColor #333333
}

skinparam legend {
  BackgroundColor #F5F5F5
  BorderColor #CCCCCC
  FontColor #333333
}



title CryptoBot — Chargement Page Dashboard
caption Streamlit -> APIClient -> FastAPI multi-endpoint

actor "Noah" as user
participant "Streamlit\nDashboard" as st #FEF3E8
participant "APIClient" as client #F3EEFF
participant "FastAPI" as api #FEF3E8
participant "crypto_service" as csvc #F3EEFF
participant "signal_service" as ssvc #F3EEFF
database "TimescaleDB" as db #ECFDF5

user -> st : Ouvre Dashboard
st -> st : st.set_page_config()

== Chargement parallele ==
st -> client : get_crypto_list()
client -> api : GET /api/v1/crypto/list
api -> csvc : list_tracked()
csvc - -> api : list[CryptoListItem]
api - -> client : 200

st -> client : get_prices(symbol, "4h")
client -> api : GET /api/v1/crypto/{symbol}/prices?timeframe=4h
api -> csvc : get_prices(symbol, "4h")
csvc -> db : SELECT crypto_prices
db - -> csvc : rows
csvc - -> api : list[OHLCVResponse]
api - -> client : 200

st -> client : get_indicators(symbol, "4h")
client -> api : GET /api/v1/crypto/{symbol}/indicators
api -> csvc : get_indicators()
csvc -> db : SELECT indicators
db - -> csvc : rows
csvc - -> api : list[IndicatorResponse]
api - -> client : 200

st -> client : get_active_signals()
client -> api : GET /api/v1/signals/active
api -> ssvc : get_active()
ssvc -> db : SELECT signals last 24h
db - -> ssvc : rows
ssvc - -> api : list[SignalResponse]
api - -> client : 200

== Rendu ==
st -> st : CandlestickChart(prices, indicators)
st -> st : SignalCard(signals)
st -> st : IndicatorPanel(indicators)
st - -> user : Dashboard complet

@enduml

PlantUML version 1.2022.6(Tue Jun 21 19:34:49 CEST 2022)
(GPL source distribution)
Java Runtime: OpenJDK Runtime Environment
JVM: OpenJDK 64-Bit Server VM
Default Encoding: UTF-8
Language: en
Country: US
--></g></svg>