<?xml version="1.0" encoding="UTF-8" standalone="no"?><svg xmlns="http://www.w3.org/2000/svg" xmlns:xlink="http://www.w3.org/1999/xlink" contentStyleType="text/css" height="1376px" preserveAspectRatio="none" style="width:1058px;height:1376px;background:#FFFFFF;" version="1.1" viewBox="0 0 1058 1376" width="1058px" zoomAndPan="magnify"><defs/><g><rect fill="#FFFFFF" height="26.2969" rx="3" ry="3" style="stroke:#00000000;stroke-width:1.0;" width="360" x="350.75" y="10"/><text fill="#333333" font-family="&quot;Segoe UI, Helvetica, Arial, sans-serif&quot;" font-size="14" font-weight="bold" lengthAdjust="spacing" textLength="350" x="355.75" y="27.9951">CryptoBot — Pipeline Generation de Signaux</text><rect fill="#FFFFFF" height="16.2969" rx="3" ry="3" style="stroke:#00000000;stroke-width:1.0;" width="374" x="343.75" y="1350.9219"/><text fill="#333333" font-family="&quot;Segoe UI, Helvetica, Arial, sans-serif&quot;" font-size="14" lengthAdjust="spacing" textLength="374" x="343.75" y="1363.917">APScheduler -&gt; RuleEngine -&gt; SignalGenerator -&gt; DB</text><rect fill="#F5F5F5" height="1125.7188" rx="3" ry="3" style="stroke:#4A6FA5;stroke-width:1.5;" width="818" x="234.5" y="147.2344"/><rect fill="#F5F5F5" height="635.3125" rx="3" ry="3" style="stroke:#4A6FA5;stroke-width:1.5;" width="798" x="244.5" y="630.6406"/><rect fill="#F5F5F5" height="140.8125" rx="3" ry="3" style="stroke:#4A6FA5;stroke-width:1.5;" width="595" x="254.5" y="681.5781"/><rect fill="#F5F5F5" height="112.875" rx="3" ry="3" style="stroke:#4A6FA5;stroke-width:1.5;" width="683" x="254.5" y="836.3906"/><rect fill="#F5F5F5" height="128.8438" rx="3" ry="3" style="stroke:#4A6FA5;stroke-width:1.5;" width="778" x="254.5" y="1086.1719"/><path d="M254.5,1158.0781 L1032.5,1158.0781 L1032.5,1212.0156 A3,3 0 0 1 1029.5,1215.0156 L257.5,1215.0156 A3,3 0 0 1 254.5,1212.0156 L254.5,1158.0781 " fill="#F5F5F5" style="stroke:none;stroke-width:1.0;"/><path d="M244.5,1222.0156 L1042.5,1222.0156 L1042.5,1262.9531 A3,3 0 0 1 1039.5,1265.9531 L247.5,1265.9531 A3,3 0 0 1 244.5,1262.9531 L244.5,1222.0156 " fill="#F5F5F5" style="stroke:none;stroke-width:1.0;"/><line style="stroke:#CCCCCC;stroke-width:0.5;stroke-dasharray:5.0,5.0;" x1="51" x2="51" y1="102.2656" y2="1289.9531"/><line style="stroke:#CCCCCC;stroke-width:0.5;stroke-dasharray:5.0,5.0;" x1="322.5" x2="322.5" y1="102.2656" y2="1289.9531"/><line style="stroke:#CCCCCC;stroke-width:0.5;stroke-dasharray:5.0,5.0;" x1="525.5" x2="525.5" y1="102.2656" y2="1289.9531"/><line style="stroke:#CCCCCC;stroke-width:0.5;stroke-dasharray:5.0,5.0;" x1="678.5" x2="678.5" y1="102.2656" y2="1289.9531"/><line style="stroke:#CCCCCC;stroke-width:0.5;stroke-dasharray:5.0,5.0;" x1="801.5" x2="801.5" y1="102.2656" y2="1289.9531"/><line style="stroke:#CCCCCC;stroke-width:0.5;stroke-dasharray:5.0,5.0;" x1="888.5" x2="888.5" y1="102.2656" y2="1289.9531"/><line style="stroke:#CCCCCC;stroke-width:0.5;stroke-dasharray:5.0,5.0;" x1="979.5" x2="979.5" y1="102.2656" y2="1289.9531"/><rect fill="#F5F5F5" height="27.9688" rx="3" ry="3" style="stroke:#4A6FA5;stroke-width:0.5;" width="93" x="5" y="73.2969"/><text fill="#333333" font-family="&quot;Segoe UI, Helvetica, Arial, sans-serif&quot;" font-size="12" lengthAdjust="spacing" textLength="79" x="12" y="91.4355">APScheduler</text><rect fill="#F5F5F5" height="27.9688" rx="3" ry="3" style="stroke:#4A6FA5;stroke-width:0.5;" width="93" x="5" y="1288.9531"/><text fill="#333333" font-family="&quot;Segoe UI, Helvetica, Arial, sans-serif&quot;" font-size="12" lengthAdjust="spacing" textLength="79" x="12" y="1307.0918">APScheduler</text><rect fill="#FEF3E8" height="27.9688" rx="3" ry="3" style="stroke:#4A6FA5;stroke-width:0.5;" width="116" x="264.5" y="73.2969"/><text fill="#333333" font-family="&quot;Segoe UI, Helvetica, Arial, sans-serif&quot;" font-size="12" lengthAdjust="spacing" textLength="102" x="271.5" y="91.4355">SignalGenerator</text><rect fill="#FEF3E8" height="27.9688" rx="3" ry="3" style="stroke:#4A6FA5;stroke-width:0.5;" width="116" x="264.5" y="1288.9531"/><text fill="#333333" font-family="&quot;Segoe UI, Helvetica, Arial, sans-serif&quot;" font-size="12" lengthAdjust="spacing" textLength="102" x="271.5" y="1307.0918">SignalGenerator</text><rect fill="#F3EEFF" height="27.9688" rx="3" ry="3" style="stroke:#4A6FA5;stroke-width:0.5;" width="84" x="483.5" y="73.2969"/><text fill="#333333" font-family="&quot;Segoe UI, Helvetica, Arial, sans-serif&quot;" font-size="12" lengthAdjust="spacing" textLength="70" x="490.5" y="91.4355">RuleEngine</text><rect fill="#F3EEFF" height="27.9688" rx="3" ry="3" style="stroke:#4A6FA5;stroke-width:0.5;" width="84" x="483.5" y="1288.9531"/><text fill="#333333" font-family="&quot;Segoe UI, Helvetica, Arial, sans-serif&quot;" font-size="12" lengthAdjust="spacing" textLength="70" x="490.5" y="1307.0918">RuleEngine</text><rect fill="#F3EEFF" height="41.9375" rx="3" ry="3" style="stroke:#4A6FA5;stroke-width:0.5;" width="152" x="602.5" y="59.3281"/><text fill="#333333" font-family="&quot;Segoe UI, Helvetica, Arial, sans-serif&quot;" font-size="12" lengthAdjust="spacing" textLength="66" x="645.5" y="77.4668">Evaluators</text><text fill="#333333" font-family="&quot;Segoe UI, Helvetica, Arial, sans-serif&quot;" font-size="12" lengthAdjust="spacing" textLength="138" x="609.5" y="91.4355">(RSI, BB, Harm, Trend)</text><rect fill="#F3EEFF" height="41.9375" rx="3" ry="3" style="stroke:#4A6FA5;stroke-width:0.5;" width="152" x="602.5" y="1288.9531"/><text fill="#333333" font-family="&quot;Segoe UI, Helvetica, Arial, sans-serif&quot;" font-size="12" lengthAdjust="spacing" textLength="66" x="645.5" y="1307.0918">Evaluators</text><text fill="#333333" font-family="&quot;Segoe UI, Helvetica, Arial, sans-serif&quot;" font-size="12" lengthAdjust="spacing" textLength="138" x="609.5" y="1321.0605">(RSI, BB, Harm, Trend)</text><rect fill="#FEF3E8" height="41.9375" rx="3" ry="3" style="stroke:#4A6FA5;stroke-width:0.5;" width="75" x="764.5" y="59.3281"/><text fill="#333333" font-family="&quot;Segoe UI, Helvetica, Arial, sans-serif&quot;" font-size="12" lengthAdjust="spacing" textLength="57" x="773.5" y="77.4668">Predictor</text><text fill="#333333" font-family="&quot;Segoe UI, Helvetica, Arial, sans-serif&quot;" font-size="12" lengthAdjust="spacing" textLength="61" x="771.5" y="91.4355">(Phase 2)</text><rect fill="#FEF3E8" height="41.9375" rx="3" ry="3" style="stroke:#4A6FA5;stroke-width:0.5;" width="75" x="764.5" y="1288.9531"/><text fill="#333333" font-family="&quot;Segoe UI, Helvetica, Arial, sans-serif&quot;" font-size="12" lengthAdjust="spacing" textLength="57" x="773.5" y="1307.0918">Predictor</text><text fill="#333333" font-family="&quot;Segoe UI, Helvetica, Arial, sans-serif&quot;" font-size="12" lengthAdjust="spacing" textLength="61" x="771.5" y="1321.0605">(Phase 2)</text><rect fill="#F3EEFF" height="41.9375" rx="3" ry="3" style="stroke:#4A6FA5;stroke-width:0.5;" width="78" x="849.5" y="59.3281"/><text fill="#333333" font-family="&quot;Segoe UI, Helvetica, Arial, sans-serif&quot;" font-size="12" lengthAdjust="spacing" textLength="23" x="877" y="77.4668">NLP</text><text fill="#333333" font-family="&quot;Segoe UI, Helvetica, Arial, sans-serif&quot;" font-size="12" lengthAdjust="spacing" textLength="64" x="856.5" y="91.4355">Sentiment</text><rect fill="#F3EEFF" height="41.9375" rx="3" ry="3" style="stroke:#4A6FA5;stroke-width:0.5;" width="78" x="849.5" y="1288.9531"/><text fill="#333333" font-family="&quot;Segoe UI, Helvetica, Arial, sans-serif&quot;" font-size="12" lengthAdjust="spacing" textLength="23" x="877" y="1307.0918">NLP</text><text fill="#333333" font-family="&quot;Segoe UI, Helvetica, Arial, sans-serif&quot;" font-size="12" lengthAdjust="spacing" textLength="64" x="856.5" y="1321.0605">Sentiment</text><text fill="#333333" font-family="&quot;Segoe UI, Helvetica, Arial, sans-serif&quot;" font-size="12" lengthAdjust="spacing" textLength="79" x="937.5" y="99.4355">TimescaleDB</text><path d="M962,52.2969 C962,42.2969 980,42.2969 980,42.2969 C980,42.2969 998,42.2969 998,52.2969 L998,78.2969 C998,88.2969 980,88.2969 980,88.2969 C980,88.2969 962,88.2969 962,78.2969 L962,52.2969 " fill="#ECFDF5" style="stroke:#34A853;stroke-width:1.5;"/><path d="M962,52.2969 C962,62.2969 980,62.2969 980,62.2969 C980,62.2969 998,62.2969 998,52.2969 " fill="none" style="stroke:#34A853;stroke-width:1.5;"/><text fill="#333333" font-family="&quot;Segoe UI, Helvetica, Arial, sans-serif&quot;" font-size="12" lengthAdjust="spacing" textLength="79" x="937.5" y="1300.0918">TimescaleDB</text><path d="M962,1312.9219 C962,1302.9219 980,1302.9219 980,1302.9219 C980,1302.9219 998,1302.9219 998,1312.9219 L998,1338.9219 C998,1348.9219 980,1348.9219 980,1348.9219 C980,1348.9219 962,1348.9219 962,1338.9219 L962,1312.9219 " fill="#ECFDF5" style="stroke:#34A853;stroke-width:1.5;"/><path d="M962,1312.9219 C962,1322.9219 980,1322.9219 980,1322.9219 C980,1322.9219 998,1322.9219 998,1312.9219 " fill="none" style="stroke:#34A853;stroke-width:1.5;"/><polygon fill="#4A6FA5" points="310.5,128.2344,320.5,132.2344,310.5,136.2344,314.5,132.2344" style="stroke:#4A6FA5;stroke-width:1.0;"/><line style="stroke:#4A6FA5;stroke-width:1.0;" x1="51.5" x2="316.5" y1="132.2344" y2="132.2344"/><text fill="#333333" font-family="&quot;Segoe UI, Helvetica, Arial, sans-serif&quot;" font-size="12" lengthAdjust="spacing" textLength="247" x="58.5" y="127.4043">generate_signals_for_symbols(symbols)</text><path d="M237.5,147.2344 L310.5,147.2344 L310.5,153.2031 L300.5,163.2031 L234.5,163.2031 L234.5,150.2344 A3,3 0 0 1 237.5,147.2344 " fill="#EEEEEE" style="stroke:#000000;stroke-width:1.5;"/><rect fill="none" height="1125.7188" rx="3" ry="3" style="stroke:#4A6FA5;stroke-width:1.5;" width="818" x="234.5" y="147.2344"/><text fill="#333333" font-family="&quot;Segoe UI, Helvetica, Arial, sans-serif&quot;" font-size="12" font-weight="bold" lengthAdjust="spacing" textLength="31" x="249.5" y="159.373">loop</text><text fill="#333333" font-family="&quot;Segoe UI, Helvetica, Arial, sans-serif&quot;" font-size="12" font-weight="bold" lengthAdjust="spacing" textLength="122" x="325.5" y="160.373">[for each symbol]</text><polygon fill="#4A6FA5" points="968,193.1406,978,197.1406,968,201.1406,972,197.1406" style="stroke:#4A6FA5;stroke-width:1.0;"/><line style="stroke:#4A6FA5;stroke-width:1.0;" x1="322.5" x2="974" y1="197.1406" y2="197.1406"/><text fill="#333333" font-family="&quot;Segoe UI, Helvetica, Arial, sans-serif&quot;" font-size="12" lengthAdjust="spacing" textLength="98" x="329.5" y="178.3418">fetch indicators</text><text fill="#333333" font-family="&quot;Segoe UI, Helvetica, Arial, sans-serif&quot;" font-size="12" lengthAdjust="spacing" textLength="97" x="329.5" y="192.3105">multi-timeframe</text><polygon fill="#4A6FA5" points="333.5,221.1094,323.5,225.1094,333.5,229.1094,329.5,225.1094" style="stroke:#4A6FA5;stroke-width:1.0;"/><line style="stroke:#4A6FA5;stroke-width:1.0;stroke-dasharray:2.0,2.0;" x1="327.5" x2="979" y1="225.1094" y2="225.1094"/><text fill="#333333" font-family="&quot;Segoe UI, Helvetica, Arial, sans-serif&quot;" font-size="12" lengthAdjust="spacing" textLength="89" x="339.5" y="220.2793">indicators dict</text><polygon fill="#4A6FA5" points="513.5,249.0781,523.5,253.0781,513.5,257.0781,517.5,253.0781" style="stroke:#4A6FA5;stroke-width:1.0;"/><line style="stroke:#4A6FA5;stroke-width:1.0;" x1="322.5" x2="519.5" y1="253.0781" y2="253.0781"/><text fill="#333333" font-family="&quot;Segoe UI, Helvetica, Arial, sans-serif&quot;" font-size="12" lengthAdjust="spacing" textLength="177" x="329.5" y="248.248">evaluate(symbol, indicators)</text><polygon fill="#4A6FA5" points="666.5,277.0469,676.5,281.0469,666.5,285.0469,670.5,281.0469" style="stroke:#4A6FA5;stroke-width:1.0;"/><line style="stroke:#4A6FA5;stroke-width:1.0;" x1="525.5" x2="672.5" y1="281.0469" y2="281.0469"/><text fill="#333333" font-family="&quot;Segoe UI, Helvetica, Arial, sans-serif&quot;" font-size="12" lengthAdjust="spacing" textLength="85" x="532.5" y="276.2168">evaluate_rsi()</text><polygon fill="#4A6FA5" points="536.5,305.0156,526.5,309.0156,536.5,313.0156,532.5,309.0156" style="stroke:#4A6FA5;stroke-width:1.0;"/><line style="stroke:#4A6FA5;stroke-width:1.0;stroke-dasharray:2.0,2.0;" x1="530.5" x2="677.5" y1="309.0156" y2="309.0156"/><text fill="#333333" font-family="&quot;Segoe UI, Helvetica, Arial, sans-serif&quot;" font-size="12" lengthAdjust="spacing" textLength="111" x="542.5" y="304.1855">RuleResult | None</text><polygon fill="#4A6FA5" points="666.5,332.9844,676.5,336.9844,666.5,340.9844,670.5,336.9844" style="stroke:#4A6FA5;stroke-width:1.0;"/><line style="stroke:#4A6FA5;stroke-width:1.0;" x1="525.5" x2="672.5" y1="336.9844" y2="336.9844"/><text fill="#333333" font-family="&quot;Segoe UI, Helvetica, Arial, sans-serif&quot;" font-size="12" lengthAdjust="spacing" textLength="124" x="532.5" y="332.1543">evaluate_bollinger()</text><polygon fill="#4A6FA5" points="536.5,360.9531,526.5,364.9531,536.5,368.9531,532.5,364.9531" style="stroke:#4A6FA5;stroke-width:1.0;"/><line style="stroke:#4A6FA5;stroke-width:1.0;stroke-dasharray:2.0,2.0;" x1="530.5" x2="677.5" y1="364.9531" y2="364.9531"/><text fill="#333333" font-family="&quot;Segoe UI, Helvetica, Arial, sans-serif&quot;" font-size="12" lengthAdjust="spacing" textLength="111" x="542.5" y="360.123">RuleResult | None</text><polygon fill="#4A6FA5" points="666.5,388.9219,676.5,392.9219,666.5,396.9219,670.5,392.9219" style="stroke:#4A6FA5;stroke-width:1.0;"/><line style="stroke:#4A6FA5;stroke-width:1.0;" x1="525.5" x2="672.5" y1="392.9219" y2="392.9219"/><text fill="#333333" font-family="&quot;Segoe UI, Helvetica, Arial, sans-serif&quot;" font-size="12" lengthAdjust="spacing" textLength="128" x="532.5" y="388.0918">evaluate_harmonic()</text><polygon fill="#4A6FA5" points="536.5,416.8906,526.5,420.8906,536.5,424.8906,532.5,420.8906" style="stroke:#4A6FA5;stroke-width:1.0;"/><line style="stroke:#4A6FA5;stroke-width:1.0;stroke-dasharray:2.0,2.0;" x1="530.5" x2="677.5" y1="420.8906" y2="420.8906"/><text fill="#333333" font-family="&quot;Segoe UI, Helvetica, Arial, sans-serif&quot;" font-size="12" lengthAdjust="spacing" textLength="111" x="542.5" y="416.0605">RuleResult | None</text><polygon fill="#4A6FA5" points="666.5,444.8594,676.5,448.8594,666.5,452.8594,670.5,448.8594" style="stroke:#4A6FA5;stroke-width:1.0;"/><line style="stroke:#4A6FA5;stroke-width:1.0;" x1="525.5" x2="672.5" y1="448.8594" y2="448.8594"/><text fill="#333333" font-family="&quot;Segoe UI, Helvetica, Arial, sans-serif&quot;" font-size="12" lengthAdjust="spacing" textLength="104" x="532.5" y="444.0293">evaluate_trend()</text><polygon fill="#4A6FA5" points="536.5,472.8281,526.5,476.8281,536.5,480.8281,532.5,476.8281" style="stroke:#4A6FA5;stroke-width:1.0;"/><line style="stroke:#4A6FA5;stroke-width:1.0;stroke-dasharray:2.0,2.0;" x1="530.5" x2="677.5" y1="476.8281" y2="476.8281"/><text fill="#333333" font-family="&quot;Segoe UI, Helvetica, Arial, sans-serif&quot;" font-size="12" lengthAdjust="spacing" textLength="111" x="542.5" y="471.998">RuleResult | None</text><polygon fill="#4A6FA5" points="666.5,500.7969,676.5,504.7969,666.5,508.7969,670.5,504.7969" style="stroke:#4A6FA5;stroke-width:1.0;"/><line style="stroke:#4A6FA5;stroke-width:1.0;" x1="525.5" x2="672.5" y1="504.7969" y2="504.7969"/><text fill="#333333" font-family="&quot;Segoe UI, Helvetica, Arial, sans-serif&quot;" font-size="12" lengthAdjust="spacing" textLength="129" x="532.5" y="499.9668">convergence checks</text><polygon fill="#4A6FA5" points="536.5,528.7656,526.5,532.7656,536.5,536.7656,532.5,532.7656" style="stroke:#4A6FA5;stroke-width:1.0;"/><line style="stroke:#4A6FA5;stroke-width:1.0;stroke-dasharray:2.0,2.0;" x1="530.5" x2="677.5" y1="532.7656" y2="532.7656"/><text fill="#333333" font-family="&quot;Segoe UI, Helvetica, Arial, sans-serif&quot;" font-size="12" lengthAdjust="spacing" textLength="94" x="542.5" y="527.9355">list[RuleResult]</text><line style="stroke:#4A6FA5;stroke-width:1.0;" x1="525.5" x2="567.5" y1="602.6406" y2="602.6406"/><line style="stroke:#4A6FA5;stroke-width:1.0;" x1="567.5" x2="567.5" y1="602.6406" y2="615.6406"/><line style="stroke:#4A6FA5;stroke-width:1.0;" x1="526.5" x2="567.5" y1="615.6406" y2="615.6406"/><polygon fill="#4A6FA5" points="536.5,611.6406,526.5,615.6406,536.5,619.6406,532.5,615.6406" style="stroke:#4A6FA5;stroke-width:1.0;"/><text fill="#333333" font-family="&quot;Segoe UI, Helvetica, Arial, sans-serif&quot;" font-size="12" lengthAdjust="spacing" textLength="76" x="532.5" y="555.9043">aggregate()</text><text fill="#333333" font-family="&quot;Segoe UI, Helvetica, Arial, sans-serif&quot;" font-size="12" lengthAdjust="spacing" textLength="122" x="532.5" y="569.873">weighted: RSI=0.25</text><text fill="#333333" font-family="&quot;Segoe UI, Helvetica, Arial, sans-serif&quot;" font-size="12" lengthAdjust="spacing" textLength="133" x="532.5" y="583.8418">BB=0.25, Harm=0.30</text><text fill="#333333" font-family="&quot;Segoe UI, Helvetica, Arial, sans-serif&quot;" font-size="12" lengthAdjust="spacing" textLength="74" x="532.5" y="597.8105">Trend=0.20</text><path d="M247.5,630.6406 L308.5,630.6406 L308.5,636.6094 L298.5,646.6094 L244.5,646.6094 L244.5,633.6406 A3,3 0 0 1 247.5,630.6406 " fill="#EEEEEE" style="stroke:#000000;stroke-width:1.5;"/><rect fill="none" height="635.3125" rx="3" ry="3" style="stroke:#4A6FA5;stroke-width:1.5;" width="798" x="244.5" y="630.6406"/><text fill="#333333" font-family="&quot;Segoe UI, Helvetica, Arial, sans-serif&quot;" font-size="12" font-weight="bold" lengthAdjust="spacing" textLength="19" x="259.5" y="642.7793">alt</text><text fill="#333333" font-family="&quot;Segoe UI, Helvetica, Arial, sans-serif&quot;" font-size="12" font-weight="bold" lengthAdjust="spacing" textLength="136" x="323.5" y="643.7793">[confidence &gt;= 0.6]</text><polygon fill="#4A6FA5" points="333.5,662.5781,323.5,666.5781,333.5,670.5781,329.5,666.5781" style="stroke:#4A6FA5;stroke-width:1.0;"/><line style="stroke:#4A6FA5;stroke-width:1.0;stroke-dasharray:2.0,2.0;" x1="327.5" x2="524.5" y1="666.5781" y2="666.5781"/><text fill="#333333" font-family="&quot;Segoe UI, Helvetica, Arial, sans-serif&quot;" font-size="12" lengthAdjust="spacing" textLength="76" x="339.5" y="661.748">RuleResult[]</text><path d="M257.5,681.5781 L323.5,681.5781 L323.5,687.5469 L313.5,697.5469 L254.5,697.5469 L254.5,684.5781 A3,3 0 0 1 257.5,681.5781 " fill="#EEEEEE" style="stroke:#000000;stroke-width:1.5;"/><rect fill="none" height="140.8125" rx="3" ry="3" style="stroke:#4A6FA5;stroke-width:1.5;" width="595" x="254.5" y="681.5781"/><text fill="#333333" font-family="&quot;Segoe UI, Helvetica, Arial, sans-serif&quot;" font-size="12" font-weight="bold" lengthAdjust="spacing" textLength="24" x="269.5" y="693.7168">opt</text><text fill="#333333" font-family="&quot;Segoe UI, Helvetica, Arial, sans-serif&quot;" font-size="12" font-weight="bold" lengthAdjust="spacing" textLength="213" x="338.5" y="694.7168">[Predictor available (Phase 2)]</text><polygon fill="#4A6FA5" points="790,713.5156,800,717.5156,790,721.5156,794,717.5156" style="stroke:#4A6FA5;stroke-width:1.0;"/><line style="stroke:#4A6FA5;stroke-width:1.0;" x1="322.5" x2="796" y1="717.5156" y2="717.5156"/><text fill="#333333" font-family="&quot;Segoe UI, Helvetica, Arial, sans-serif&quot;" font-size="12" lengthAdjust="spacing" textLength="107" x="329.5" y="712.6855">predict(features)</text><polygon fill="#4A6FA5" points="333.5,741.4844,323.5,745.4844,333.5,749.4844,329.5,745.4844" style="stroke:#4A6FA5;stroke-width:1.0;"/><line style="stroke:#4A6FA5;stroke-width:1.0;stroke-dasharray:2.0,2.0;" x1="327.5" x2="801" y1="745.4844" y2="745.4844"/><text fill="#333333" font-family="&quot;Segoe UI, Helvetica, Arial, sans-serif&quot;" font-size="12" lengthAdjust="spacing" textLength="148" x="339.5" y="740.6543">{direction, confidence}</text><line style="stroke:#4A6FA5;stroke-width:1.0;" x1="322.5" x2="364.5" y1="801.3906" y2="801.3906"/><line style="stroke:#4A6FA5;stroke-width:1.0;" x1="364.5" x2="364.5" y1="801.3906" y2="814.3906"/><line style="stroke:#4A6FA5;stroke-width:1.0;" x1="323.5" x2="364.5" y1="814.3906" y2="814.3906"/><polygon fill="#4A6FA5" points="333.5,810.3906,323.5,814.3906,333.5,818.3906,329.5,814.3906" style="stroke:#4A6FA5;stroke-width:1.0;"/><text fill="#333333" font-family="&quot;Segoe UI, Helvetica, Arial, sans-serif&quot;" font-size="12" lengthAdjust="spacing" textLength="127" x="329.5" y="768.623">blend_confidences()</text><text fill="#333333" font-family="&quot;Segoe UI, Helvetica, Arial, sans-serif&quot;" font-size="12" lengthAdjust="spacing" textLength="189" x="329.5" y="782.5918">same dir: 60% ML + 40% rules</text><text fill="#333333" font-family="&quot;Segoe UI, Helvetica, Arial, sans-serif&quot;" font-size="12" lengthAdjust="spacing" textLength="116" x="329.5" y="796.5605">conflict: 40% * min</text><path d="M257.5,836.3906 L323.5,836.3906 L323.5,842.3594 L313.5,852.3594 L254.5,852.3594 L254.5,839.3906 A3,3 0 0 1 257.5,836.3906 " fill="#EEEEEE" style="stroke:#000000;stroke-width:1.5;"/><rect fill="none" height="112.875" rx="3" ry="3" style="stroke:#4A6FA5;stroke-width:1.5;" width="683" x="254.5" y="836.3906"/><text fill="#333333" font-family="&quot;Segoe UI, Helvetica, Arial, sans-serif&quot;" font-size="12" font-weight="bold" lengthAdjust="spacing" textLength="24" x="269.5" y="848.5293">opt</text><text fill="#333333" font-family="&quot;Segoe UI, Helvetica, Arial, sans-serif&quot;" font-size="12" font-weight="bold" lengthAdjust="spacing" textLength="193" x="338.5" y="849.5293">[News sentiment available]</text><polygon fill="#4A6FA5" points="876.5,868.3281,886.5,872.3281,876.5,876.3281,880.5,872.3281" style="stroke:#4A6FA5;stroke-width:1.0;"/><line style="stroke:#4A6FA5;stroke-width:1.0;" x1="322.5" x2="882.5" y1="872.3281" y2="872.3281"/><text fill="#333333" font-family="&quot;Segoe UI, Helvetica, Arial, sans-serif&quot;" font-size="12" lengthAdjust="spacing" textLength="143" x="329.5" y="867.498">get_sentiment(symbol)</text><polygon fill="#4A6FA5" points="333.5,896.2969,323.5,900.2969,333.5,904.2969,329.5,900.2969" style="stroke:#4A6FA5;stroke-width:1.0;"/><line style="stroke:#4A6FA5;stroke-width:1.0;stroke-dasharray:2.0,2.0;" x1="327.5" x2="887.5" y1="900.2969" y2="900.2969"/><text fill="#333333" font-family="&quot;Segoe UI, Helvetica, Arial, sans-serif&quot;" font-size="12" lengthAdjust="spacing" textLength="77" x="339.5" y="895.4668">score [-1, 1]</text><line style="stroke:#4A6FA5;stroke-width:1.0;" x1="322.5" x2="364.5" y1="928.2656" y2="928.2656"/><line style="stroke:#4A6FA5;stroke-width:1.0;" x1="364.5" x2="364.5" y1="928.2656" y2="941.2656"/><line style="stroke:#4A6FA5;stroke-width:1.0;" x1="323.5" x2="364.5" y1="941.2656" y2="941.2656"/><polygon fill="#4A6FA5" points="333.5,937.2656,323.5,941.2656,333.5,945.2656,329.5,941.2656" style="stroke:#4A6FA5;stroke-width:1.0;"/><text fill="#333333" font-family="&quot;Segoe UI, Helvetica, Arial, sans-serif&quot;" font-size="12" lengthAdjust="spacing" textLength="89" x="329.5" y="923.4355">adjust +/- 5pp</text><line style="stroke:#4A6FA5;stroke-width:1.0;" x1="322.5" x2="364.5" y1="976.2344" y2="976.2344"/><line style="stroke:#4A6FA5;stroke-width:1.0;" x1="364.5" x2="364.5" y1="976.2344" y2="989.2344"/><line style="stroke:#4A6FA5;stroke-width:1.0;" x1="323.5" x2="364.5" y1="989.2344" y2="989.2344"/><polygon fill="#4A6FA5" points="333.5,985.2344,323.5,989.2344,333.5,993.2344,329.5,989.2344" style="stroke:#4A6FA5;stroke-width:1.0;"/><text fill="#333333" font-family="&quot;Segoe UI, Helvetica, Arial, sans-serif&quot;" font-size="12" lengthAdjust="spacing" textLength="149" x="329.5" y="971.4043">suggest_leverage(1-20)</text><line style="stroke:#4A6FA5;stroke-width:1.0;" x1="322.5" x2="364.5" y1="1017.2031" y2="1017.2031"/><line style="stroke:#4A6FA5;stroke-width:1.0;" x1="364.5" x2="364.5" y1="1017.2031" y2="1030.2031"/><line style="stroke:#4A6FA5;stroke-width:1.0;" x1="323.5" x2="364.5" y1="1030.2031" y2="1030.2031"/><polygon fill="#4A6FA5" points="333.5,1026.2031,323.5,1030.2031,333.5,1034.2031,329.5,1030.2031" style="stroke:#4A6FA5;stroke-width:1.0;"/><text fill="#333333" font-family="&quot;Segoe UI, Helvetica, Arial, sans-serif&quot;" font-size="12" lengthAdjust="spacing" textLength="98" x="329.5" y="1012.373">estimate_fees()</text><line style="stroke:#4A6FA5;stroke-width:1.0;" x1="322.5" x2="364.5" y1="1058.1719" y2="1058.1719"/><line style="stroke:#4A6FA5;stroke-width:1.0;" x1="364.5" x2="364.5" y1="1058.1719" y2="1071.1719"/><line style="stroke:#4A6FA5;stroke-width:1.0;" x1="323.5" x2="364.5" y1="1071.1719" y2="1071.1719"/><polygon fill="#4A6FA5" points="333.5,1067.1719,323.5,1071.1719,333.5,1075.1719,329.5,1071.1719" style="stroke:#4A6FA5;stroke-width:1.0;"/><text fill="#333333" font-family="&quot;Segoe UI, Helvetica, Arial, sans-serif&quot;" font-size="12" lengthAdjust="spacing" textLength="135" x="329.5" y="1053.3418">verify_margin_safety()</text><path d="M257.5,1086.1719 L318.5,1086.1719 L318.5,1092.1406 L308.5,1102.1406 L254.5,1102.1406 L254.5,1089.1719 A3,3 0 0 1 257.5,1086.1719 " fill="#EEEEEE" style="stroke:#000000;stroke-width:1.5;"/><rect fill="none" height="128.8438" rx="3" ry="3" style="stroke:#4A6FA5;stroke-width:1.5;" width="778" x="254.5" y="1086.1719"/><text fill="#333333" font-family="&quot;Segoe UI, Helvetica, Arial, sans-serif&quot;" font-size="12" font-weight="bold" lengthAdjust="spacing" textLength="19" x="269.5" y="1098.3105">alt</text><text fill="#333333" font-family="&quot;Segoe UI, Helvetica, Arial, sans-serif&quot;" font-size="12" font-weight="bold" lengthAdjust="spacing" textLength="110" x="333.5" y="1099.3105">[All gates pass]</text><polygon fill="#4A6FA5" points="968,1118.1094,978,1122.1094,968,1126.1094,972,1122.1094" style="stroke:#4A6FA5;stroke-width:1.0;"/><line style="stroke:#4A6FA5;stroke-width:1.0;" x1="322.5" x2="974" y1="1122.1094" y2="1122.1094"/><text fill="#333333" font-family="&quot;Segoe UI, Helvetica, Arial, sans-serif&quot;" font-size="12" lengthAdjust="spacing" textLength="135" x="329.5" y="1117.2793">INSERT trading_signal</text><polygon fill="#4A6FA5" points="333.5,1146.0781,323.5,1150.0781,333.5,1154.0781,329.5,1150.0781" style="stroke:#4A6FA5;stroke-width:1.0;"/><line style="stroke:#4A6FA5;stroke-width:1.0;stroke-dasharray:2.0,2.0;" x1="327.5" x2="979" y1="1150.0781" y2="1150.0781"/><text fill="#333333" font-family="&quot;Segoe UI, Helvetica, Arial, sans-serif&quot;" font-size="12" lengthAdjust="spacing" textLength="110" x="339.5" y="1145.248">TradingSignalOrm</text><line style="stroke:#4A6FA5;stroke-width:1.0;stroke-dasharray:2.0,2.0;" x1="254.5" x2="1032.5" y1="1159.0781" y2="1159.0781"/><text fill="#333333" font-family="&quot;Segoe UI, Helvetica, Arial, sans-serif&quot;" font-size="12" font-weight="bold" lengthAdjust="spacing" textLength="88" x="259.5" y="1170.2168">[Gate failed]</text><line style="stroke:#4A6FA5;stroke-width:1.0;" x1="322.5" x2="364.5" y1="1194.0156" y2="1194.0156"/><line style="stroke:#4A6FA5;stroke-width:1.0;" x1="364.5" x2="364.5" y1="1194.0156" y2="1207.0156"/><line style="stroke:#4A6FA5;stroke-width:1.0;" x1="323.5" x2="364.5" y1="1207.0156" y2="1207.0156"/><polygon fill="#4A6FA5" points="333.5,1203.0156,323.5,1207.0156,333.5,1211.0156,329.5,1207.0156" style="stroke:#4A6FA5;stroke-width:1.0;"/><text fill="#333333" font-family="&quot;Segoe UI, Helvetica, Arial, sans-serif&quot;" font-size="12" lengthAdjust="spacing" textLength="46" x="329.5" y="1189.1855">discard</text><line style="stroke:#4A6FA5;stroke-width:1.0;stroke-dasharray:2.0,2.0;" x1="244.5" x2="1042.5" y1="1223.0156" y2="1223.0156"/><text fill="#333333" font-family="&quot;Segoe UI, Helvetica, Arial, sans-serif&quot;" font-size="12" font-weight="bold" lengthAdjust="spacing" textLength="126" x="249.5" y="1234.1543">[confidence &lt; 0.6]</text><polygon fill="#4A6FA5" points="333.5,1253.9531,323.5,1257.9531,333.5,1261.9531,329.5,1257.9531" style="stroke:#4A6FA5;stroke-width:1.0;"/><line style="stroke:#4A6FA5;stroke-width:1.0;stroke-dasharray:2.0,2.0;" x1="327.5" x2="524.5" y1="1257.9531" y2="1257.9531"/><text fill="#333333" font-family="&quot;Segoe UI, Helvetica, Arial, sans-serif&quot;" font-size="12" lengthAdjust="spacing" textLength="147" x="339.5" y="1253.123">None (below threshold)</text><!--MD5=[0e8b6d2703a2484a8f88890c868f5029]
@startuml SQ03-signal-generation
!include _common.puml

title CryptoBot — Pipeline Generation de Signaux
caption APScheduler -> RuleEngine -> SignalGenerator -> DB

participant "APScheduler" as sched #F5F5F5
participant "SignalGenerator" as gen #FEF3E8
participant "RuleEngine" as engine #F3EEFF
participant "Evaluators\n(RSI, BB, Harm, Trend)" as eval #F3EEFF
participant "Predictor\n(Phase 2)" as ml #FEF3E8
participant "NLP\nSentiment" as nlp #F3EEFF
database "TimescaleDB" as db #ECFDF5

sched -> gen : generate_signals_for_symbols(symbols)

loop for each symbol
  gen -> db : fetch indicators\nmulti-timeframe
  db - -> gen : indicators dict

  gen -> engine : evaluate(symbol, indicators)
  engine -> eval : evaluate_rsi()
  eval - -> engine : RuleResult | None
  engine -> eval : evaluate_bollinger()
  eval - -> engine : RuleResult | None
  engine -> eval : evaluate_harmonic()
  eval - -> engine : RuleResult | None
  engine -> eval : evaluate_trend()
  eval - -> engine : RuleResult | None
  engine -> eval : convergence checks
  eval - -> engine : list[RuleResult]

  engine -> engine : aggregate()\nweighted: RSI=0.25\nBB=0.25, Harm=0.30\nTrend=0.20

  alt confidence >= 0.6
    engine - -> gen : RuleResult[]

    opt Predictor available (Phase 2)
      gen -> ml : predict(features)
      ml - -> gen : {direction, confidence}
      gen -> gen : blend_confidences()\nsame dir: 60% ML + 40% rules\nconflict: 40% * min
    end

    opt News sentiment available
      gen -> nlp : get_sentiment(symbol)
      nlp - -> gen : score [-1, 1]
      gen -> gen : adjust +/- 5pp
    end

    gen -> gen : suggest_leverage(1-20)
    gen -> gen : estimate_fees()
    gen -> gen : verify_margin_safety()

    alt All gates pass
      gen -> db : INSERT trading_signal
      db - -> gen : TradingSignalOrm
    else Gate failed
      gen -> gen : discard
    end

  else confidence < 0.6
    engine - -> gen : None (below threshold)
  end
end

@enduml

@startuml SQ03-signal-generation

skinparam backgroundColor white
skinparam defaultFontName "Segoe UI, Helvetica, Arial, sans-serif"
skinparam defaultFontSize 12
skinparam defaultFontColor #333333
skinparam shadowing false
skinparam roundCorner 6


skinparam component {
  BackgroundColor #F3EEFF
  BorderColor #7C5CFC
  FontColor #333333
  ArrowColor #4A6FA5
  StereotypeFontColor #7C5CFC
}

skinparam package {
  BackgroundColor #F5F5F5
  BorderColor #4A6FA5
  FontColor #333333
}

skinparam class {
  BackgroundColor #ECFDF5
  BorderColor #34A853
  FontColor #333333
  HeaderBackgroundColor #34A853
  HeaderFontColor white
  ArrowColor #4A6FA5
  StereotypeFontColor #7C5CFC
  AttributeFontColor #555555
}

skinparam sequence {
  ArrowColor #4A6FA5
  ActorBorderColor #7C5CFC
  LifeLineBorderColor #CCCCCC
  LifeLineBackgroundColor #F5F5F5
  ParticipantBorderColor #4A6FA5
  ParticipantBackgroundColor #F3EEFF
  ParticipantFontColor #333333
  BoxBorderColor #CCCCCC
  BoxBackgroundColor #F5F5F5
  DividerBackgroundColor #4A6FA5
  DividerFontColor white
}

skinparam activity {
  BackgroundColor #FEF3E8
  BorderColor #E8943A
  FontColor #333333
  ArrowColor #4A6FA5
  DiamondBackgroundColor #F3EEFF
  DiamondBorderColor #7C5CFC
}

skinparam node {
  BackgroundColor #F3EEFF
  BorderColor #7C5CFC
  FontColor #333333
}

skinparam database {
  BackgroundColor #ECFDF5
  BorderColor #34A853
  FontColor #333333
}

skinparam entity {
  BackgroundColor white
  BorderColor #4A6FA5
  FontColor #333333
  HeaderBackgroundColor #4A6FA5
  HeaderFontColor white
}

skinparam state {
  BackgroundColor #FEF3E8
  BorderColor #E8943A
  FontColor #333333
  ArrowColor #4A6FA5
}

skinparam usecase {
  BackgroundColor #F3EEFF
  BorderColor #7C5CFC
  FontColor #333333
  ArrowColor #4A6FA5
  ActorBorderColor #E8943A
}

skinparam note {
  BackgroundColor #FEF3E8
  BorderColor #E8943A
  FontColor #333333
}

skinparam legend {
  BackgroundColor #F5F5F5
  BorderColor #CCCCCC
  FontColor #333333
}



title CryptoBot — Pipeline Generation de Signaux
caption APScheduler -> RuleEngine -> SignalGenerator -> DB

participant "APScheduler" as sched #F5F5F5
participant "SignalGenerator" as gen #FEF3E8
participant "RuleEngine" as engine #F3EEFF
participant "Evaluators\n(RSI, BB, Harm, Trend)" as eval #F3EEFF
participant "Predictor\n(Phase 2)" as ml #FEF3E8
participant "NLP\nSentiment" as nlp #F3EEFF
database "TimescaleDB" as db #ECFDF5

sched -> gen : generate_signals_for_symbols(symbols)

loop for each symbol
  gen -> db : fetch indicators\nmulti-timeframe
  db - -> gen : indicators dict

  gen -> engine : evaluate(symbol, indicators)
  engine -> eval : evaluate_rsi()
  eval - -> engine : RuleResult | None
  engine -> eval : evaluate_bollinger()
  eval - -> engine : RuleResult | None
  engine -> eval : evaluate_harmonic()
  eval - -> engine : RuleResult | None
  engine -> eval : evaluate_trend()
  eval - -> engine : RuleResult | None
  engine -> eval : convergence checks
  eval - -> engine : list[RuleResult]

  engine -> engine : aggregate()\nweighted: RSI=0.25\nBB=0.25, Harm=0.30\nTrend=0.20

  alt confidence >= 0.6
    engine - -> gen : RuleResult[]

    opt Predictor available (Phase 2)
      gen -> ml : predict(features)
      ml - -> gen : {direction, confidence}
      gen -> gen : blend_confidences()\nsame dir: 60% ML + 40% rules\nconflict: 40% * min
    end

    opt News sentiment available
      gen -> nlp : get_sentiment(symbol)
      nlp - -> gen : score [-1, 1]
      gen -> gen : adjust +/- 5pp
    end

    gen -> gen : suggest_leverage(1-20)
    gen -> gen : estimate_fees()
    gen -> gen : verify_margin_safety()

    alt All gates pass
      gen -> db : INSERT trading_signal
      db - -> gen : TradingSignalOrm
    else Gate failed
      gen -> gen : discard
    end

  else confidence < 0.6
    engine - -> gen : None (below threshold)
  end
end

@enduml

PlantUML version 1.2022.6(Tue Jun 21 19:34:49 CEST 2022)
(GPL source distribution)
Java Runtime: OpenJDK Runtime Environment
JVM: OpenJDK 64-Bit Server VM
Default Encoding: UTF-8
Language: en
Country: US
--></g></svg>