<?xml version="1.0" encoding="UTF-8" standalone="no"?><svg xmlns="http://www.w3.org/2000/svg" xmlns:xlink="http://www.w3.org/1999/xlink" contentStyleType="text/css" height="856px" preserveAspectRatio="none" style="width:1132px;height:856px;background:#FFFFFF;" version="1.1" viewBox="0 0 1132 856" width="1132px" zoomAndPan="magnify"><defs/><g><rect fill="#FFFFFF" height="26.2969" rx="3" ry="3" style="stroke:#00000000;stroke-width:1.0;" width="248" x="440.5" y="10"/><text fill="#333333" font-family="&quot;Segoe UI, Helvetica, Arial, sans-serif&quot;" font-size="14" font-weight="bold" lengthAdjust="spacing" textLength="238" x="445.5" y="27.9951">CryptoBot — Flux Chatbot LLM</text><rect fill="#FFFFFF" height="16.2969" rx="3" ry="3" style="stroke:#00000000;stroke-width:1.0;" width="293" x="418" y="831.3906"/><text fill="#333333" font-family="&quot;Segoe UI, Helvetica, Arial, sans-serif&quot;" font-size="14" lengthAdjust="spacing" textLength="293" x="418" y="844.3857">Streamlit -&gt; FastAPI -&gt; ChatService -&gt; LLM</text><line style="stroke:#CCCCCC;stroke-width:0.5;stroke-dasharray:5.0,5.0;" x1="43" x2="43" y1="130.2344" y2="742.4531"/><line style="stroke:#CCCCCC;stroke-width:0.5;stroke-dasharray:5.0,5.0;" x1="195" x2="195" y1="130.2344" y2="742.4531"/><line style="stroke:#CCCCCC;stroke-width:0.5;stroke-dasharray:5.0,5.0;" x1="313.5" x2="313.5" y1="130.2344" y2="742.4531"/><line style="stroke:#CCCCCC;stroke-width:0.5;stroke-dasharray:5.0,5.0;" x1="467" x2="467" y1="130.2344" y2="742.4531"/><line style="stroke:#CCCCCC;stroke-width:0.5;stroke-dasharray:5.0,5.0;" x1="623.5" x2="623.5" y1="130.2344" y2="742.4531"/><line style="stroke:#CCCCCC;stroke-width:0.5;stroke-dasharray:5.0,5.0;" x1="765" x2="765" y1="130.2344" y2="742.4531"/><line style="stroke:#CCCCCC;stroke-width:0.5;stroke-dasharray:5.0,5.0;" x1="924.5" x2="924.5" y1="130.2344" y2="742.4531"/><line style="stroke:#CCCCCC;stroke-width:0.5;stroke-dasharray:5.0,5.0;" x1="1038.5" x2="1038.5" y1="130.2344" y2="742.4531"/><text fill="#333333" font-family="&quot;Segoe UI, Helvetica, Arial, sans-serif&quot;" font-size="12" lengthAdjust="spacing" textLength="70" x="5" y="113.4355">Aleksandar</text><text fill="#333333" font-family="&quot;Segoe UI, Helvetica, Arial, sans-serif&quot;" font-size="12" lengthAdjust="spacing" textLength="68" x="6" y="127.4043">(debutant)</text><ellipse cx="43" cy="50.7969" fill="#E2E2F0" rx="8" ry="8" style="stroke:#7C5CFC;stroke-width:0.5;"/><path d="M43,58.7969 L43,85.7969 M30,66.7969 L56,66.7969 M43,85.7969 L30,100.7969 M43,85.7969 L56,100.7969 " fill="none" style="stroke:#7C5CFC;stroke-width:0.5;"/><text fill="#333333" font-family="&quot;Segoe UI, Helvetica, Arial, sans-serif&quot;" font-size="12" lengthAdjust="spacing" textLength="70" x="5" y="752.5918">Aleksandar</text><text fill="#333333" font-family="&quot;Segoe UI, Helvetica, Arial, sans-serif&quot;" font-size="12" lengthAdjust="spacing" textLength="68" x="6" y="766.5605">(debutant)</text><ellipse cx="43" cy="777.8906" fill="#E2E2F0" rx="8" ry="8" style="stroke:#7C5CFC;stroke-width:0.5;"/><path d="M43,785.8906 L43,812.8906 M30,793.8906 L56,793.8906 M43,812.8906 L30,827.8906 M43,812.8906 L56,827.8906 " fill="none" style="stroke:#7C5CFC;stroke-width:0.5;"/><rect fill="#FEF3E8" height="41.9375" rx="3" ry="3" style="stroke:#4A6FA5;stroke-width:0.5;" width="102" x="144" y="87.2969"/><text fill="#333333" font-family="&quot;Segoe UI, Helvetica, Arial, sans-serif&quot;" font-size="12" lengthAdjust="spacing" textLength="56" x="167" y="105.4355">Streamlit</text><text fill="#333333" font-family="&quot;Segoe UI, Helvetica, Arial, sans-serif&quot;" font-size="12" lengthAdjust="spacing" textLength="88" x="151" y="119.4043">Portfolio page</text><rect fill="#FEF3E8" height="41.9375" rx="3" ry="3" style="stroke:#4A6FA5;stroke-width:0.5;" width="102" x="144" y="741.4531"/><text fill="#333333" font-family="&quot;Segoe UI, Helvetica, Arial, sans-serif&quot;" font-size="12" lengthAdjust="spacing" textLength="56" x="167" y="759.5918">Streamlit</text><text fill="#333333" font-family="&quot;Segoe UI, Helvetica, Arial, sans-serif&quot;" font-size="12" lengthAdjust="spacing" textLength="88" x="151" y="773.5605">Portfolio page</text><rect fill="#F3EEFF" height="27.9688" rx="3" ry="3" style="stroke:#4A6FA5;stroke-width:0.5;" width="107" x="260.5" y="101.2656"/><text fill="#333333" font-family="&quot;Segoe UI, Helvetica, Arial, sans-serif&quot;" font-size="12" lengthAdjust="spacing" textLength="93" x="267.5" y="119.4043">ChatbotWidget</text><rect fill="#F3EEFF" height="27.9688" rx="3" ry="3" style="stroke:#4A6FA5;stroke-width:0.5;" width="107" x="260.5" y="741.4531"/><text fill="#333333" font-family="&quot;Segoe UI, Helvetica, Arial, sans-serif&quot;" font-size="12" lengthAdjust="spacing" textLength="93" x="267.5" y="759.5918">ChatbotWidget</text><rect fill="#F3EEFF" height="27.9688" rx="3" ry="3" style="stroke:#4A6FA5;stroke-width:0.5;" width="68" x="433" y="101.2656"/><text fill="#333333" font-family="&quot;Segoe UI, Helvetica, Arial, sans-serif&quot;" font-size="12" lengthAdjust="spacing" textLength="54" x="440" y="119.4043">APIClient</text><rect fill="#F3EEFF" height="27.9688" rx="3" ry="3" style="stroke:#4A6FA5;stroke-width:0.5;" width="68" x="433" y="741.4531"/><text fill="#333333" font-family="&quot;Segoe UI, Helvetica, Arial, sans-serif&quot;" font-size="12" lengthAdjust="spacing" textLength="54" x="440" y="759.5918">APIClient</text><rect fill="#FEF3E8" height="41.9375" rx="3" ry="3" style="stroke:#4A6FA5;stroke-width:0.5;" width="85" x="581.5" y="87.2969"/><text fill="#333333" font-family="&quot;Segoe UI, Helvetica, Arial, sans-serif&quot;" font-size="12" lengthAdjust="spacing" textLength="46" x="601" y="105.4355">FastAPI</text><text fill="#333333" font-family="&quot;Segoe UI, Helvetica, Arial, sans-serif&quot;" font-size="12" lengthAdjust="spacing" textLength="71" x="588.5" y="119.4043">chat router</text><rect fill="#FEF3E8" height="41.9375" rx="3" ry="3" style="stroke:#4A6FA5;stroke-width:0.5;" width="85" x="581.5" y="741.4531"/><text fill="#333333" font-family="&quot;Segoe UI, Helvetica, Arial, sans-serif&quot;" font-size="12" lengthAdjust="spacing" textLength="46" x="601" y="759.5918">FastAPI</text><text fill="#333333" font-family="&quot;Segoe UI, Helvetica, Arial, sans-serif&quot;" font-size="12" lengthAdjust="spacing" textLength="71" x="588.5" y="773.5605">chat router</text><rect fill="#F3EEFF" height="27.9688" rx="3" ry="3" style="stroke:#4A6FA5;stroke-width:0.5;" width="88" x="721" y="101.2656"/><text fill="#333333" font-family="&quot;Segoe UI, Helvetica, Arial, sans-serif&quot;" font-size="12" lengthAdjust="spacing" textLength="74" x="728" y="119.4043">ChatService</text><rect fill="#F3EEFF" height="27.9688" rx="3" ry="3" style="stroke:#4A6FA5;stroke-width:0.5;" width="88" x="721" y="741.4531"/><text fill="#333333" font-family="&quot;Segoe UI, Helvetica, Arial, sans-serif&quot;" font-size="12" lengthAdjust="spacing" textLength="74" x="728" y="759.5918">ChatService</text><rect fill="#F5F5F5" height="41.9375" rx="3" ry="3" style="stroke:#4A6FA5;stroke-width:0.5;" width="123" x="863.5" y="87.2969"/><text fill="#333333" font-family="&quot;Segoe UI, Helvetica, Arial, sans-serif&quot;" font-size="12" lengthAdjust="spacing" textLength="22" x="914" y="105.4355">LLM</text><text fill="#333333" font-family="&quot;Segoe UI, Helvetica, Arial, sans-serif&quot;" font-size="12" lengthAdjust="spacing" textLength="109" x="870.5" y="119.4043">(Claude / OpenAI)</text><rect fill="#F5F5F5" height="41.9375" rx="3" ry="3" style="stroke:#4A6FA5;stroke-width:0.5;" width="123" x="863.5" y="741.4531"/><text fill="#333333" font-family="&quot;Segoe UI, Helvetica, Arial, sans-serif&quot;" font-size="12" lengthAdjust="spacing" textLength="22" x="914" y="759.5918">LLM</text><text fill="#333333" font-family="&quot;Segoe UI, Helvetica, Arial, sans-serif&quot;" font-size="12" lengthAdjust="spacing" textLength="109" x="870.5" y="773.5605">(Claude / OpenAI)</text><text fill="#333333" font-family="&quot;Segoe UI, Helvetica, Arial, sans-serif&quot;" font-size="12" lengthAdjust="spacing" textLength="79" x="996.5" y="127.4043">TimescaleDB</text><path d="M1021,80.2656 C1021,70.2656 1039,70.2656 1039,70.2656 C1039,70.2656 1057,70.2656 1057,80.2656 L1057,106.2656 C1057,116.2656 1039,116.2656 1039,116.2656 C1039,116.2656 1021,116.2656 1021,106.2656 L1021,80.2656 " fill="#ECFDF5" style="stroke:#34A853;stroke-width:1.5;"/><path d="M1021,80.2656 C1021,90.2656 1039,90.2656 1039,90.2656 C1039,90.2656 1057,90.2656 1057,80.2656 " fill="none" style="stroke:#34A853;stroke-width:1.5;"/><text fill="#333333" font-family="&quot;Segoe UI, Helvetica, Arial, sans-serif&quot;" font-size="12" lengthAdjust="spacing" textLength="79" x="996.5" y="752.5918">TimescaleDB</text><path d="M1021,765.4219 C1021,755.4219 1039,755.4219 1039,755.4219 C1039,755.4219 1057,755.4219 1057,765.4219 L1057,791.4219 C1057,801.4219 1039,801.4219 1039,801.4219 C1039,801.4219 1021,801.4219 1021,791.4219 L1021,765.4219 " fill="#ECFDF5" style="stroke:#34A853;stroke-width:1.5;"/><path d="M1021,765.4219 C1021,775.4219 1039,775.4219 1039,775.4219 C1039,775.4219 1057,775.4219 1057,765.4219 " fill="none" style="stroke:#34A853;stroke-width:1.5;"/><polygon fill="#4A6FA5" points="183,156.2031,193,160.2031,183,164.2031,187,160.2031" style="stroke:#4A6FA5;stroke-width:1.0;"/><line style="stroke:#4A6FA5;stroke-width:1.0;" x1="43" x2="189" y1="160.2031" y2="160.2031"/><text fill="#333333" font-family="&quot;Segoe UI, Helvetica, Arial, sans-serif&quot;" font-size="12" lengthAdjust="spacing" textLength="128" x="50" y="155.373">Ouvre page Portfolio</text><polygon fill="#4A6FA5" points="302,184.1719,312,188.1719,302,192.1719,306,188.1719" style="stroke:#4A6FA5;stroke-width:1.0;"/><line style="stroke:#4A6FA5;stroke-width:1.0;" x1="195" x2="308" y1="188.1719" y2="188.1719"/><text fill="#333333" font-family="&quot;Segoe UI, Helvetica, Arial, sans-serif&quot;" font-size="12" lengthAdjust="spacing" textLength="95" x="202" y="183.3418">Affiche chatbot</text><polygon fill="#4A6FA5" points="302,226.1094,312,230.1094,302,234.1094,306,230.1094" style="stroke:#4A6FA5;stroke-width:1.0;"/><line style="stroke:#4A6FA5;stroke-width:1.0;" x1="43" x2="308" y1="230.1094" y2="230.1094"/><text fill="#333333" font-family="&quot;Segoe UI, Helvetica, Arial, sans-serif&quot;" font-size="12" lengthAdjust="spacing" textLength="125" x="50" y="211.3105">"Quel est le meilleur</text><text fill="#333333" font-family="&quot;Segoe UI, Helvetica, Arial, sans-serif&quot;" font-size="12" lengthAdjust="spacing" textLength="175" x="50" y="225.2793">moment pour acheter BTC?"</text><polygon fill="#4A6FA5" points="455,254.0781,465,258.0781,455,262.0781,459,258.0781" style="stroke:#4A6FA5;stroke-width:1.0;"/><line style="stroke:#4A6FA5;stroke-width:1.0;" x1="314" x2="461" y1="258.0781" y2="258.0781"/><text fill="#333333" font-family="&quot;Segoe UI, Helvetica, Arial, sans-serif&quot;" font-size="12" lengthAdjust="spacing" textLength="129" x="321" y="253.248">post_chat(message)</text><polygon fill="#4A6FA5" points="612,296.0156,622,300.0156,612,304.0156,616,300.0156" style="stroke:#4A6FA5;stroke-width:1.0;"/><line style="stroke:#4A6FA5;stroke-width:1.0;" x1="467" x2="618" y1="300.0156" y2="300.0156"/><text fill="#333333" font-family="&quot;Segoe UI, Helvetica, Arial, sans-serif&quot;" font-size="12" lengthAdjust="spacing" textLength="109" x="474" y="281.2168">POST /api/v1/chat</text><text fill="#333333" font-family="&quot;Segoe UI, Helvetica, Arial, sans-serif&quot;" font-size="12" lengthAdjust="spacing" textLength="103" x="474" y="295.1855">{message: "..."}</text><polygon fill="#4A6FA5" points="753,323.9844,763,327.9844,753,331.9844,757,327.9844" style="stroke:#4A6FA5;stroke-width:1.0;"/><line style="stroke:#4A6FA5;stroke-width:1.0;" x1="624" x2="759" y1="327.9844" y2="327.9844"/><text fill="#333333" font-family="&quot;Segoe UI, Helvetica, Arial, sans-serif&quot;" font-size="12" lengthAdjust="spacing" textLength="117" x="631" y="323.1543">process(message)</text><polygon fill="#4A6FA5" points="1027,365.9219,1037,369.9219,1027,373.9219,1031,369.9219" style="stroke:#4A6FA5;stroke-width:1.0;"/><line style="stroke:#4A6FA5;stroke-width:1.0;" x1="765" x2="1033" y1="369.9219" y2="369.9219"/><text fill="#333333" font-family="&quot;Segoe UI, Helvetica, Arial, sans-serif&quot;" font-size="12" lengthAdjust="spacing" textLength="86" x="772" y="351.123">Fetch context</text><text fill="#333333" font-family="&quot;Segoe UI, Helvetica, Arial, sans-serif&quot;" font-size="12" lengthAdjust="spacing" textLength="160" x="772" y="365.0918">(portfolio, signals, prices)</text><polygon fill="#4A6FA5" points="776,393.8906,766,397.8906,776,401.8906,772,397.8906" style="stroke:#4A6FA5;stroke-width:1.0;"/><line style="stroke:#4A6FA5;stroke-width:1.0;stroke-dasharray:2.0,2.0;" x1="770" x2="1038" y1="397.8906" y2="397.8906"/><text fill="#333333" font-family="&quot;Segoe UI, Helvetica, Arial, sans-serif&quot;" font-size="12" lengthAdjust="spacing" textLength="79" x="782" y="393.0605">user context</text><polygon fill="#4A6FA5" points="913,435.8281,923,439.8281,913,443.8281,917,439.8281" style="stroke:#4A6FA5;stroke-width:1.0;"/><line style="stroke:#4A6FA5;stroke-width:1.0;" x1="765" x2="919" y1="439.8281" y2="439.8281"/><text fill="#333333" font-family="&quot;Segoe UI, Helvetica, Arial, sans-serif&quot;" font-size="12" lengthAdjust="spacing" textLength="110" x="772" y="421.0293">Prompt + context</text><text fill="#333333" font-family="&quot;Segoe UI, Helvetica, Arial, sans-serif&quot;" font-size="12" lengthAdjust="spacing" textLength="136" x="772" y="434.998">+ system instructions</text><path d="M930,455.8281 L930,514.8281 A3,3 0 0 0 933,517.8281 L1122,517.8281 A3,3 0 0 0 1125,514.8281 L1125,462.8281 L1115,452.8281 L933,452.8281 A3,3 0 0 0 930,455.8281 " fill="#FEF3E8" style="stroke:#181818;stroke-width:0.5;"/><path d="M1115,452.8281 L1115,461.3281 A1.5,1.5 0 0 0 1116.5,462.8281 L1125,462.8281 L1115,452.8281 " fill="#FEF3E8" style="stroke:#181818;stroke-width:0.5;"/><text fill="#333333" font-family="&quot;Segoe UI, Helvetica, Arial, sans-serif&quot;" font-size="12" lengthAdjust="spacing" textLength="174" x="936" y="468.9668">System: "Tu es un assistant</text><text fill="#333333" font-family="&quot;Segoe UI, Helvetica, Arial, sans-serif&quot;" font-size="12" lengthAdjust="spacing" textLength="106" x="936" y="482.9355">crypto informatif.</text><text fill="#333333" font-family="&quot;Segoe UI, Helvetica, Arial, sans-serif&quot;" font-size="12" lengthAdjust="spacing" textLength="152" x="936" y="496.9043">Ne jamais recommander</text><text fill="#333333" font-family="&quot;Segoe UI, Helvetica, Arial, sans-serif&quot;" font-size="12" lengthAdjust="spacing" textLength="136" x="936" y="510.873">d'acheter ou vendre."</text><polygon fill="#4A6FA5" points="776,539.6719,766,543.6719,776,547.6719,772,543.6719" style="stroke:#4A6FA5;stroke-width:1.0;"/><line style="stroke:#4A6FA5;stroke-width:1.0;stroke-dasharray:2.0,2.0;" x1="770" x2="924" y1="543.6719" y2="543.6719"/><text fill="#333333" font-family="&quot;Segoe UI, Helvetica, Arial, sans-serif&quot;" font-size="12" lengthAdjust="spacing" textLength="87" x="782" y="538.8418">response text</text><line style="stroke:#4A6FA5;stroke-width:1.0;" x1="765" x2="807" y1="599.5781" y2="599.5781"/><line style="stroke:#4A6FA5;stroke-width:1.0;" x1="807" x2="807" y1="599.5781" y2="612.5781"/><line style="stroke:#4A6FA5;stroke-width:1.0;" x1="766" x2="807" y1="612.5781" y2="612.5781"/><polygon fill="#4A6FA5" points="776,608.5781,766,612.5781,776,616.5781,772,612.5781" style="stroke:#4A6FA5;stroke-width:1.0;"/><text fill="#333333" font-family="&quot;Segoe UI, Helvetica, Arial, sans-serif&quot;" font-size="12" lengthAdjust="spacing" textLength="91" x="772" y="566.8105">Add disclaimer</text><text fill="#333333" font-family="&quot;Segoe UI, Helvetica, Arial, sans-serif&quot;" font-size="12" lengthAdjust="spacing" textLength="113" x="772" y="580.7793">"Ceci n'est pas un</text><text fill="#333333" font-family="&quot;Segoe UI, Helvetica, Arial, sans-serif&quot;" font-size="12" lengthAdjust="spacing" textLength="107" x="772" y="594.748">conseil financier"</text><polygon fill="#4A6FA5" points="635,636.5469,625,640.5469,635,644.5469,631,640.5469" style="stroke:#4A6FA5;stroke-width:1.0;"/><line style="stroke:#4A6FA5;stroke-width:1.0;stroke-dasharray:2.0,2.0;" x1="629" x2="764" y1="640.5469" y2="640.5469"/><text fill="#333333" font-family="&quot;Segoe UI, Helvetica, Arial, sans-serif&quot;" font-size="12" lengthAdjust="spacing" textLength="91" x="641" y="635.7168">ChatResponse</text><polygon fill="#4A6FA5" points="478,664.5156,468,668.5156,478,672.5156,474,668.5156" style="stroke:#4A6FA5;stroke-width:1.0;"/><line style="stroke:#4A6FA5;stroke-width:1.0;stroke-dasharray:2.0,2.0;" x1="472" x2="623" y1="668.5156" y2="668.5156"/><text fill="#333333" font-family="&quot;Segoe UI, Helvetica, Arial, sans-serif&quot;" font-size="12" lengthAdjust="spacing" textLength="133" x="484" y="663.6855">200 {response: "..."}</text><polygon fill="#4A6FA5" points="325,692.4844,315,696.4844,325,700.4844,321,696.4844" style="stroke:#4A6FA5;stroke-width:1.0;"/><line style="stroke:#4A6FA5;stroke-width:1.0;stroke-dasharray:2.0,2.0;" x1="319" x2="466" y1="696.4844" y2="696.4844"/><text fill="#333333" font-family="&quot;Segoe UI, Helvetica, Arial, sans-serif&quot;" font-size="12" lengthAdjust="spacing" textLength="106" x="331" y="691.6543">display response</text><polygon fill="#4A6FA5" points="54,720.4531,44,724.4531,54,728.4531,50,724.4531" style="stroke:#4A6FA5;stroke-width:1.0;"/><line style="stroke:#4A6FA5;stroke-width:1.0;stroke-dasharray:2.0,2.0;" x1="48" x2="313" y1="724.4531" y2="724.4531"/><text fill="#333333" font-family="&quot;Segoe UI, Helvetica, Arial, sans-serif&quot;" font-size="12" lengthAdjust="spacing" textLength="136" x="60" y="719.623">Reponse + disclaimer</text><!--MD5=[783a99c019e31aaf2e025f1eafe05b60]
@startuml SQ04-chat-llm-flow
!include _common.puml

title CryptoBot — Flux Chatbot LLM
caption Streamlit -> FastAPI -> ChatService -> LLM

actor "Aleksandar\n(debutant)" as user
participant "Streamlit\nPortfolio page" as st #FEF3E8
participant "ChatbotWidget" as widget #F3EEFF
participant "APIClient" as client #F3EEFF
participant "FastAPI\nchat router" as api #FEF3E8
participant "ChatService" as svc #F3EEFF
participant "LLM\n(Claude / OpenAI)" as llm #F5F5F5
database "TimescaleDB" as db #ECFDF5

user -> st : Ouvre page Portfolio
st -> widget : Affiche chatbot

user -> widget : "Quel est le meilleur\nmoment pour acheter BTC?"
widget -> client : post_chat(message)
client -> api : POST /api/v1/chat\n{message: "..."}

api -> svc : process(message)

svc -> db : Fetch context\n(portfolio, signals, prices)
db - -> svc : user context

svc -> llm : Prompt + context\n+ system instructions
note right of llm
  System: "Tu es un assistant
  crypto informatif.
  Ne jamais recommander
  d'acheter ou vendre."
end note

llm - -> svc : response text

svc -> svc : Add disclaimer\n"Ceci n'est pas un\nconseil financier"

svc - -> api : ChatResponse
api - -> client : 200 {response: "..."}
client - -> widget : display response
widget - -> user : Reponse + disclaimer

@enduml

@startuml SQ04-chat-llm-flow

skinparam backgroundColor white
skinparam defaultFontName "Segoe UI, Helvetica, Arial, sans-serif"
skinparam defaultFontSize 12
skinparam defaultFontColor #333333
skinparam shadowing false
skinparam roundCorner 6


skinparam component {
  BackgroundColor #F3EEFF
  BorderColor #7C5CFC
  FontColor #333333
  ArrowColor #4A6FA5
  StereotypeFontColor #7C5CFC
}

skinparam package {
  BackgroundColor #F5F5F5
  BorderColor #4A6FA5
  FontColor #333333
}

skinparam class {
  BackgroundColor #ECFDF5
  BorderColor #34A853
  FontColor #333333
  HeaderBackgroundColor #34A853
  HeaderFontColor white
  ArrowColor #4A6FA5
  StereotypeFontColor #7C5CFC
  AttributeFontColor #555555
}

skinparam sequence {
  ArrowColor #4A6FA5
  ActorBorderColor #7C5CFC
  LifeLineBorderColor #CCCCCC
  LifeLineBackgroundColor #F5F5F5
  ParticipantBorderColor #4A6FA5
  ParticipantBackgroundColor #F3EEFF
  ParticipantFontColor #333333
  BoxBorderColor #CCCCCC
  BoxBackgroundColor #F5F5F5
  DividerBackgroundColor #4A6FA5
  DividerFontColor white
}

skinparam activity {
  BackgroundColor #FEF3E8
  BorderColor #E8943A
  FontColor #333333
  ArrowColor #4A6FA5
  DiamondBackgroundColor #F3EEFF
  DiamondBorderColor #7C5CFC
}

skinparam node {
  BackgroundColor #F3EEFF
  BorderColor #7C5CFC
  FontColor #333333
}

skinparam database {
  BackgroundColor #ECFDF5
  BorderColor #34A853
  FontColor #333333
}

skinparam entity {
  BackgroundColor white
  BorderColor #4A6FA5
  FontColor #333333
  HeaderBackgroundColor #4A6FA5
  HeaderFontColor white
}

skinparam state {
  BackgroundColor #FEF3E8
  BorderColor #E8943A
  FontColor #333333
  ArrowColor #4A6FA5
}

skinparam usecase {
  BackgroundColor #F3EEFF
  BorderColor #7C5CFC
  FontColor #333333
  ArrowColor #4A6FA5
  ActorBorderColor #E8943A
}

skinparam note {
  BackgroundColor #FEF3E8
  BorderColor #E8943A
  FontColor #333333
}

skinparam legend {
  BackgroundColor #F5F5F5
  BorderColor #CCCCCC
  FontColor #333333
}



title CryptoBot — Flux Chatbot LLM
caption Streamlit -> FastAPI -> ChatService -> LLM

actor "Aleksandar\n(debutant)" as user
participant "Streamlit\nPortfolio page" as st #FEF3E8
participant "ChatbotWidget" as widget #F3EEFF
participant "APIClient" as client #F3EEFF
participant "FastAPI\nchat router" as api #FEF3E8
participant "ChatService" as svc #F3EEFF
participant "LLM\n(Claude / OpenAI)" as llm #F5F5F5
database "TimescaleDB" as db #ECFDF5

user -> st : Ouvre page Portfolio
st -> widget : Affiche chatbot

user -> widget : "Quel est le meilleur\nmoment pour acheter BTC?"
widget -> client : post_chat(message)
client -> api : POST /api/v1/chat\n{message: "..."}

api -> svc : process(message)

svc -> db : Fetch context\n(portfolio, signals, prices)
db - -> svc : user context

svc -> llm : Prompt + context\n+ system instructions
note right of llm
  System: "Tu es un assistant
  crypto informatif.
  Ne jamais recommander
  d'acheter ou vendre."
end note

llm - -> svc : response text

svc -> svc : Add disclaimer\n"Ceci n'est pas un\nconseil financier"

svc - -> api : ChatResponse
api - -> client : 200 {response: "..."}
client - -> widget : display response
widget - -> user : Reponse + disclaimer

@enduml

PlantUML version 1.2022.6(Tue Jun 21 19:34:49 CEST 2022)
(GPL source distribution)
Java Runtime: OpenJDK Runtime Environment
JVM: OpenJDK 64-Bit Server VM
Default Encoding: UTF-8
Language: en
Country: US
--></g></svg>